<svg width="199" height="36" viewBox="0 0 199 36" fill="none" xmlns="http://www.w3.org/2000/svg">
<path d="M20.3209 12.536L12.524 30.9846C12.4753 31.1267 12.3819 31.2688 12.3332 31.3176C12.3332 31.3663 12.2845 31.3663 12.2845 31.3663C12.187 31.4597 12.0936 31.6059 12.0002 31.6993C12.0002 31.748 11.9515 31.748 11.9515 31.748C11.8581 31.8901 11.7606 31.9389 11.6672 32.0323C11.6672 32.0323 11.6185 32.0323 11.6185 32.081C11.521 32.1744 11.4276 32.2719 11.2855 32.3206C11.2855 32.3206 11.2855 32.3206 11.1921 32.3206C11.1921 32.3206 11.1921 32.3206 11.1921 32.3693C11.0499 32.3693 10.9078 32.4181 10.8104 32.4627C10.7616 32.4627 10.7616 32.4627 10.717 32.4627C10.5261 32.5115 10.384 32.5115 10.2418 32.5115C10.1484 32.5115 10.0022 32.5115 9.81543 32.4627C9.7667 32.4627 9.7667 32.4627 9.72203 32.4627C9.5799 32.414 9.48244 32.3693 9.34031 32.3693C9.34031 32.3206 9.34031 32.3206 9.34031 32.3206C9.24691 32.3206 9.24691 32.3206 9.24691 32.3206C9.10478 32.2719 9.00732 32.1785 8.82052 32.081C8.82052 32.0323 8.77179 32.0323 8.77179 32.0323C8.67432 31.9389 8.58092 31.8901 8.48752 31.748C8.43879 31.748 8.43879 31.748 8.39412 31.6993C8.34539 31.6059 8.25199 31.4597 8.15453 31.3663C8.1058 31.3663 8.1058 31.3663 8.1058 31.3176C8.00834 31.2688 7.96367 31.1267 7.91494 30.9846L0.211438 12.536C-0.357086 11.2527 0.260168 9.87201 1.59214 9.30349C2.73325 8.73497 4.20735 9.39689 4.77587 10.6842L10.2418 23.6181L15.7565 10.6842C16.2804 9.40095 17.7057 8.73497 18.9402 9.30349C20.2722 9.87608 20.8895 11.2527 20.3209 12.536Z" fill="black"/>
<path d="M22.0671 20.9054C22.0671 14.4405 27.1067 9.21008 33.3848 9.21008C39.3746 9.21008 44.1299 13.9654 44.6051 20.0486V20.0973V20.2395C44.6051 20.8567 44.0812 21.2872 43.4639 21.2872H24.3494C24.589 26.3754 28.5808 30.2252 33.3848 30.2252C36.4752 30.2252 39.33 28.6089 40.8975 25.9937C41.2305 25.4252 41.9452 25.3277 42.4203 25.612C42.9442 25.9937 43.135 26.6597 42.802 27.2282C40.8041 30.416 37.3361 32.5074 33.3889 32.5074C27.1067 32.5074 22.0671 27.277 22.0671 20.9054ZM24.4915 19.0537H42.132C41.3726 14.6801 37.6609 11.4923 33.3848 11.4923C29.0072 11.4923 25.3483 14.6314 24.4915 19.0537Z" fill="black"/>
<path d="M55.6019 19.5532L61.9044 10.9563C62.3349 10.3715 62.2008 9.52277 61.5795 9.14917C61.4861 9.09231 61.3927 9.03141 61.3074 8.96643C60.7633 8.56441 59.9836 8.72685 59.5816 9.27507L54.339 16.4506C53.8314 17.1451 52.7999 17.1451 52.2882 16.4547L46.3918 8.43851C45.9776 7.87405 45.1736 7.74005 44.6213 8.1705C44.5441 8.23142 44.4629 8.28827 44.3776 8.34512C43.7888 8.72684 43.6873 9.5512 44.0974 10.1197L50.9684 19.5572C51.2933 20.0039 51.2933 20.609 50.9684 21.0557L45.8274 28.081C45.4416 28.6089 45.5309 29.3277 46.0101 29.7744C46.0466 29.8069 46.0832 29.8434 46.1157 29.8759C46.6883 30.4526 47.6141 30.4445 48.0933 29.7907L52.2842 24.0973C52.7918 23.407 53.8273 23.4069 54.3349 24.1014L61.7541 34.2576C61.9937 34.6759 62.4729 34.8546 62.9521 34.8546C63.1917 34.8546 63.4922 34.7328 63.6709 34.5541C64.3897 34.0749 64.5074 33.2383 64.0892 32.5764L55.6019 21.0557C55.273 20.6131 55.273 20.0039 55.6019 19.5532Z" fill="black" stroke="black" stroke-miterlimit="10"/>
<path d="M70.3917 3.0416C70.3917 2.65987 70.6313 2.42435 71.0089 2.42435C71.2932 2.42435 71.5815 2.66393 71.5815 3.0416V4.18271C71.5815 4.46697 71.2973 4.75123 71.0089 4.75123C70.6272 4.75123 70.3917 4.46697 70.3917 4.18271V3.0416ZM70.3917 10.5055C70.3917 10.1238 70.6313 9.93698 71.0089 9.93698C71.2932 9.93698 71.5815 10.1279 71.5815 10.5055V32.613C71.5815 32.946 71.2973 33.2302 71.0089 33.2302C70.6272 33.2302 70.3917 32.946 70.3917 32.613V10.5055Z" fill="black"/>
<path d="M101.299 19.3501C101.299 14.737 97.5915 11.1228 93.1205 11.1228C88.6494 11.1228 84.8931 14.737 84.8931 19.3501V32.617C84.8931 32.7592 84.8444 32.9013 84.751 32.9988C84.6576 33.1409 84.5114 33.2384 84.3246 33.2384H84.2312H84.1337C84.085 33.1896 84.0403 33.1896 83.9916 33.145C83.9429 33.145 83.8941 33.0962 83.8495 33.0475C83.8007 32.9988 83.8007 32.9988 83.8007 32.9541C83.752 32.9054 83.7033 32.812 83.7033 32.7145V32.617V19.3501V18.9684V10.5055C83.7033 10.1238 83.9875 9.93698 84.3205 9.93698C84.6535 9.93698 84.8931 10.1279 84.8931 10.5055V14.7857C86.5093 11.8862 89.5997 9.93698 93.1205 9.93698C98.2534 9.93698 102.489 14.1197 102.489 19.3501V32.617C102.489 32.95 102.205 33.2343 101.872 33.2343C101.49 33.2343 101.299 32.95 101.299 32.617V19.3501Z" fill="black"/>
<path d="M110.14 10.8385C109.998 10.5542 110.188 10.2212 110.473 10.0791C110.806 9.93699 111.09 10.0791 111.232 10.4121L119.983 31.0942L128.73 10.4121C128.824 10.0791 129.157 9.93699 129.445 10.0791C129.778 10.2212 129.969 10.5542 129.827 10.8385L120.556 32.8039C120.556 32.8526 120.507 32.946 120.462 32.9947C120.32 33.1368 120.178 33.2343 120.036 33.2343H119.987H119.845C119.703 33.1856 119.512 33.0435 119.419 32.8526L110.14 10.8385Z" fill="black"/>
<path d="M136.479 21.5877C136.572 15.1187 141.567 9.93698 147.796 9.93698C153.741 9.93698 158.541 14.6436 158.968 20.6821V20.7308V20.8242V20.873C158.919 21.1572 158.684 21.4455 158.399 21.4455H137.668V21.5877C137.668 27.2932 142.184 31.9998 147.796 32.0485C151.313 32.0485 154.403 30.148 156.166 27.2932C156.357 27.009 156.69 27.009 157.023 27.1511C157.262 27.2932 157.356 27.6749 157.165 27.9592C155.167 31.0495 151.699 33.2384 147.796 33.2384C141.567 33.1409 136.576 27.9551 136.479 21.5877ZM137.717 20.3004H157.782C157.165 15.1187 152.885 11.1715 147.796 11.1715C142.615 11.1715 138.334 15.1187 137.717 20.3004Z" fill="black"/>
<path d="M165.291 29.145C165.481 28.812 165.863 28.7632 166.147 29.0516C167.861 30.4282 170.761 32.0485 173.851 32.0485C175.898 32.0485 177.656 31.4312 178.988 30.481C180.32 29.5307 181.079 28.2475 181.079 26.8668C181.031 25.5348 180.413 24.4912 179.13 23.5856C177.798 22.7288 175.991 22.1115 173.757 21.6851H173.615C171.475 21.3521 169.575 20.7836 168.194 19.7846C166.817 18.8831 165.863 17.5024 165.863 15.8374C165.912 12.4628 169.526 9.94104 173.802 9.94104C176.75 9.94104 179.033 11.4151 180.84 12.6497C181.124 12.8405 181.173 13.2182 181.031 13.4578C180.84 13.742 180.462 13.8395 180.174 13.6486C178.367 12.4588 176.369 11.1268 173.802 11.1268C171.853 11.1268 170.139 11.6953 168.953 12.6009C167.764 13.5024 167.098 14.5989 167.098 15.8334C167.098 17.0679 167.67 17.9735 168.856 18.7816C170.046 19.5897 171.804 20.1623 173.896 20.5887H173.944C176.275 21.0638 178.269 21.5877 179.792 22.5866C181.266 23.5856 182.265 25.0597 182.265 26.8668C182.216 30.5297 178.367 33.2383 173.851 33.2383C170.334 33.2383 167.244 31.4313 165.388 29.9084C165.104 29.7176 165.104 29.3846 165.291 29.145Z" fill="black"/>
<path d="M199 10.5542C199 10.8872 198.716 11.1268 198.383 11.1268H194.578V29.6688C194.578 31.0008 195.67 32.0932 197.002 32.0932C197.335 32.0932 197.619 32.3328 197.619 32.6658C197.619 32.9988 197.335 33.283 197.002 33.283C195.004 33.283 193.388 31.6668 193.388 29.6688V11.1268H189.396C189.063 11.1268 188.779 10.8872 188.779 10.5542C188.779 10.2213 189.063 9.93698 189.396 9.93698H193.388V0.617256C193.388 0.284264 193.627 0 193.96 0C194.293 0 194.578 0.284264 194.578 0.617256V9.93698H198.383C198.716 9.93698 199 10.2213 199 10.5542Z" fill="black"/>
<path d="M10.3515 9.94104L17.6529 28.0079L10.3515 23.7156L3.04999 28.0079L10.3515 9.94104Z" fill="#00CFC1"/>
</svg>
