<svg width="453" height="451" viewBox="0 0 453 451" fill="none" xmlns="http://www.w3.org/2000/svg">
<path d="M97.3906 347.636C100.436 346.621 105.838 341.656 105.838 341.646C105.838 341.636 101.492 339.118 101.198 338.996C97.7764 337.554 90.3141 336.783 87.6033 339.94C87.1745 340.478 86.8627 341.098 86.6879 341.763C86.513 342.428 86.479 343.122 86.588 343.801C86.6969 344.479 86.9465 345.128 87.3207 345.704C87.6948 346.281 88.1853 346.773 88.7607 347.149C91.1568 348.855 94.7509 348.489 97.3906 347.636Z" fill="#9C9C9C"/>
<path d="M153.648 299.776C153.719 299.776 151.414 295.278 151.231 295.004C149.201 291.958 143.373 287.156 139.373 288.293C138.713 288.5 138.105 288.844 137.587 289.302C137.068 289.76 136.652 290.321 136.365 290.95C136.078 291.579 135.926 292.261 135.92 292.952C135.913 293.644 136.052 294.329 136.327 294.963C137.413 297.684 140.611 299.369 143.292 300.111C146.439 300.984 153.637 299.786 153.648 299.776Z" fill="#9C9C9C"/>
<path d="M303.27 104.201C305.443 107.836 313.271 113.166 313.281 113.166C313.291 113.166 315.23 106.942 315.311 106.526C316.144 101.785 314.966 92.1193 310.235 89.6014C309.431 89.2048 308.553 88.9818 307.657 88.9472C306.761 88.9125 305.868 89.0668 305.036 89.4001C304.203 89.7334 303.451 90.2381 302.826 90.8816C302.202 91.525 301.72 92.2926 301.412 93.1346C299.94 96.6678 301.422 101.115 303.27 104.201Z" fill="#9C9C9C"/>
<path d="M380.036 161.605C380.036 161.697 385.112 157.483 385.386 157.179C388.706 153.676 393.052 144.995 390.463 140.234C390.011 139.459 389.401 138.788 388.673 138.265C387.944 137.742 387.114 137.378 386.236 137.197C385.358 137.016 384.451 137.022 383.575 137.215C382.699 137.407 381.874 137.782 381.153 138.315C378.015 140.477 376.807 145.006 376.635 148.6C376.442 152.823 380.036 161.595 380.036 161.605Z" fill="#9C9C9C"/>
<path d="M351.385 307.157V303.756C351.385 286.242 373.558 285.48 373.558 273.013C373.558 267.601 369.152 264.068 362.593 264.068C355.415 264.068 350.877 267.977 350.877 273.52V274.911C350.877 276.292 350.126 276.942 348.735 276.942L335.262 276.434C334.003 276.434 333.12 275.805 333.12 274.932V273.541C333.12 258.311 345.212 247.844 362.979 247.844C380.361 247.844 391.57 257.672 391.57 272.404C391.57 293.318 369.02 293.45 369.02 304.893V307.157C369.054 307.446 369.022 307.74 368.927 308.015C368.831 308.291 368.675 308.541 368.468 308.747C368.262 308.954 368.012 309.11 367.736 309.206C367.461 309.301 367.167 309.333 366.878 309.299H353.527C353.237 309.333 352.944 309.301 352.668 309.206C352.393 309.11 352.142 308.954 351.936 308.747C351.73 308.541 351.573 308.291 351.478 308.015C351.382 307.74 351.35 307.446 351.385 307.157ZM350.247 327.462C350.247 321.919 355.161 317.381 361.081 317.381C366.756 317.381 371.792 321.919 371.792 327.462C371.792 333.006 366.715 337.544 360.959 337.544C355.202 337.544 350.247 332.986 350.247 327.442V327.462Z" fill="#263238"/>
<path d="M85.1767 162.885V159.93C85.1767 144.701 104.467 144.061 104.467 133.228C104.467 128.517 100.64 125.461 94.9539 125.461C88.7099 125.461 84.8011 128.852 84.8011 133.665V134.873C84.8011 136.071 84.1513 136.619 82.9431 136.619L71.2369 136.183C70.1404 136.183 69.3789 135.634 69.3789 134.873V133.665C69.3789 120.466 79.8769 111.328 95.3093 111.328C110.407 111.328 120.153 119.867 120.153 132.649C120.153 150.813 100.558 150.925 100.558 160.885V162.854C100.588 163.105 100.56 163.36 100.477 163.598C100.394 163.837 100.258 164.054 100.079 164.233C99.9002 164.412 99.6833 164.548 99.4446 164.631C99.2058 164.714 98.9514 164.741 98.7003 164.712H87.0347C86.7865 164.741 86.535 164.713 86.2987 164.632C86.0625 164.551 85.8474 164.417 85.6693 164.242C85.4911 164.067 85.3544 163.854 85.2692 163.619C85.184 163.384 85.1524 163.133 85.1767 162.885ZM84.1615 180.5C84.1615 175.687 88.4257 171.748 93.563 171.748C98.4871 171.748 102.873 175.687 102.873 180.5C102.873 185.312 98.4871 189.252 93.4615 189.252C91.074 189.312 88.7596 188.426 87.0231 186.786C85.2866 185.147 84.2689 182.887 84.1919 180.5H84.1615Z" fill="#00CFC1"/>
<path d="M330.226 46.3807V44.8882C330.226 37.2025 339.952 36.8675 339.952 31.3951C339.952 29.0193 338.013 27.4659 335.14 27.4659C331.993 27.4659 330.003 29.1818 330.003 31.6184V32.2276C330.003 32.8368 329.668 33.1109 329.058 33.1109L323.149 32.8876C322.591 32.8876 322.205 32.6134 322.205 32.2276V31.6184C322.205 24.9277 327.515 20.3386 335.313 20.3386C342.937 20.3386 347.862 24.6536 347.862 31.121C347.862 40.2585 337.962 40.3499 337.962 45.335V46.3502C337.977 46.4774 337.963 46.6063 337.921 46.7271C337.878 46.8479 337.809 46.9575 337.718 47.0475C337.627 47.1376 337.517 47.2057 337.396 47.2467C337.274 47.2877 337.145 47.3006 337.018 47.2843H331.16C331.036 47.3001 330.911 47.2878 330.792 47.2484C330.674 47.209 330.566 47.1436 330.476 47.0568C330.386 46.97 330.317 46.8642 330.274 46.7472C330.231 46.6302 330.214 46.5049 330.226 46.3807ZM329.728 55.2847C329.663 54.3354 329.885 53.3884 330.365 52.5669C330.846 51.7455 331.562 51.0875 332.421 50.6786C333.28 50.2697 334.243 50.1287 335.183 50.2742C336.124 50.4196 336.999 50.8446 337.694 51.4939C338.39 52.1432 338.874 52.9868 339.084 53.915C339.293 54.8432 339.219 55.813 338.87 56.6982C338.521 57.5835 337.914 58.3434 337.127 58.879C336.341 59.4145 335.411 59.701 334.46 59.7012C333.859 59.7229 333.26 59.6258 332.696 59.4154C332.133 59.205 331.617 58.8855 331.177 58.4752C330.738 58.0649 330.383 57.5719 330.135 57.0244C329.886 56.4769 329.748 55.8857 329.728 55.2847Z" fill="#00CFC1"/>
<path d="M45.1034 251.712V249.834C45.1034 240.148 57.3681 239.732 57.3681 232.828C57.3681 229.833 54.9314 227.883 51.2764 227.883C47.3066 227.883 44.7988 230.046 44.7988 233.112V233.873C44.7988 234.645 44.3826 234.99 43.611 234.99L36.1588 234.716C35.4582 234.716 34.9709 234.361 34.9709 233.873V233.112C34.9709 224.685 41.6616 218.898 51.4896 218.898C61.1043 218.898 67.2976 224.33 67.2976 232.482C67.2976 244.047 54.8299 244.118 54.8299 250.463V251.712C54.8496 251.873 54.8324 252.036 54.7797 252.189C54.727 252.342 54.64 252.481 54.5255 252.596C54.4111 252.71 54.272 252.797 54.1189 252.85C53.9658 252.902 53.8027 252.92 53.642 252.9H46.271C46.1119 252.916 45.9511 252.897 45.8006 252.842C45.6501 252.788 45.5137 252.701 45.4016 252.587C45.2894 252.473 45.2044 252.335 45.1528 252.183C45.1012 252.032 45.0843 251.871 45.1034 251.712V251.712ZM44.474 262.931C44.3945 261.735 44.6769 260.542 45.2845 259.509C45.8922 258.476 46.7968 257.649 47.8807 257.137C48.9647 256.625 50.1776 256.451 51.3617 256.638C52.5458 256.825 53.6462 257.364 54.5197 258.185C55.3931 259.006 55.9991 260.071 56.2588 261.242C56.5185 262.412 56.4198 263.633 55.9757 264.747C55.5315 265.86 54.7624 266.814 53.7685 267.485C52.7746 268.155 51.602 268.51 50.4032 268.505C48.8753 268.554 47.3903 267.995 46.2746 266.949C45.159 265.904 44.504 264.459 44.4537 262.931H44.474Z" stroke="#263238" stroke-miterlimit="10"/>
<path d="M138.51 76.4535V75.164C138.51 68.5038 146.947 68.2093 146.947 63.468C146.947 61.4374 145.271 60.0668 142.774 60.0668C140.043 60.0668 138.317 61.5491 138.317 63.6609V64.1888C138.317 64.7168 138.032 64.9503 137.505 64.9503L132.428 64.7574C131.951 64.7574 131.616 64.5239 131.616 64.1888V63.6609C131.616 57.8636 136.215 53.8837 142.967 53.8837C149.718 53.8837 153.739 57.6199 153.739 63.2243C153.739 71.1841 145.16 71.2349 145.16 75.5905V76.4535C145.173 76.5633 145.161 76.6746 145.125 76.7791C145.088 76.8836 145.029 76.9785 144.951 77.0567C144.873 77.1349 144.778 77.1943 144.673 77.2305C144.569 77.2667 144.457 77.2787 144.348 77.2657H139.271C139.165 77.2708 139.06 77.2528 138.962 77.2131C138.864 77.1733 138.775 77.1127 138.703 77.0355C138.63 76.9582 138.576 76.8662 138.542 76.7657C138.509 76.6652 138.498 76.5587 138.51 76.4535ZM138.083 84.1696C138.039 83.3584 138.238 82.5524 138.656 81.8558C139.075 81.1592 139.692 80.6041 140.429 80.2622C141.166 79.9203 141.989 79.8074 142.791 79.9379C143.593 80.0685 144.337 80.4366 144.928 80.9946C145.518 81.5526 145.928 82.275 146.103 83.0682C146.279 83.8615 146.213 84.6892 145.913 85.4444C145.613 86.1995 145.094 86.8475 144.422 87.3044C143.75 87.7613 142.957 88.0062 142.144 88.0074C141.096 88.043 140.076 87.661 139.309 86.9453C138.542 86.2295 138.09 85.2385 138.053 84.1899L138.083 84.1696Z" fill="#263238"/>
<path d="M288.772 354.794V353.505C288.772 346.844 297.209 346.56 297.209 341.808C297.209 339.778 295.534 338.407 293.036 338.407C290.305 338.407 288.579 339.89 288.579 342.001V342.529C288.579 343.057 288.295 343.301 287.767 343.301L282.69 343.108C282.213 343.108 281.878 342.864 281.878 342.529V342.001C281.878 336.204 286.477 332.224 293.229 332.224C299.981 332.224 304.113 335.96 304.113 341.575C304.113 349.525 295.534 349.575 295.534 353.931V354.794C295.546 354.904 295.534 355.016 295.498 355.121C295.462 355.226 295.403 355.321 295.325 355.4C295.247 355.479 295.152 355.539 295.048 355.577C294.943 355.614 294.832 355.628 294.721 355.616H289.645C289.53 355.638 289.412 355.632 289.299 355.6C289.187 355.567 289.084 355.508 288.999 355.428C288.914 355.347 288.849 355.248 288.809 355.138C288.77 355.028 288.757 354.91 288.772 354.794V354.794ZM288.345 362.51C288.301 361.699 288.5 360.893 288.919 360.196C289.337 359.5 289.954 358.945 290.691 358.603C291.429 358.261 292.251 358.148 293.053 358.278C293.855 358.409 294.599 358.777 295.19 359.335C295.78 359.893 296.19 360.615 296.366 361.409C296.541 362.202 296.475 363.03 296.175 363.785C295.875 364.54 295.356 365.188 294.684 365.645C294.013 366.102 293.219 366.347 292.407 366.348C291.362 366.372 290.349 365.983 289.59 365.264C288.831 364.545 288.388 363.555 288.356 362.51H288.345Z" stroke="#263238" stroke-miterlimit="10"/>
<path d="M249.023 377.902C248.952 377.689 248.881 377.475 248.8 377.262C248.719 377.049 248.658 376.826 248.577 376.612C248.496 376.399 248.435 376.186 248.353 375.973C248.272 375.76 248.211 375.536 248.13 375.323C248.049 375.11 247.988 374.897 247.907 374.683C247.825 374.47 247.765 374.247 247.683 374.034L247.46 373.394C247.389 373.171 247.308 372.957 247.237 372.744L247.013 372.105C246.942 371.881 246.861 371.668 246.79 371.455L246.566 370.815C246.495 370.592 246.414 370.379 246.343 370.165L246.13 369.485C246.059 369.262 245.978 369.048 245.907 368.835L245.673 368.196C245.602 367.972 245.531 367.759 245.45 367.546C245.368 367.333 245.308 367.119 245.226 366.906C245.145 366.693 245.084 366.47 245.003 366.256C244.922 366.043 244.861 365.83 244.78 365.617C241.47 355.545 231.236 348.154 219.976 348.154C209.062 348.154 199.569 354.51 195.609 363.464C195.508 363.668 195.416 363.881 195.325 364.084L195.051 364.713C194.949 364.916 194.858 365.119 194.767 365.333C194.675 365.546 194.574 365.749 194.482 365.952L194.208 366.571C194.107 366.784 194.015 366.987 193.924 367.201C193.833 367.414 193.731 367.607 193.64 367.82C193.548 368.033 193.447 368.226 193.355 368.439L193.081 369.059C192.98 369.262 192.888 369.475 192.797 369.678C192.706 369.881 192.604 370.094 192.513 370.297L192.239 370.927C192.137 371.13 192.046 371.333 191.954 371.546C191.863 371.759 191.761 371.962 191.67 372.165L191.396 372.785C191.294 372.998 191.203 373.201 191.112 373.414C191.02 373.627 190.919 373.82 190.827 374.034L190.553 374.653C190.452 374.856 190.36 375.069 190.269 375.272C190.178 375.475 190.076 375.688 189.985 375.902C188.243 379.611 187.348 383.662 187.365 387.76C187.365 404.106 201.478 417.467 218.93 417.467C236.008 417.467 250.861 404.106 250.861 387.76C250.858 384.644 250.312 381.552 249.247 378.623C249.176 378.328 249.105 378.115 249.023 377.902Z" fill="#263238"/>
<path d="M224.87 153.026C172.512 153.026 136.865 183.84 136.865 228.776V232.837C136.874 233.509 137.057 234.166 137.395 234.746C137.733 235.325 138.215 235.808 138.794 236.147C139.013 236.358 139.251 236.548 139.505 236.716C139.725 236.93 139.966 237.12 140.226 237.284C140.446 237.498 140.687 237.689 140.946 237.853C141.164 238.069 141.406 238.26 141.667 238.422C141.884 238.635 142.122 238.826 142.378 238.99C142.598 239.207 142.839 239.401 143.099 239.569C143.321 239.78 143.563 239.97 143.82 240.137C144.04 240.351 144.282 240.541 144.54 240.706C144.757 240.919 144.996 241.11 145.251 241.274C145.49 241.504 145.752 241.709 146.033 241.884C146.24 242.072 146.461 242.245 146.693 242.401C146.916 242.612 147.157 242.803 147.414 242.97C147.633 243.181 147.871 243.371 148.124 243.539C148.347 243.749 148.588 243.94 148.845 244.107C149.066 244.32 149.307 244.511 149.566 244.676C149.783 244.889 150.021 245.079 150.277 245.244C150.497 245.457 150.739 245.648 150.998 245.813C151.215 246.026 151.453 246.216 151.708 246.381C151.931 246.592 152.172 246.783 152.429 246.95C152.646 247.163 152.884 247.354 153.14 247.518C154.313 248.551 155.844 249.083 157.404 249.001L190.056 250.219C193.416 250.219 195.244 248.696 195.244 245.336V241.985C195.244 228.553 206.229 219.101 223.672 219.101C239.541 219.101 250.222 227.639 250.222 240.767C250.222 242.263 250.079 243.755 249.795 245.224C233.408 266.707 190.756 276.18 190.756 317.878V327.909C190.756 331.97 192.98 334.214 197.071 334.214H236.383C240.444 334.214 242.698 331.99 242.698 327.909V321.218C242.698 287.429 309.169 287.054 309.169 225.416C309.169 181.982 276.111 153.026 224.87 153.026Z" fill="#263238"/>
<path d="M190.705 327.93V317.898C190.705 266.281 256.059 264.088 256.059 227.294C256.059 211.324 243.064 200.897 223.753 200.897C202.584 200.897 189.233 212.41 189.233 228.746V232.807C189.233 236.869 187 238.757 182.918 238.757L143.18 237.265C139.474 237.265 136.875 235.407 136.875 232.807V228.746C136.875 183.81 172.522 152.996 224.88 152.996C276.121 152.996 309.149 181.952 309.149 225.406C309.149 287.044 242.678 287.42 242.678 321.208V327.899C242.678 331.96 240.444 334.204 236.363 334.204H197.02C192.929 334.234 190.705 332.011 190.705 327.93ZM187.365 387.76C187.365 371.424 201.843 358.053 219.296 358.053C236.007 358.053 250.861 371.424 250.861 387.76C250.861 404.096 235.977 417.417 218.93 417.417C201.457 417.417 187.365 404.056 187.365 387.76Z" fill="#00CFC1" stroke="#00CFC1" stroke-miterlimit="10"/>
<path d="M217.306 450.708C247.927 450.708 272.751 445.158 272.751 438.311C272.751 431.465 247.927 425.915 217.306 425.915C186.685 425.915 161.861 431.465 161.861 438.311C161.861 445.158 186.685 450.708 217.306 450.708Z" fill="#263238"/>
<path d="M174.928 157.138L172.806 161.768C172.806 161.768 160.48 163.098 160.48 164.022C160.48 164.946 160.612 171.312 161.283 171.576C161.792 171.774 162.357 171.774 162.866 171.576L181.02 166.936L182.746 158.722L174.928 157.138Z" fill="white" stroke="#263238" stroke-linecap="round" stroke-linejoin="round"/>
<path d="M171.476 165.413C169.222 167.26 166.79 168.878 164.217 170.246C161.283 171.565 161.171 173.566 162.105 173.566C163.039 173.566 171.324 170.093 171.324 170.093C171.324 170.093 178.847 168.124 179.933 167.525C181.02 166.926 181.141 163.595 181.141 163.595" fill="white"/>
<path d="M171.476 165.413C169.222 167.26 166.79 168.878 164.217 170.246C161.283 171.565 161.171 173.566 162.105 173.566C163.039 173.566 171.324 170.093 171.324 170.093C171.324 170.093 178.847 168.124 179.933 167.525C181.02 166.926 181.141 163.595 181.141 163.595" stroke="#263238" stroke-linecap="round" stroke-linejoin="round"/>
<path d="M185.771 68.179L178.197 126.233L172.928 157.666L184.624 160.428L193.345 123.248L197.477 99.8457L185.771 68.179Z" fill="#7D7D7D" stroke="#263238" stroke-linecap="round" stroke-linejoin="round"/>
<path d="M246.891 26.146L242.272 25.415L232.809 21.8311L232.464 33.0703L247.135 34.4206L246.891 26.146Z" fill="white" stroke="#263238" stroke-linecap="round" stroke-linejoin="round"/>
<path d="M192.888 232.015C189.445 236.03 186.229 240.233 183.253 244.605C179.344 250.575 180.725 256.991 185.548 258.606C190.37 260.22 196.554 255.844 198.168 252.402C199.782 248.961 199.315 247.133 201.833 243.691C204.351 240.249 206.422 236.808 205.508 232.218C204.595 227.629 195.366 228.807 192.888 232.015Z" fill="#7D7D7D" stroke="#263238" stroke-linecap="round" stroke-linejoin="round"/>
<path d="M197.701 253.265C197.376 252.575 197 251.844 196.554 251.062C192.868 244.575 186.401 245.092 182.34 246.301C179.669 251.753 181.192 257.174 185.568 258.636C189.944 260.098 195.589 256.524 197.701 253.265Z" fill="white" stroke="#263238" stroke-linecap="round" stroke-linejoin="round"/>
<path d="M196.554 251.062C195.183 253.093 193.345 258.636 186.228 256.342C184.243 255.832 182.468 254.714 181.152 253.144C181.305 254.382 181.802 255.552 182.586 256.523C183.371 257.493 184.41 258.226 185.588 258.636C190.401 260.24 196.594 255.875 198.208 252.433C199.823 248.991 199.356 247.164 201.874 243.722C204.392 240.28 206.463 236.838 205.549 232.249C205.549 237.752 203.518 238.666 200.96 241.651C198.401 244.636 197.934 248.991 196.554 251.062Z" fill="white" stroke="#263238" stroke-linecap="round" stroke-linejoin="round"/>
<path d="M260.598 232.015C264.041 236.03 267.257 240.233 270.233 244.605C274.142 250.575 272.761 256.991 267.938 258.606C263.116 260.22 256.933 255.844 255.318 252.402C253.704 248.961 254.171 247.133 251.653 243.691C249.135 240.249 247.064 236.808 247.978 232.218C248.891 227.629 258.08 228.807 260.598 232.015Z" fill="#7D7D7D" stroke="#263238" stroke-linecap="round" stroke-linejoin="round"/>
<path d="M255.795 253.265C256.11 252.575 256.486 251.844 256.933 251.062C260.618 244.575 267.085 245.092 271.147 246.301C273.817 251.753 272.294 257.174 267.918 258.636C263.542 260.098 257.897 256.524 255.795 253.265Z" fill="white" stroke="#263238" stroke-linecap="round" stroke-linejoin="round"/>
<path d="M256.933 251.062C258.303 253.093 260.141 258.636 267.258 256.342C269.243 255.832 271.018 254.714 272.334 253.144C272.181 254.382 271.684 255.552 270.9 256.523C270.116 257.493 269.076 258.226 267.898 258.636C263.085 260.24 256.892 255.875 255.278 252.433C253.663 248.991 254.13 247.164 251.612 243.722C249.095 240.28 247.023 236.838 247.937 232.249C247.937 237.752 249.968 238.666 252.526 241.651C255.085 244.636 255.552 248.991 256.933 251.062Z" fill="white" stroke="#263238" stroke-linecap="round" stroke-linejoin="round"/>
<path d="M271.36 152.854C271.36 148.721 264.253 144.132 264.253 144.132C253.542 133.238 234.21 134.68 227.073 135.655C219.966 134.639 200.615 133.238 189.903 144.132C189.903 144.132 182.796 148.721 182.796 152.854C182.796 156.986 191.751 231.559 191.751 231.559C191.751 231.559 191.518 235.457 197.944 235.914C204.371 236.371 207.082 232.706 207.082 232.706L209.61 169.606C209.61 169.606 219.936 162.255 221.794 162.032C222.464 161.94 223.337 161.798 224.311 161.677V161.798C226.13 161.419 228.006 161.419 229.824 161.798V161.677C230.84 161.798 231.662 161.94 232.342 162.032C234.18 162.255 244.526 169.606 244.526 169.606L247.054 232.706C247.054 232.706 249.805 236.371 256.191 235.914C262.578 235.457 262.385 231.559 262.385 231.559C262.385 231.559 271.36 156.986 271.36 152.854Z" fill="#263238" stroke="#263238" stroke-linecap="round" stroke-linejoin="round"/>
<path d="M244.516 169.606C244.516 169.606 243.135 154.458 249.795 148.721" stroke="#707070" stroke-linecap="round" stroke-linejoin="round"/>
<path d="M209.641 169.606C209.641 169.606 210.331 156.986 208.95 152.397C207.569 147.808 205.275 145.97 205.275 145.97" stroke="#707070" stroke-linecap="round" stroke-linejoin="round"/>
<path d="M218.128 139.543C218.128 139.543 225.469 148.031 226.85 155.148" stroke="#707070" stroke-linecap="round" stroke-linejoin="round"/>
<path d="M234.19 140.031C234.19 140.031 230.058 144.62 229.601 148.062" stroke="#707070" stroke-linecap="round" stroke-linejoin="round"/>
<path d="M223.865 50.7465C223.865 50.7465 217.215 49.8226 214.92 52.1171C212.625 54.4117 204.818 62.869 204.818 62.869L208.95 135.838C208.95 135.838 218.362 139.513 226.393 139.513C234.424 139.513 243.602 136.528 245.683 134.924C247.765 133.32 245.917 55.0716 245.917 55.0716C245.917 55.0716 228.87 50.0561 223.865 50.7465Z" fill="#00CFC1" stroke="#263238" stroke-linecap="round" stroke-linejoin="round"/>
<path d="M236.028 52.3506C239.521 51.8202 243.044 51.5116 246.577 51.4267C251.166 51.4267 255.714 51.6602 255.714 51.6602L267.187 40.6444L244.099 35.3649L245.937 24.8161C245.937 24.8161 262.913 23.6688 271.4 25.273C279.888 26.8771 293.199 31.0093 293.889 31.0093C294.579 31.0093 295.493 33.5374 294.803 35.3649C294.112 37.1924 272.527 61.0719 266.08 67.2652C261.863 71.3982 257.88 75.764 254.151 80.342L251.206 131.512C251.206 131.512 258.78 135.645 260.161 137.015C261.542 138.386 263.146 143.899 263.146 143.899C263.146 143.899 249.145 138.163 245.47 137.706C241.795 137.249 239.51 137.015 238.82 135.675C238.129 134.335 232.393 73.032 232.393 73.032L232.627 53.5284C232.627 53.5284 232.586 52.3506 236.028 52.3506Z" fill="#7D7D7D" stroke="#263238" stroke-linecap="round" stroke-linejoin="round"/>
<path d="M249.795 83.7838L237.398 85.388L238.546 89.9771L244.749 91.5812L250.709 88.8298L249.795 83.7838Z" stroke="#263238" stroke-linecap="round" stroke-linejoin="round"/>
<path d="M256.902 56.2493L254.151 80.342L261.268 59.9246" stroke="#263238" stroke-linecap="round" stroke-linejoin="round"/>
<path d="M267.228 40.6444C267.228 40.6444 272.964 41.7917 281.685 38.3499" stroke="#263238" stroke-linecap="round" stroke-linejoin="round"/>
<path d="M273.197 42.2485C276.966 42.3534 280.735 42.047 284.437 41.3347" stroke="#263238" stroke-linecap="round" stroke-linejoin="round"/>
<path d="M216.067 50.5129L217.215 67.2651C218.26 68.6407 219.615 69.7515 221.168 70.508C222.722 71.2645 224.431 71.6457 226.159 71.6207C231.896 71.3974 232.586 67.2651 232.586 67.2651V53.4979L216.067 50.5129Z" fill="white" stroke="#263238" stroke-linecap="round" stroke-linejoin="round"/>
<path d="M232.809 59.2342L232.352 73.0217L237.175 65.4477C237.175 65.4477 242.455 72.0978 243.825 71.8745C245.196 71.6511 242.911 68.8895 242.455 66.3716C241.998 63.8537 238.089 54.8887 237.632 52.3708C237.175 49.8529 232.809 49.3859 232.556 50.5332C232.428 51.5241 232.428 52.5272 232.556 53.5181L232.809 59.2342Z" fill="#7D7D7D" stroke="#263238" stroke-linecap="round" stroke-linejoin="round"/>
<path d="M216.981 71.6207C216.981 71.6207 217.895 135.868 215.6 136.599C213.306 137.33 204.128 137.523 198.34 140.274C192.553 143.026 189.853 144.173 189.853 144.173C189.853 144.173 192.604 137.523 195.823 134.538C197.962 132.615 200.353 130.993 202.93 129.715L196.97 98.9725C196.97 98.9725 185.954 69.8236 185.72 68.2195C185.487 66.6153 206.605 54.6857 210.96 52.6146C215.316 50.5434 216.473 52.3912 216.473 52.3912L216.981 71.6207Z" fill="#7D7D7D" stroke="#263238" stroke-linecap="round" stroke-linejoin="round"/>
<path d="M211.245 49.3657C211.245 49.3657 205.742 66.8083 205.275 69.1028C204.808 71.3974 205.275 71.3974 206.889 69.7831C208.503 68.1688 212.625 64.2802 212.625 64.2802L216.981 71.6207L216.748 58.087V50.2794C216.748 50.2794 216.524 47.0711 211.245 49.3657Z" fill="#7D7D7D" stroke="#263238" stroke-linecap="round" stroke-linejoin="round"/>
<path d="M200.462 87.0023H213.996L213.773 92.5052L207.803 94.5662L200.229 92.5052L200.462 87.0023Z" stroke="#263238" stroke-linecap="round" stroke-linejoin="round"/>
<path d="M237.632 26.6537C237.632 26.6537 240.84 40.6444 241.531 42.8983C242.221 45.1522 237.865 54.1477 236.454 56.2087C235.917 57.1026 235.178 57.8583 234.297 58.4154C233.415 58.9725 232.416 59.3155 231.378 59.417C229.774 59.417 221.052 56.4422 218.981 55.0614C216.91 53.6806 214.859 52.0765 214.859 52.0765C213.883 52.5215 212.798 52.6721 211.738 52.5098C210.678 52.3475 209.688 51.8793 208.889 51.1627C206.138 48.6347 202.462 45.6497 203.376 43.5887C203.821 42.5773 204.567 41.7272 205.511 41.1533C206.455 40.5795 207.553 40.3097 208.656 40.3804C211.184 40.3804 210.27 40.1469 210.27 40.1469C210.27 40.1469 205.681 33.4968 205.681 28.2173C205.681 22.9378 215.539 19.0797 221.276 19.0797C225.242 19.245 229.139 20.1795 232.748 21.8311L237.632 26.6537Z" fill="white" stroke="#263238" stroke-linecap="round" stroke-linejoin="round"/>
<path d="M229.601 31.9231L233.733 39.7306L229.601 42.4821L227.763 40.1875" stroke="#263238" stroke-linecap="round" stroke-linejoin="round"/>
<path d="M237.175 39.0402C237.175 39.0402 237.398 40.8778 234.647 43.8628" stroke="#263238" stroke-linecap="round" stroke-linejoin="round"/>
<path d="M225.245 34.7963C225.245 35.8725 224.778 36.7456 224.23 36.7456C223.682 36.7456 223.215 35.8725 223.215 34.7963C223.215 33.7201 223.682 32.8469 224.23 32.8469C224.778 32.8469 225.245 33.7201 225.245 34.7963Z" fill="#263238"/>
<path d="M232.464 33.0703C233.036 33.0703 233.5 32.1976 233.5 31.121C233.5 30.0444 233.036 29.1716 232.464 29.1716C231.892 29.1716 231.429 30.0444 231.429 31.121C231.429 32.1976 231.892 33.0703 232.464 33.0703Z" fill="#263238"/>
<path d="M212.849 14.714C212.849 14.714 198.412 19.9934 197.934 26.6537C197.457 33.314 210.788 42.482 211.478 43.6293C212.169 44.7766 214.23 42.2485 214.23 42.2485C213.771 41.632 213.451 40.9236 213.291 40.1718C213.132 39.42 213.137 38.6426 213.306 37.8929C213.996 35.5984 216.981 32.8165 216.981 31.6997C216.981 30.5829 213.539 32.6134 213.539 29.1716C213.539 25.7298 222.027 23.6688 227.073 23.8921C232.119 24.1155 236.485 32.6134 240.16 28.4812C243.835 24.349 238.546 23.2119 238.546 23.2119C238.546 23.2119 245.653 22.288 245.653 18.6228C245.653 14.9576 241.977 12.4194 240.373 12.4194C238.769 12.4194 234.414 15.181 234.414 12.196C234.414 9.21111 238.769 7.83032 234.637 3.05848C230.505 -1.71336 225.235 3.05848 225.235 4.89615C225.235 6.73382 223.855 10.1655 222.941 10.1655C222.027 10.1655 219.265 6.04342 216.057 8.33797C215.093 9.10496 214.306 10.0724 213.752 11.1733C213.198 12.2741 212.89 13.4822 212.849 14.714Z" fill="#263238" stroke="#263238" stroke-linecap="round" stroke-linejoin="round"/>
<path d="M218.819 32.3901L226.159 29.6285" stroke="#263238" stroke-linecap="round" stroke-linejoin="round"/>
<path d="M227.307 26.4201C227.166 25.6998 227.281 24.9531 227.631 24.3083" stroke="#263238" stroke-linecap="round" stroke-linejoin="round"/>
<path d="M227.631 24.2881C228.149 23.2729 229.317 21.9631 231.896 20.8971" stroke="white" stroke-linecap="round" stroke-linejoin="round"/>
</svg>
