<svg width="541" height="454" viewBox="0 0 541 454" fill="none" xmlns="http://www.w3.org/2000/svg">
<path d="M419.422 119.231H133.457C133.371 119.233 133.286 119.217 133.206 119.185C133.127 119.154 133.055 119.106 132.994 119.046C132.932 118.986 132.884 118.915 132.851 118.836C132.818 118.757 132.801 118.672 132.801 118.586C132.801 118.412 132.87 118.245 132.993 118.122C133.116 117.999 133.283 117.93 133.457 117.93H419.422C419.507 117.93 419.592 117.947 419.671 117.98C419.75 118.013 419.822 118.062 419.882 118.123C419.942 118.184 419.989 118.256 420.021 118.336C420.053 118.415 420.068 118.5 420.067 118.586C420.067 118.757 419.999 118.921 419.878 119.042C419.757 119.163 419.593 119.231 419.422 119.231Z" fill="#92E3A9"/>
<g opacity="0.3">
<path opacity="0.3" d="M419.422 119.231H133.457C133.371 119.233 133.286 119.217 133.206 119.185C133.127 119.154 133.055 119.106 132.994 119.046C132.932 118.986 132.884 118.915 132.851 118.836C132.818 118.757 132.801 118.672 132.801 118.586C132.801 118.412 132.87 118.245 132.993 118.122C133.116 117.999 133.283 117.93 133.457 117.93H419.422C419.507 117.93 419.592 117.947 419.671 117.98C419.75 118.013 419.822 118.062 419.882 118.123C419.942 118.184 419.989 118.256 420.021 118.336C420.053 118.415 420.068 118.5 420.067 118.586C420.067 118.757 419.999 118.921 419.878 119.042C419.757 119.163 419.593 119.231 419.422 119.231Z" fill="white"/>
</g>
<path d="M418.85 232.653H132.885C132.8 232.654 132.715 232.638 132.635 232.607C132.556 232.575 132.483 232.527 132.422 232.467C132.361 232.407 132.313 232.336 132.28 232.257C132.247 232.178 132.23 232.093 132.23 232.007C132.23 231.833 132.299 231.667 132.422 231.544C132.545 231.421 132.711 231.351 132.885 231.351H418.85C418.936 231.351 419.021 231.369 419.1 231.402C419.179 231.435 419.25 231.483 419.31 231.544C419.371 231.605 419.418 231.678 419.45 231.757C419.481 231.837 419.497 231.922 419.496 232.007C419.496 232.092 419.479 232.176 419.447 232.254C419.414 232.333 419.367 232.404 419.307 232.464C419.247 232.524 419.176 232.571 419.097 232.604C419.019 232.636 418.935 232.653 418.85 232.653V232.653Z" fill="#92E3A9"/>
<g opacity="0.3">
<path opacity="0.3" d="M418.85 232.653H132.885C132.8 232.654 132.715 232.638 132.635 232.607C132.556 232.575 132.483 232.527 132.422 232.467C132.361 232.407 132.313 232.336 132.28 232.257C132.247 232.178 132.23 232.093 132.23 232.007C132.23 231.833 132.299 231.667 132.422 231.544C132.545 231.421 132.711 231.351 132.885 231.351H418.85C418.936 231.351 419.021 231.369 419.1 231.402C419.179 231.435 419.25 231.483 419.31 231.544C419.371 231.605 419.418 231.678 419.45 231.757C419.481 231.837 419.497 231.922 419.496 232.007C419.496 232.092 419.479 232.176 419.447 232.254C419.414 232.333 419.367 232.404 419.307 232.464C419.247 232.524 419.176 232.571 419.097 232.604C419.019 232.636 418.935 232.653 418.85 232.653V232.653Z" fill="#00CFC1"/>
</g>
<path d="M418.85 325.372H132.885C132.711 325.372 132.545 325.303 132.422 325.18C132.299 325.057 132.23 324.89 132.23 324.716C132.23 324.631 132.247 324.546 132.28 324.467C132.313 324.388 132.361 324.316 132.422 324.256C132.483 324.196 132.556 324.149 132.635 324.117C132.715 324.085 132.8 324.069 132.885 324.071H418.85C418.935 324.071 419.019 324.088 419.097 324.12C419.176 324.152 419.247 324.2 419.307 324.26C419.367 324.32 419.414 324.391 419.447 324.469C419.479 324.547 419.496 324.631 419.496 324.716C419.497 324.802 419.481 324.887 419.45 324.966C419.418 325.046 419.371 325.118 419.31 325.179C419.25 325.24 419.179 325.289 419.1 325.322C419.021 325.355 418.936 325.372 418.85 325.372Z" fill="#92E3A9"/>
<g opacity="0.3">
<path opacity="0.3" d="M418.85 325.372H132.885C132.711 325.372 132.545 325.303 132.422 325.18C132.299 325.057 132.23 324.89 132.23 324.716C132.23 324.631 132.247 324.546 132.28 324.467C132.313 324.388 132.361 324.316 132.422 324.256C132.483 324.196 132.556 324.149 132.635 324.117C132.715 324.085 132.8 324.069 132.885 324.071H418.85C418.935 324.071 419.019 324.088 419.097 324.12C419.176 324.152 419.247 324.2 419.307 324.26C419.367 324.32 419.414 324.391 419.447 324.469C419.479 324.547 419.496 324.631 419.496 324.716C419.497 324.802 419.481 324.887 419.45 324.966C419.418 325.046 419.371 325.118 419.31 325.179C419.25 325.24 419.179 325.289 419.1 325.322C419.021 325.355 418.936 325.372 418.85 325.372Z" fill="#00CFC1"/>
</g>
<path d="M193.679 341.06V437.556" stroke="#263238" stroke-width="0.265171" stroke-miterlimit="10"/>
<path d="M207.463 341.06V437.556" stroke="#263238" stroke-width="0.265171" stroke-miterlimit="10"/>
<path d="M221.247 341.06V437.556" stroke="#263238" stroke-width="0.265171" stroke-miterlimit="10"/>
<path d="M235.03 341.06V437.556" stroke="#263238" stroke-width="0.265171" stroke-miterlimit="10"/>
<path d="M248.814 341.06V437.556" stroke="#263238" stroke-width="0.265171" stroke-miterlimit="10"/>
<path d="M262.597 341.06V437.556" stroke="#263238" stroke-width="0.265171" stroke-miterlimit="10"/>
<path d="M276.381 341.06V437.556" stroke="#263238" stroke-width="0.265171" stroke-miterlimit="10"/>
<path d="M290.165 341.06V437.556" stroke="#263238" stroke-width="0.265171" stroke-miterlimit="10"/>
<path d="M303.948 341.06V437.556" stroke="#263238" stroke-width="0.265171" stroke-miterlimit="10"/>
<path d="M317.732 341.06V437.556" stroke="#263238" stroke-width="0.265171" stroke-miterlimit="10"/>
<path d="M331.515 341.06V437.556" stroke="#263238" stroke-width="0.265171" stroke-miterlimit="10"/>
<path d="M345.299 341.06V437.556" stroke="#263238" stroke-width="0.265171" stroke-miterlimit="10"/>
<path d="M194.367 350.02H344.611" stroke="#263238" stroke-width="0.265171" stroke-miterlimit="10"/>
<path d="M194.367 363.116H344.611" stroke="#263238" stroke-width="0.265171" stroke-miterlimit="10"/>
<path d="M194.367 376.212H344.611" stroke="#263238" stroke-width="0.265171" stroke-miterlimit="10"/>
<path d="M194.367 389.308H344.611" stroke="#263238" stroke-width="0.265171" stroke-miterlimit="10"/>
<path d="M194.367 402.404H344.611" stroke="#263238" stroke-width="0.265171" stroke-miterlimit="10"/>
<path d="M194.367 415.5H344.611" stroke="#263238" stroke-width="0.265171" stroke-miterlimit="10"/>
<path d="M194.367 428.596H344.611" stroke="#263238" stroke-width="0.265171" stroke-miterlimit="10"/>
<path d="M225.933 374.911L205.77 437.069H247.999L227.826 374.911C227.762 374.71 227.636 374.535 227.465 374.411C227.295 374.287 227.09 374.22 226.879 374.22C226.669 374.22 226.464 374.287 226.294 374.411C226.123 374.535 225.997 374.71 225.933 374.911Z" fill="#00CFC1" stroke="#263238" stroke-width="1.06068" stroke-miterlimit="10"/>
<path d="M264.375 354.325L237.537 437.069H293.137L266.268 354.325C266.204 354.124 266.077 353.95 265.907 353.826C265.737 353.701 265.532 353.635 265.321 353.635C265.111 353.635 264.906 353.701 264.735 353.826C264.565 353.95 264.439 354.124 264.375 354.325V354.325Z" fill="#263238" stroke="#263238" stroke-width="1.06068" stroke-miterlimit="10"/>
<path d="M299.749 389.128L284.188 437.069H317.192L301.6 389.128C301.527 388.942 301.399 388.782 301.234 388.67C301.069 388.557 300.874 388.497 300.674 388.497C300.474 388.497 300.279 388.557 300.114 388.67C299.949 388.782 299.822 388.942 299.749 389.128V389.128Z" fill="#00CFC1" stroke="#263238" stroke-width="1.06068" stroke-miterlimit="10"/>
<path d="M321.064 405.588L310.856 437.069H333.166L322.957 405.588C322.893 405.387 322.767 405.212 322.597 405.088C322.426 404.964 322.221 404.897 322.011 404.897C321.8 404.897 321.595 404.964 321.425 405.088C321.255 405.212 321.128 405.387 321.064 405.588V405.588Z" fill="#263238" stroke="#263238" stroke-width="1.06068" stroke-miterlimit="10"/>
<path d="M191.86 310.562C185.811 310.562 179.899 308.769 174.869 305.408C169.84 302.048 165.92 297.272 163.606 291.683C161.291 286.095 160.685 279.946 161.865 274.014C163.045 268.082 165.958 262.632 170.235 258.355C174.512 254.078 179.961 251.166 185.894 249.986C191.826 248.806 197.975 249.411 203.563 251.726C209.151 254.041 213.927 257.961 217.288 262.99C220.648 268.019 222.442 273.932 222.442 279.98C222.434 288.089 219.209 295.862 213.475 301.596C207.742 307.329 199.968 310.554 191.86 310.562V310.562ZM191.86 258.379C187.588 258.381 183.413 259.65 179.862 262.025C176.311 264.4 173.544 267.774 171.911 271.721C170.277 275.668 169.851 280.011 170.686 284.201C171.52 288.39 173.579 292.238 176.6 295.258C179.621 298.278 183.47 300.334 187.66 301.167C191.85 302 196.193 301.571 200.139 299.936C204.086 298.301 207.459 295.532 209.832 291.98C212.205 288.428 213.471 284.252 213.471 279.98C213.466 274.251 211.187 268.759 207.135 264.708C203.083 260.658 197.589 258.382 191.86 258.379Z" fill="#263238" stroke="#263238" stroke-width="1.06068" stroke-miterlimit="10"/>
<path d="M191.86 310.562C187.732 310.575 183.646 309.746 179.85 308.125C176.054 306.505 172.628 304.127 169.783 301.137L176.267 294.927C178.276 297.04 180.696 298.719 183.377 299.863C186.058 301.008 188.945 301.592 191.86 301.581C194.697 301.581 197.505 301.023 200.126 299.937C202.747 298.851 205.128 297.26 207.134 295.254C209.14 293.249 210.731 290.867 211.817 288.247C212.902 285.626 213.461 282.817 213.461 279.98C213.461 277.144 212.902 274.335 211.817 271.714C210.731 269.093 209.14 266.712 207.134 264.706C205.128 262.7 202.747 261.109 200.126 260.023C197.505 258.938 194.697 258.379 191.86 258.379V249.398C195.876 249.398 199.853 250.189 203.563 251.726C207.273 253.263 210.645 255.516 213.485 258.355C216.324 261.195 218.577 264.567 220.114 268.277C221.651 271.987 222.442 275.964 222.442 279.98C222.442 283.996 221.651 287.973 220.114 291.683C218.577 295.394 216.324 298.765 213.485 301.605C210.645 304.445 207.273 306.697 203.563 308.234C199.853 309.771 195.876 310.562 191.86 310.562V310.562Z" fill="#00CFC1" stroke="#263238" stroke-width="1.06068" stroke-miterlimit="10"/>
<path d="M267.284 310.562C261.235 310.564 255.321 308.773 250.29 305.413C245.26 302.054 241.338 297.279 239.022 291.691C236.706 286.103 236.098 279.953 237.277 274.02C238.456 268.087 241.368 262.637 245.644 258.359C249.921 254.081 255.37 251.167 261.303 249.987C267.235 248.806 273.385 249.411 278.974 251.725C284.563 254.039 289.339 257.959 292.7 262.989C296.061 268.018 297.855 273.931 297.855 279.98C297.847 288.087 294.623 295.859 288.892 301.592C283.161 307.325 275.39 310.551 267.284 310.562V310.562ZM267.284 258.379C263.012 258.383 258.838 259.654 255.288 262.03C251.739 264.406 248.974 267.781 247.342 271.729C245.71 275.676 245.286 280.019 246.121 284.207C246.957 288.396 249.016 292.243 252.038 295.262C255.06 298.281 258.909 300.336 263.098 301.168C267.288 302 271.63 301.57 275.576 299.935C279.522 298.299 282.894 295.531 285.267 291.979C287.639 288.427 288.906 284.252 288.906 279.98C288.897 274.25 286.616 268.758 282.562 264.708C278.508 260.658 273.014 258.382 267.284 258.379V258.379Z" fill="#263238" stroke="#263238" stroke-width="1.06068" stroke-miterlimit="10"/>
<path d="M279.184 308.15L275.693 299.889C280.281 297.944 284.056 294.474 286.379 290.066C288.701 285.658 289.43 280.583 288.441 275.699C287.451 270.816 284.805 266.425 280.949 263.268C277.094 260.112 272.266 258.385 267.284 258.379V249.398C274.34 249.399 281.179 251.84 286.641 256.307C292.103 260.774 295.853 266.993 297.254 273.909C298.655 280.825 297.621 288.012 294.327 294.253C291.034 300.494 285.684 305.404 279.184 308.15V308.15Z" fill="#00CFC1" stroke="#263238" stroke-width="1.06068" stroke-miterlimit="10"/>
<path d="M342.697 310.562C336.648 310.562 330.735 308.769 325.706 305.408C320.677 302.048 316.757 297.272 314.443 291.683C312.128 286.095 311.522 279.946 312.702 274.014C313.882 268.082 316.795 262.632 321.072 258.355C325.349 254.078 330.798 251.166 336.73 249.986C342.663 248.806 348.812 249.411 354.4 251.726C359.988 254.041 364.764 257.961 368.125 262.99C371.485 268.019 373.279 273.932 373.279 279.98C373.27 288.089 370.046 295.862 364.312 301.596C358.579 307.329 350.805 310.554 342.697 310.562V310.562ZM342.697 258.379C338.424 258.379 334.248 259.646 330.696 262.02C327.144 264.393 324.375 267.767 322.74 271.714C321.105 275.661 320.677 280.004 321.511 284.194C322.344 288.385 324.402 292.234 327.423 295.254C330.443 298.275 334.292 300.333 338.483 301.166C342.673 302 347.016 301.572 350.963 299.937C354.91 298.302 358.284 295.533 360.657 291.981C363.031 288.429 364.298 284.252 364.298 279.98C364.292 274.253 362.015 268.762 357.965 264.712C353.915 260.662 348.424 258.385 342.697 258.379V258.379Z" fill="#263238" stroke="#263238" stroke-width="1.06068" stroke-miterlimit="10"/>
<path d="M363.875 275.675C362.871 270.801 360.22 266.42 356.367 263.271C352.514 260.121 347.694 258.394 342.718 258.379V249.398C349.766 249.416 356.593 251.861 362.051 256.32C367.509 260.78 371.265 266.984 372.686 273.887L363.875 275.675Z" fill="#00CFC1" stroke="#263238" stroke-width="1.06068" stroke-miterlimit="10"/>
<path d="M204.057 215.537H347.679" stroke="#263238" stroke-width="1.06068" stroke-miterlimit="10"/>
<path d="M204.057 215.537V212.48" stroke="#263238" stroke-width="1.06068" stroke-miterlimit="10"/>
<path d="M232.777 215.537V212.48" stroke="#263238" stroke-width="1.06068" stroke-miterlimit="10"/>
<path d="M261.508 215.537V212.48" stroke="#263238" stroke-width="1.06068" stroke-miterlimit="10"/>
<path d="M290.228 215.537V212.48" stroke="#263238" stroke-width="1.06068" stroke-miterlimit="10"/>
<path d="M318.948 215.537V212.48" stroke="#263238" stroke-width="1.06068" stroke-miterlimit="10"/>
<path d="M347.679 215.537V212.48" stroke="#263238" stroke-width="1.06068" stroke-miterlimit="10"/>
<path d="M228.757 174.715H208.076V199.204H228.757V174.715Z" fill="#00CFC1" stroke="#263238" stroke-width="1.06068" stroke-miterlimit="10"/>
<path d="M257.477 146.143H236.797V203.287H257.477V146.143Z" fill="#00CFC1" stroke="#263238" stroke-width="1.06068" stroke-miterlimit="10"/>
<path d="M286.208 106.146H265.528V169.828H286.208V106.146Z" fill="#00CFC1" stroke="#263238" stroke-width="1.06068" stroke-miterlimit="10"/>
<path d="M314.929 165.744H294.248V177.994H314.929V165.744Z" fill="#00CFC1" stroke="#263238" stroke-width="1.06068" stroke-miterlimit="10"/>
<path d="M343.649 158.392H322.968V190.233H343.649V158.392Z" fill="#00CFC1" stroke="#263238" stroke-width="1.06068" stroke-miterlimit="10"/>
<path d="M228.757 199.214H208.076V215.547H228.757V199.214Z" fill="#263238" stroke="#263238" stroke-width="1.06068" stroke-miterlimit="10"/>
<path d="M257.477 203.298H236.797V215.547H257.477V203.298Z" fill="#263238" stroke="#263238" stroke-width="1.06068" stroke-miterlimit="10"/>
<path d="M286.208 169.817H265.528V215.537H286.208V169.817Z" fill="#263238" stroke="#263238" stroke-width="1.06068" stroke-miterlimit="10"/>
<path d="M314.929 177.984H294.248V215.537H314.929V177.984Z" fill="#263238" stroke="#263238" stroke-width="1.06068" stroke-miterlimit="10"/>
<path d="M343.649 190.233H322.968V215.537H343.649V190.233Z" fill="#263238" stroke="#263238" stroke-width="1.06068" stroke-miterlimit="10"/>
<path d="M385.952 94.5838C385.703 94.5856 385.458 94.5256 385.238 94.4093C385.019 94.293 384.831 94.1239 384.693 93.9174L340.2 29.0297L295.062 77.1612L248.972 47.1187L204.385 57.4643L159.099 94.2453C158.784 94.5006 158.382 94.6206 157.979 94.579C157.576 94.5373 157.207 94.3374 156.951 94.0231C156.696 93.7089 156.576 93.3062 156.618 92.9034C156.659 92.5007 156.859 92.131 157.173 91.8757L203.009 54.6505L249.554 43.85L294.597 73.2155L340.581 24.1742L387.211 92.1931C387.369 92.4214 387.461 92.6885 387.479 92.9656C387.496 93.2428 387.437 93.5194 387.309 93.7655C387.18 94.0117 386.987 94.218 386.749 94.3623C386.512 94.5065 386.24 94.5831 385.962 94.5838H385.952Z" fill="#263238"/>
<path d="M161.965 93.0605C161.965 93.8074 161.744 94.5376 161.329 95.1586C160.914 95.7796 160.324 96.2637 159.634 96.5495C158.944 96.8354 158.185 96.9101 157.452 96.7644C156.72 96.6187 156.047 96.259 155.519 95.7309C154.99 95.2027 154.631 94.5298 154.485 93.7973C154.339 93.0647 154.414 92.3054 154.7 91.6153C154.986 90.9253 155.47 90.3354 156.091 89.9205C156.712 89.5055 157.442 89.284 158.189 89.284C159.19 89.284 160.151 89.6819 160.859 90.3901C161.567 91.0984 161.965 92.0589 161.965 93.0605Z" fill="#00CFC1"/>
<path d="M203.697 59.8339C205.783 59.8339 207.473 58.1431 207.473 56.0574C207.473 53.9717 205.783 52.2809 203.697 52.2809C201.611 52.2809 199.921 53.9717 199.921 56.0574C199.921 58.1431 201.611 59.8339 203.697 59.8339Z" fill="#00CFC1"/>
<path d="M249.258 49.2555C251.344 49.2555 253.035 47.5647 253.035 45.479C253.035 43.3933 251.344 41.7025 249.258 41.7025C247.172 41.7025 245.482 43.3933 245.482 45.479C245.482 47.5647 247.172 49.2555 249.258 49.2555Z" fill="#00CFC1"/>
<path d="M294.819 78.9596C296.905 78.9596 298.596 77.2688 298.596 75.1831C298.596 73.0974 296.905 71.4066 294.819 71.4066C292.733 71.4066 291.043 73.0974 291.043 75.1831C291.043 77.2688 292.733 78.9596 294.819 78.9596Z" fill="#00CFC1"/>
<path d="M344.157 26.6072C344.157 27.3541 343.935 28.0843 343.52 28.7053C343.105 29.3264 342.515 29.8104 341.825 30.0962C341.135 30.3821 340.376 30.4569 339.643 30.3111C338.911 30.1654 338.238 29.8058 337.71 29.2776C337.182 28.7495 336.822 28.0765 336.676 27.344C336.53 26.6114 336.605 25.8521 336.891 25.162C337.177 24.472 337.661 23.8822 338.282 23.4672C338.903 23.0522 339.633 22.8307 340.38 22.8307C341.382 22.8307 342.342 23.2286 343.05 23.9369C343.759 24.6451 344.157 25.6056 344.157 26.6072V26.6072Z" fill="#00CFC1"/>
<path d="M389.718 93.0605C389.718 93.8074 389.496 94.5376 389.081 95.1586C388.666 95.7796 388.076 96.2637 387.386 96.5495C386.696 96.8354 385.937 96.9101 385.204 96.7644C384.472 96.6187 383.799 96.259 383.271 95.7309C382.743 95.2027 382.383 94.5298 382.237 93.7973C382.092 93.0647 382.166 92.3054 382.452 91.6153C382.738 90.9253 383.222 90.3354 383.843 89.9205C384.464 89.5055 385.194 89.284 385.941 89.284C386.943 89.284 387.903 89.6819 388.612 90.3901C389.32 91.0984 389.718 92.0589 389.718 93.0605Z" fill="#00CFC1"/>
<path d="M467.384 453C507.707 453 540.396 448.61 540.396 443.194C540.396 437.778 507.707 433.388 467.384 433.388C427.061 433.388 394.372 437.778 394.372 443.194C394.372 448.61 427.061 453 467.384 453Z" fill="#1663A0"/>
<path opacity="0.7" d="M467.384 453C507.707 453 540.396 448.61 540.396 443.194C540.396 437.778 507.707 433.388 467.384 433.388C427.061 433.388 394.372 437.778 394.372 443.194C394.372 448.61 427.061 453 467.384 453Z" fill="white"/>
<path d="M67.3736 453C104.583 453 134.747 448.61 134.747 443.194C134.747 437.778 104.583 433.388 67.3736 433.388C30.1642 433.388 0 437.778 0 443.194C0 448.61 30.1642 453 67.3736 453Z" fill="#1663A0"/>
<path opacity="0.7" d="M67.3736 453C104.583 453 134.747 448.61 134.747 443.194C134.747 437.778 104.583 433.388 67.3736 433.388C30.1642 433.388 0 437.778 0 443.194C0 448.61 30.1642 453 67.3736 453Z" fill="white"/>
<path d="M446.777 97.7362C446.777 97.7362 474.514 95.0493 476.1 99.672C477.687 104.295 477.158 114.852 477.158 114.852C478.556 115.215 479.918 115.7 481.231 116.301C481.601 116.661 485.706 119.348 481.876 123.759C480.876 124.877 479.665 125.787 478.311 126.435C476.623 127.183 475.017 128.105 473.519 129.186L467.955 135.501L469.013 143.636C469.013 143.636 471.499 145.434 474.535 151.707C474.535 151.707 481.707 155.938 485.917 158.34C489.379 160.159 492.98 161.701 496.686 162.952C496.686 162.952 498.611 163.576 498.474 164.962C498.336 166.347 488.89 197.755 488.89 197.755L483.918 213.622C483.823 215.572 483.569 217.511 483.156 219.419C482.447 222.836 479.782 225.079 477.021 224.38L477.296 236.017C477.296 236.017 464.327 242.501 442.937 241.401C442.937 241.401 432.867 240.428 425.419 234.916L425.282 207.73L390.966 201.087C390.966 201.087 386.618 200.166 388.85 196.252C391.082 192.338 398.582 182.628 398.582 182.628L422.69 153.135C422.69 153.135 424.351 151.178 424.965 150.554C425.578 149.93 427.08 149.496 433.036 148.999C438.992 148.502 445.666 147.349 445.666 147.349C445.666 147.349 449.284 144.239 449.803 144.239C450.321 144.239 450.427 139.584 450.427 139.584C448.597 138.264 447.076 136.563 445.967 134.598C444.859 132.633 444.189 130.451 444.006 128.202C443.487 120.649 446.798 102.951 446.798 102.951L446.777 97.7362Z" fill="white"/>
<path d="M425.843 234.811C425.843 234.811 422.923 278.182 422.923 298.937C422.923 319.691 424.224 336.5 424.869 351.077C425.515 365.654 422.923 375.693 425.187 386.377C427.451 397.062 432.645 428.162 432.645 428.162L438.748 431.843C438.748 431.843 439.806 407.1 442.028 398.363C444.249 389.625 444.947 352.696 446.259 341.356C447.571 330.016 451.77 289.86 451.77 289.86C451.77 289.86 467.966 331.962 471.869 348.486C475.773 365.009 489.038 402.245 491.968 411.311C494.898 420.376 499.415 433.811 499.415 433.811C500.788 434.212 502.229 434.32 503.647 434.128C504.259 434.079 504.848 433.875 505.359 433.534C505.87 433.193 506.285 432.728 506.566 432.182C506.566 432.182 502.261 405.059 500.367 391.878C498.029 375.577 494.221 351.077 491.905 342.012C489.588 332.946 486.076 318.686 486.076 311.885C486.076 305.083 477.338 236.778 477.338 236.778C477.338 236.778 446.894 250.033 425.843 234.811Z" fill="#263238"/>
<path d="M451.749 289.86L438.759 274.712" stroke="white" stroke-width="0.530341" stroke-miterlimit="10" stroke-linecap="round"/>
<path d="M435.437 275.823L446.132 285.777" stroke="white" stroke-width="0.530341" stroke-miterlimit="10" stroke-linecap="round"/>
<path d="M458.297 276.934C461.036 270.005 466.125 264.26 472.673 260.706" stroke="white" stroke-width="0.530341" stroke-miterlimit="10" stroke-linecap="round"/>
<path d="M473.403 240.438C473.403 240.438 471.933 245.96 473.773 249.282C475.614 252.603 477.465 252.603 477.465 252.603C477.465 252.603 480.776 270.661 480.776 280.985C480.776 291.31 478.565 292.41 480.776 303.834C482.987 315.259 484.468 318.951 484.468 325.584C484.468 332.216 487.409 336.649 489.99 340.7C492.571 344.752 493.312 356.568 493.312 361.338C493.312 366.109 494.782 371.293 496.263 376.085C496.263 376.085 496.612 386.832 498.474 389.35C500.336 391.868 500.685 400.415 500.685 400.415" stroke="white" stroke-width="0.530341" stroke-miterlimit="10" stroke-linecap="round"/>
<path d="M449.083 288.358C449.083 288.358 449.813 296.821 447.232 311.578C444.651 326.335 442.81 330.376 442.44 347.333C442.07 364.29 443.551 367.241 442.81 376.085C442.07 384.928 437.648 398.902 437.648 405.249C437.648 411.596 438.325 431.886 438.325 431.886" stroke="white" stroke-width="0.530341" stroke-miterlimit="10" stroke-linecap="round"/>
<path d="M440.97 242.649L441.71 245.601L446.502 246.701L445.762 243.019" stroke="white" stroke-width="0.530341" stroke-miterlimit="10" stroke-linecap="round"/>
<path d="M446.523 246.701C446.523 246.701 455.367 246.33 459.789 244.86L458.731 241.909" stroke="white" stroke-width="0.530341" stroke-miterlimit="10" stroke-linecap="round"/>
<path d="M462.719 241.168L463.777 244.86C463.777 244.86 470.854 244.458 471.911 243.4" stroke="white" stroke-width="0.530341" stroke-miterlimit="10" stroke-linecap="round"/>
<path d="M441.71 245.601C439.266 245.524 436.871 244.891 434.707 243.749L431.386 241.909L432.444 239.328" stroke="white" stroke-width="0.530341" stroke-miterlimit="10" stroke-linecap="round"/>
<path d="M432.645 428.162C432.645 428.162 416.777 438.518 414.503 443.374C412.228 448.229 421.305 446.293 427.779 443.702C434.252 441.11 438.357 431.843 438.357 431.843L432.645 428.162Z" fill="white" stroke="#263238" stroke-width="1.06068" stroke-miterlimit="10" stroke-linecap="round"/>
<path d="M499.923 433.948C500.723 438.385 502.299 442.646 504.577 446.537C508.068 451.963 514.659 456.618 514.659 448.081C514.659 439.544 506.524 432.214 506.524 432.214C506.524 432.214 502.483 434.403 499.923 433.948Z" fill="white" stroke="#263238" stroke-width="1.06068" stroke-miterlimit="10" stroke-linecap="round"/>
<path d="M446.682 103.597C446.682 103.597 443.244 124.923 444.408 130.212C447.063 142.049 456.382 141.541 462.211 139.277C467.659 137.162 473.096 129.683 473.794 128.699C473.844 128.63 473.914 128.578 473.995 128.551C474.863 128.308 480.247 126.594 482.617 122.437C485.208 117.899 480.353 115.963 480.353 115.963" fill="white"/>
<g style="mix-blend-mode:multiply" opacity="0.5">
<path d="M468.738 134.189L473.879 128.54C473.879 128.54 479.962 126.668 482.617 122.384C484.172 119.877 483.315 117.687 482.373 117.095C481.083 116.396 479.752 115.778 478.385 115.243L476.661 119.041L475.191 119.295C475.191 119.295 475.804 115.381 474.027 113.064C472.25 110.748 471.848 104.041 471.848 104.041C471.848 104.041 469.362 117.412 469.055 123.008C468.976 126.122 468.003 129.148 466.252 131.724C466.252 131.724 466.569 135.141 467.183 138.558C467.257 138.96 467.331 139.563 467.405 140.314L468.251 138.96L468.717 140.251C468.188 138.029 467.945 135.67 468.738 134.189Z" fill="#92E3A9"/>
</g>
<path d="M446.682 103.597C446.682 103.597 443.244 124.923 444.408 130.212C447.063 142.049 456.382 141.541 462.211 139.277C467.659 137.162 473.096 129.683 473.794 128.699C473.844 128.63 473.914 128.578 473.995 128.551C474.863 128.308 480.247 126.594 482.617 122.437C485.208 117.899 480.353 115.963 480.353 115.963" stroke="#263238" stroke-width="1.06068" stroke-miterlimit="10" stroke-linecap="round"/>
<path d="M459.842 114.439C459.641 115.286 459.842 116.047 460.233 116.143C460.624 116.238 461.153 115.645 461.354 114.81C461.555 113.974 461.354 113.212 460.963 113.107C460.572 113.001 460.043 113.604 459.842 114.439Z" fill="#263238"/>
<path d="M450.755 112.229C450.554 113.075 450.755 113.836 451.146 113.932C451.538 114.027 452.066 113.434 452.267 112.599C452.468 111.763 452.267 110.991 451.876 110.896C451.485 110.8 450.945 111.382 450.755 112.229Z" fill="#263238"/>
<path d="M465.48 110.737C464.98 109.857 464.268 109.117 463.409 108.583C462.55 108.049 461.571 107.738 460.561 107.68" stroke="#263238" stroke-width="1.06068" stroke-miterlimit="10" stroke-linecap="round"/>
<path d="M453.6 107.838C452.768 107.475 451.844 107.373 450.952 107.547C450.06 107.72 449.242 108.162 448.607 108.812" stroke="#263238" stroke-width="1.06068" stroke-miterlimit="10" stroke-linecap="round"/>
<path d="M454.214 111.689C454.234 113.106 454.128 114.522 453.896 115.92C453.547 117.687 452.172 118.036 452.521 119.401C452.87 120.765 454.637 120.903 454.637 120.903" stroke="#263238" stroke-width="1.06068" stroke-miterlimit="10" stroke-linecap="round"/>
<path d="M456.478 126.414C457.226 126.653 458.018 126.726 458.798 126.629C459.577 126.532 460.327 126.268 460.995 125.853" stroke="#263238" stroke-width="1.06068" stroke-miterlimit="10" stroke-linecap="round"/>
<path d="M473.234 88.7022C473.234 88.7022 466.115 82.5456 459.313 82.5456C452.511 82.5456 446.999 86.4385 442.789 86.777C438.579 87.1155 435.67 83.2121 433.078 88.3955C430.487 93.5789 440.208 102.327 446.682 103.618C453.156 104.908 462.222 102.972 464.813 102.645C467.296 102.474 469.788 102.474 472.271 102.645C472.271 102.645 470.325 108.801 472.271 110.748C474.218 112.694 474.535 113.985 474.535 115.275C474.646 116.699 474.862 118.114 475.18 119.506L477.127 120.162L478.1 116.597C480.726 113.797 482.521 110.321 483.283 106.559C484.246 100.73 479.39 94.9223 479.39 94.9223L473.234 88.7022Z" fill="#263238"/>
<path d="M445.963 100.963C445.963 100.963 457.038 103.078 465.713 99.471C474.387 95.8638 466.908 88.7022 466.908 88.7022" stroke="white" stroke-width="0.530341" stroke-miterlimit="10" stroke-linecap="round"/>
<path d="M468.738 88.0993C469.637 88.0993 477.116 93.7799 475.614 97.9689C474.112 102.158 471.129 102.465 471.129 102.465" stroke="white" stroke-width="0.530341" stroke-miterlimit="10" stroke-linecap="round"/>
<path d="M467.511 216.595L458.16 211.665C455.756 211.532 453.366 211.221 451.009 210.734C448.829 210.11 426.467 207.973 426.467 207.973L426.128 213.262C426.128 213.262 451.633 216.69 456.911 217.314C462.19 217.938 466.866 220.424 467.796 221.979C468.727 223.534 470.6 225.089 469.669 229.384C468.738 233.679 462.518 239.962 462.518 239.962C462.222 239.518 477.476 238.418 477.328 236.789C477 233.552 475.275 224.095 475.275 224.095L467.511 216.595Z" fill="#92E3A9"/>
<path opacity="0.5" d="M467.511 216.595L458.16 211.665C455.756 211.532 453.366 211.221 451.009 210.734C448.829 210.11 426.467 207.973 426.467 207.973L426.128 213.262C426.128 213.262 451.633 216.69 456.911 217.314C462.19 217.938 466.866 220.424 467.796 221.979C468.727 223.534 470.6 225.089 469.669 229.384C468.738 233.679 462.518 239.962 462.518 239.962C462.275 239.486 477.507 238.407 477.328 236.789C476.83 232.663 475.275 224.095 475.275 224.095L467.511 216.595Z" fill="white"/>
<path d="M498.357 164.845C497.532 160.974 491.376 161.492 487.663 159.345C483.95 157.197 474.969 152.225 474.969 152.225L470.621 145.688C469.836 143.925 469.203 142.099 468.727 140.229L468.262 138.939L467.416 140.293C467.955 146.09 468.473 160.931 468.473 160.931L470.335 170.261C470.335 170.261 477.497 201.044 479.359 207.889C481.22 214.733 481.22 219.387 479.983 221.566C478.745 223.746 479.158 224.74 479.158 224.74C479.158 224.74 484.013 220.985 483.717 217.261C483.325 212.882 498.939 167.469 498.357 164.845Z" fill="#92E3A9"/>
<path opacity="0.5" d="M498.357 164.845C497.934 160.91 491.376 161.492 487.663 159.345C483.95 157.197 474.969 152.225 474.969 152.225L470.621 145.688C469.836 143.925 469.203 142.099 468.727 140.229L468.262 138.939L467.416 140.293C467.955 146.09 468.473 160.931 468.473 160.931L470.335 170.261C470.335 170.261 477.497 201.044 479.359 207.889C481.22 214.733 481.22 219.387 479.983 221.566C478.745 223.746 479.158 224.74 479.158 224.74C479.158 224.74 484.151 220.974 483.717 217.261C483.22 213.273 498.738 168.114 498.357 164.845Z" fill="white"/>
<path d="M471.182 160.963C471.182 160.963 469.235 143.477 468.262 138.939C467.289 134.401 467.945 131.82 463.734 131.82C459.524 131.82 454.341 131.164 455.272 133.438C456.203 135.712 462.677 133.755 463.734 134.729C464.792 135.702 464.052 137.966 464.052 137.966C464.052 137.966 455.589 138.622 455.589 140.885C455.589 143.149 455.917 149.348 457.535 149.951C459.154 150.554 459.799 147.042 459.799 147.042C459.799 147.042 460.127 154.447 461.746 157.081C462.777 158.708 463.971 160.225 465.311 161.608L471.182 160.963Z" fill="white" stroke="#263238" stroke-width="1.06068" stroke-miterlimit="10" stroke-linecap="round"/>
<path d="M465.353 165.819C465.353 165.819 464.38 206.016 465.998 212.459C467.617 218.901 476.365 227.681 480.892 223.471C485.42 219.26 483.167 210.195 483.167 205.985C483.167 201.774 472.8 170.685 472.8 168.41C472.646 166.522 472.207 164.667 471.499 162.909" stroke="#263238" stroke-width="1.06068" stroke-miterlimit="10" stroke-linecap="round"/>
<path d="M465.998 170.685L472.472 170.029" stroke="#263238" stroke-width="1.06068" stroke-miterlimit="10" stroke-linecap="round"/>
<path d="M424.594 190.783L425.843 155.018C425.843 155.018 424.288 154.087 423.664 157.504C423.039 160.921 422.733 167.776 422.733 167.776C422.733 167.776 415.264 163.11 417.137 165.903C419.009 168.696 422.109 174.926 422.109 174.926L410.557 186.425L415.846 188.604L424.594 190.783Z" fill="#92E3A9"/>
<path opacity="0.5" d="M424.594 190.783L425.843 155.018C425.843 155.018 424.288 154.087 423.664 157.504C423.039 160.921 422.733 167.776 422.733 167.776C422.733 167.776 415.264 163.11 417.137 165.903C419.009 168.696 422.109 174.926 422.109 174.926L410.557 186.425L415.846 188.604L424.594 190.783Z" fill="white"/>
<path d="M440.081 163.005C440.081 163.005 439.489 165.12 441.975 165.12C444.461 165.12 448.829 163.354 448.829 163.354L448.512 159.842C448.512 159.842 442.535 162.751 440.081 163.005Z" fill="#92E3A9"/>
<path opacity="0.5" d="M440.081 163.005C440.081 163.005 439.489 165.12 441.975 165.12C444.461 165.12 448.829 163.354 448.829 163.354L448.512 159.842C448.512 159.842 442.535 162.751 440.081 163.005Z" fill="white"/>
<path d="M450.755 139.351C450.755 139.351 447.518 158.393 449.464 162.624C451.411 166.855 454.32 165.861 456.583 163.925C458.847 161.989 461.767 157.123 461.767 157.123" stroke="#263238" stroke-width="1.06068" stroke-miterlimit="10" stroke-linecap="round"/>
<path d="M425.187 208.248L425.843 234.811C425.843 234.811 433.248 241.93 447.539 241.93C461.83 241.93 477.338 236.746 477.338 236.746V227.353" stroke="#263238" stroke-width="1.06068" stroke-miterlimit="10" stroke-linecap="round"/>
<path d="M468.918 143.149C468.918 143.149 474.746 148.978 474.746 154.489C474.746 160 473.773 161.291 473.773 161.291" stroke="#263238" stroke-width="1.06068" stroke-miterlimit="10" stroke-linecap="round"/>
<path d="M474.091 151.252C474.091 151.252 482.839 156.425 487.694 159.345C492.55 162.264 498.389 162.254 498.389 164.845C498.389 167.437 484.785 211.485 484.785 211.485" stroke="#263238" stroke-width="1.06068" stroke-miterlimit="10" stroke-linecap="round"/>
<path d="M479.602 165.819L476.365 178.777" stroke="#263238" stroke-width="1.06068" stroke-miterlimit="10" stroke-linecap="round"/>
<path d="M425.271 173.424L420.035 162.444" stroke="#263238" stroke-width="0.530341" stroke-miterlimit="10" stroke-linecap="round"/>
<path d="M425.271 176.566L417.422 171.859" stroke="#263238" stroke-width="0.530341" stroke-miterlimit="10" stroke-linecap="round"/>
<path d="M450.882 201.129L449.316 208.978" stroke="#263238" stroke-width="0.530341" stroke-miterlimit="10" stroke-linecap="round"/>
<path d="M493.227 164.539C493.227 164.539 485.388 166.104 478.068 174.99" stroke="#263238" stroke-width="0.530341" stroke-miterlimit="10" stroke-linecap="round"/>
<path d="M488.001 164.063C488.001 164.063 485.885 163.534 478.597 169.807" stroke="#263238" stroke-width="0.530341" stroke-miterlimit="10" stroke-linecap="round"/>
<path d="M450.882 166.633L447.75 191.196L450.363 191.725L452.458 183.886" stroke="#263238" stroke-width="0.530341" stroke-miterlimit="10" stroke-linecap="round"/>
<path d="M452.976 230.928C443.561 238.778 430.497 238.249 430.497 238.249" stroke="#263238" stroke-width="0.530341" stroke-miterlimit="10" stroke-linecap="round"/>
<path d="M413.191 188.266C413.191 188.266 406.791 182.405 397.725 189.863" stroke="#263238" stroke-width="0.530341" stroke-miterlimit="10" stroke-linecap="round"/>
<path d="M450.131 144.122C450.131 144.122 447.539 144.768 444.619 149.306C441.7 153.844 438.145 161.608 440.737 162.254C443.329 162.899 448.142 159.99 448.142 159.99" stroke="#263238" stroke-width="1.06068" stroke-miterlimit="10" stroke-linecap="round"/>
<path d="M460.169 161.291L463.406 164.2" stroke="#263238" stroke-width="1.06068" stroke-miterlimit="10" stroke-linecap="round"/>
<path d="M445.593 147.359C445.593 147.359 433.607 148.978 428.752 149.306C423.896 149.634 424.838 151.421 423.251 152.543C420.691 154.33 391.326 191.556 389.4 195.121C387.475 198.686 387.782 200.304 391.019 201.277C394.256 202.25 426.499 207.92 426.499 207.92L454.986 210.84L457.25 203.71C457.25 203.71 463.872 204.588 465.036 204.588" stroke="#263238" stroke-width="1.06068" stroke-miterlimit="10" stroke-linecap="round"/>
<path d="M454.013 201.087C447.726 199.263 441.648 196.781 435.882 193.682" stroke="#263238" stroke-width="1.06068" stroke-miterlimit="10" stroke-linecap="round"/>
<path d="M433.29 193.026C433.29 193.026 423.769 189.493 418.618 188.848C413.466 188.202 405.575 187.991 405.575 187.991" stroke="#263238" stroke-width="1.06068" stroke-miterlimit="10" stroke-linecap="round"/>
<path d="M424.542 188.816L425.515 163.227" stroke="#263238" stroke-width="1.06068" stroke-miterlimit="10" stroke-linecap="round"/>
<path d="M454.986 210.84C457.208 211.957 459.537 212.85 461.936 213.506" stroke="#263238" stroke-width="1.06068" stroke-miterlimit="10" stroke-linecap="round"/>
<path d="M31.1427 190.223L34.9615 169.352L59.1331 159.831C59.1331 159.831 60.3073 153.347 61.492 153.061C62.6768 152.775 63.8404 150.11 63.8404 150.11L63.2586 144.768C63.2586 144.768 65.4695 136.305 76.5874 142.895C76.5874 142.895 73.2235 145.138 73.8053 146.069C74.3871 147 73.16 149.962 74.6304 149.962C76.1008 149.962 79.0733 151.834 80.5754 153.347C81.6268 154.476 82.5558 155.714 83.3469 157.038L95.8611 157.758C97.1439 157.769 98.4201 157.943 99.6588 158.276C99.8704 152.162 99.1193 147.497 97.6383 143.868C92.2539 130.772 82.4372 126.097 81.0303 119.538C79.6234 112.98 80.3321 112.292 80.3321 112.292C81.7627 110.837 82.8101 109.051 83.3805 107.092C83.951 105.133 84.0267 103.064 83.6008 101.068C82.2045 94.0549 76.8201 89.1359 57.4088 88.205C37.9975 87.2741 40.8113 100.592 40.8113 100.592L41.0441 101.523C41.0441 101.523 28.6462 105.755 30.9946 121.4C33.343 137.045 40.1132 143.847 39.8804 148.756C39.6477 153.664 32.391 155.536 22.0982 166.739C11.8055 177.941 9.71095 194.793 13.9211 205.784C16.0368 211.189 20.173 215.696 25.3669 219.059L31.1427 190.223Z" fill="#263238"/>
<path d="M47.3488 192.286V197.004L38.3889 224.687C43.9877 226.169 49.8592 226.292 55.5153 225.047C58.708 224.215 61.7596 222.914 64.5703 221.186L47.3488 192.286Z" fill="#263238"/>
<path d="M73.1071 145.899L74.1649 150.66C74.1649 150.66 77.3384 147.486 83.5374 157.123C83.5374 157.123 96.4218 156.816 99.9338 158.572C99.9338 158.572 100.664 158.784 103.044 161.312C105.424 163.84 114.373 171.89 114.373 171.89C114.373 171.89 125.861 182.553 127.004 183.379C128.146 184.204 132.431 188.298 135.636 189.726L144.225 170.166L148.055 160.487L150.17 152.522H150.848L150.996 146.1L150.477 138.442C150.562 138.052 150.74 137.689 150.996 137.384C151.883 136.155 152.565 134.79 153.016 133.343C153.016 132.624 152.286 128.371 152.286 128.371C152.286 128.371 151.926 127.313 152.709 127.186C153.492 127.059 156.38 128.064 156.74 130.085L157.797 129.725C158.674 127.632 159.765 125.636 161.056 123.77C162.769 121.548 164.525 120.152 165.615 120.871C165.914 121.077 166.129 121.384 166.223 121.735C166.316 122.086 166.28 122.458 166.123 122.786L162.716 129.048C162.716 129.048 161.214 131.069 163.076 131.788C163.076 131.788 167.106 134.38 167.371 136.654C167.635 138.928 166.176 140.885 164.885 142.557C163.594 144.228 161.32 147.846 161.32 147.846L158.675 150.184L157.618 154.214L158.866 155.769L157.004 163.84L155.661 169.891L154.984 173.562L150.752 188.054L146.521 200.685C146.521 200.685 144.342 207.92 139.063 207.719C133.785 207.518 127.998 204.662 126.126 203.731C124.253 202.8 108.82 194.74 108.82 194.74L105.646 193.238C106.07 194.682 106.252 196.187 106.186 197.691C106.133 200.484 103.128 206.64 102.25 208.037L101.732 218.954C101.527 220.848 101.563 222.76 101.838 224.645C102.303 227.49 104.684 243.591 105.202 245.601C105.202 245.601 100.061 250.255 84.7433 252.466C69.4258 254.677 62.2537 251.091 62.2537 251.091L55.4306 247.082L63.8404 230.463C63.8404 230.463 65.9561 225.523 65.7445 224.222C65.533 222.921 61.9152 217.314 61.9152 217.314L48.6393 193.682L48.0152 193.894L45.9524 200.791L38.4947 224.179L28.678 253.376C28.678 253.376 25.991 260.781 24.8803 262.97L21.7809 272.417C21.953 274.104 22.3699 275.758 23.0185 277.325L15.2223 272.279L16.608 264.874L18.3323 253.831L20.448 241.824L22.3098 231.891L25.2823 218.647L26.3401 214.987L28.4558 204.641L32.1794 185.875L35.3529 169.807L57.5675 160.974L58.9532 159.916C59.2614 157.871 60.0123 155.918 61.1535 154.193C61.9456 153.058 62.8887 152.037 63.9568 151.157C63.9568 151.157 63.851 149.771 63.777 148.459C63.7029 147.148 63.3644 144.736 63.3644 144.736C63.3644 144.736 70.2298 147.687 73.1071 145.899Z" fill="white"/>
<path d="M43.3501 103.385C43.3501 103.385 47.4651 94.277 55.6951 94.277C63.9251 94.277 80.9668 110.441 80.9668 110.441" stroke="white" stroke-width="0.530341" stroke-miterlimit="10" stroke-linecap="round"/>
<path d="M46.8727 104.824C46.8727 104.824 51.8657 99.5345 58.0435 101.587C64.2213 103.639 65.0993 110.991 65.0993 110.991" stroke="white" stroke-width="0.530341" stroke-miterlimit="10" stroke-linecap="round"/>
<path d="M42.7578 105.733C42.7578 105.733 35.4164 109.848 34.824 117.497C34.2316 125.145 45.1062 134.242 46.5765 144.535C48.0469 154.828 40.4094 157.165 28.0644 165.692C15.7195 174.218 17.7822 193.312 20.4268 197.427" stroke="white" stroke-width="0.530341" stroke-miterlimit="10" stroke-linecap="round"/>
<path d="M21.8972 199.786C21.8972 199.786 23.6532 203.604 26.2978 204.779" stroke="white" stroke-width="0.530341" stroke-miterlimit="10" stroke-linecap="round"/>
<path d="M43.6463 125.716C43.2987 126.462 43.1427 127.284 43.1926 128.106C43.2425 128.928 43.4966 129.724 43.932 130.423C45.4023 133.068 56.626 146.291 55.6951 152.469C54.7642 158.646 48.9355 162.455 48.9355 162.455" stroke="white" stroke-width="0.530341" stroke-miterlimit="10" stroke-linecap="round"/>
<path d="M49.2211 105.733C49.2211 105.733 42.4616 108.674 42.7577 115.434C43.0539 122.193 44.5243 123.96 44.5243 123.96" stroke="white" stroke-width="0.530341" stroke-miterlimit="10" stroke-linecap="round"/>
<path d="M80.9668 128.096C83.0671 132.851 85.949 137.22 89.493 141.023C94.7822 146.312 95.364 153.96 95.364 153.96" stroke="white" stroke-width="0.530341" stroke-miterlimit="10" stroke-linecap="round"/>
<path d="M87.134 144.82C87.134 144.82 89.7786 150.998 89.7786 154.817" stroke="white" stroke-width="0.530341" stroke-miterlimit="10" stroke-linecap="round"/>
<path d="M72.5041 146.46L64.2001 153.939C64.2001 153.939 63.3115 156.203 61.6401 159.831C59.9688 163.46 60.2438 170.41 60.2438 170.41L65.3637 180.597C65.3637 180.597 55.5153 169.299 54.9546 167.902C54.394 166.506 44.0906 169.024 42.1442 169.859C40.1978 170.695 37.6801 172.367 38.2408 174.874C38.8014 177.381 41.3085 180.713 40.1872 181.274C39.0659 181.834 36.0088 180.438 36.0088 182.109C36.0088 183.781 39.6371 190.191 37.9658 192.413C36.2944 194.634 25.7054 230.579 25.7054 230.579C25.7054 230.579 32.391 225.004 30.7196 227.237C29.0482 229.469 20.9769 247.568 20.9769 247.568L17.9092 258.147L25.1554 220.551L31.2802 188.816L34.9615 169.352C38.5158 168.167 59.1331 159.831 59.1331 159.831C59.1331 159.831 60.7621 152.976 63.8404 150.11L63.2586 144.768C63.2586 144.768 68.8757 146.735 72.5041 146.46Z" fill="#92E3A9"/>
<path opacity="0.5" d="M72.5041 146.46L64.2001 153.939C64.2001 153.939 63.3115 156.203 61.6401 159.831C59.9688 163.46 60.2438 170.41 60.2438 170.41L65.3637 180.597C65.3637 180.597 55.5153 169.299 54.9546 167.902C54.394 166.506 44.0906 169.024 42.1442 169.859C40.1978 170.695 37.6801 172.367 38.2408 174.874C38.8014 177.381 41.3085 180.713 40.1872 181.274C39.0659 181.834 36.0088 180.438 36.0088 182.109C36.0088 183.781 39.6371 190.191 37.9658 192.413C36.2944 194.634 25.7054 230.579 25.7054 230.579C25.7054 230.579 32.391 225.004 30.7196 227.237C29.0482 229.469 20.9769 247.568 20.9769 247.568L17.9092 258.147L25.1554 220.551L31.2802 188.816L34.9615 169.352C38.5158 168.167 59.1331 159.831 59.1331 159.831C59.1331 159.831 59.5774 153.484 63.851 151.263L63.2586 144.768C63.2586 144.768 68.8757 146.735 72.5041 146.46Z" fill="white"/>
<path d="M103.414 184.056C103.414 184.056 108.428 175.709 108.989 177.656C109.55 179.602 107.593 186.277 107.593 186.277C107.593 186.277 112.882 184.331 112.332 186.002C111.782 187.673 110.66 188.509 110.935 189.345C111.21 190.18 129.321 199.648 131.553 200.759C133.785 201.87 139.074 195.47 141.581 197.416C144.088 199.363 141.581 206.037 136.567 206.048C131.553 206.059 117.071 199.701 117.071 199.701L105.667 193.068" fill="#92E3A9"/>
<path opacity="0.5" d="M103.414 184.056C103.414 184.056 108.428 175.709 108.989 177.656C109.55 179.602 107.593 186.277 107.593 186.277C107.593 186.277 112.882 184.331 112.332 186.002C111.782 187.673 110.66 188.509 110.935 189.345C111.21 190.18 129.321 199.648 131.553 200.759C133.785 201.87 139.074 195.47 141.581 197.416C144.088 199.363 141.581 206.037 136.567 206.048C131.553 206.059 117.071 199.701 117.071 199.701L105.71 193.09" fill="white"/>
<path d="M73.3398 217.758C73.3398 217.758 105.9 200.494 100.611 206.894C95.3217 213.294 77.7933 220.551 73.3398 217.758Z" fill="#92E3A9"/>
<path opacity="0.5" d="M73.3398 217.758C73.3398 217.758 105.9 200.494 100.611 206.894C95.3217 213.294 77.7933 220.551 73.3398 217.758Z" fill="white"/>
<path d="M63.2586 144.82C63.2586 144.82 63.4914 149.263 64.2001 153.939C64.9089 158.615 64.6656 158.615 69.1085 164.221C73.5514 169.828 78.227 174.514 78.9252 173.583" stroke="#263238" stroke-width="1.06068" stroke-miterlimit="10" stroke-linecap="round"/>
<path d="M79.1579 171.943C79.1579 171.943 79.6234 163.756 77.9943 158.382C76.3652 153.008 74.0168 151.125 74.0168 149.919C73.9377 148.663 73.7823 147.412 73.5514 146.174" stroke="#263238" stroke-width="1.06068" stroke-miterlimit="10" stroke-linecap="round"/>
<path d="M63.2586 151.601C61.3901 153.284 60.083 155.499 59.5139 157.948C58.8157 161.682 58.1175 166.125 58.1175 166.125L65.3637 180.628C65.9946 178.103 66.9362 175.665 68.167 173.371C68.7765 172.239 69.5661 171.214 70.5048 170.335" stroke="#263238" stroke-width="1.06068" stroke-miterlimit="10" stroke-linecap="round"/>
<path d="M80.7976 167.966C81.3091 167.838 81.8411 167.813 82.3624 167.893C82.8837 167.973 83.3838 168.156 83.8335 168.431C85.7059 169.373 89.4507 174.281 89.4507 174.281C89.4507 174.281 86.8801 162.116 82.4372 155.811C77.9943 149.507 74.9477 149.962 74.9477 149.962" stroke="#263238" stroke-width="1.06068" stroke-miterlimit="10" stroke-linecap="round"/>
<path d="M57.4088 160.72L34.9615 169.352C34.9615 169.352 26.7844 214.014 23.7379 225.935C20.6913 237.857 15.5608 271.539 15.5608 271.539L21.6328 272.702L23.7484 266.63" stroke="#263238" stroke-linecap="round" stroke-linejoin="round"/>
<path d="M24.9121 263.139C24.9121 263.139 26.3084 261.024 30.0531 249.388C33.7979 237.751 43.805 209.19 45.487 203.552C47.1689 197.913 48.523 194.2 48.523 194.2" stroke="#263238" stroke-width="1.06068" stroke-miterlimit="10" stroke-linecap="round"/>
<path d="M44.5455 187.335C44.5455 187.335 63.4808 221.186 65.1204 222.645C66.7601 224.105 64.4222 228.019 63.9462 230.124" stroke="#263238" stroke-width="1.06068" stroke-miterlimit="10" stroke-linecap="round"/>
<path d="M61.8517 234.377L55.7797 247.007C55.7797 247.007 59.7572 253.09 76.5874 253.09C86.6032 253.121 96.4756 250.71 105.35 246.066C105.35 246.066 101.372 225.026 101.605 221.281C101.838 217.536 102.314 207.719 102.314 207.719C102.314 207.719 106.545 201.372 106.048 196.496C105.551 191.619 103.478 185.97 103.478 185.039C103.478 184.109 103.012 174.048 103.012 174.048" stroke="#263238" stroke-width="1.06068" stroke-miterlimit="10" stroke-linecap="round"/>
<path d="M76.5556 213.59L93.3118 203.308" stroke="#263238" stroke-width="0.530341" stroke-miterlimit="10" stroke-linecap="round"/>
<path d="M85.378 210.364L94.486 205.075" stroke="#263238" stroke-width="0.530341" stroke-miterlimit="10" stroke-linecap="round"/>
<path d="M135.519 189.948L132.103 198.315" stroke="#263238" stroke-width="0.530341" stroke-miterlimit="10" stroke-linecap="round"/>
<path d="M134.155 193.608L130.928 196.845" stroke="#263238" stroke-width="0.530341" stroke-miterlimit="10" stroke-linecap="round"/>
<path d="M38.6428 223.301C38.6428 223.301 33.0574 229.765 29.2386 232.409" stroke="#263238" stroke-width="0.530341" stroke-miterlimit="10" stroke-linecap="round"/>
<path d="M35.4164 225.057C35.4164 225.057 25.716 232.695 23.3676 234.462" stroke="#263238" stroke-width="0.530341" stroke-miterlimit="10" stroke-linecap="round"/>
<path d="M37.1406 170.685C40.0648 174.819 42.7151 179.141 45.0744 183.622" stroke="#263238" stroke-width="0.530341" stroke-miterlimit="10" stroke-linecap="round"/>
<path d="M45.9947 185.674L48.0469 189.197" stroke="#263238" stroke-width="0.530341" stroke-miterlimit="10" stroke-linecap="round"/>
<path d="M103.478 185.039L106.048 171.943" stroke="#263238" stroke-width="0.530341" stroke-miterlimit="10" stroke-linecap="round"/>
<path d="M104.419 185.97L108.386 180.364" stroke="#263238" stroke-width="0.530341" stroke-miterlimit="10" stroke-linecap="round"/>
<path d="M48.523 194.158L37.2993 188.075" stroke="#263238" stroke-width="0.530341" stroke-miterlimit="10" stroke-linecap="round"/>
<path d="M78.6925 174.747C78.6925 174.747 82.9238 183.209 84.3096 189.25" stroke="#263238" stroke-width="0.530341" stroke-miterlimit="10" stroke-linecap="round"/>
<path d="M148.139 160.011C149.259 159.928 150.383 160.073 151.445 160.437C152.506 160.801 153.484 161.375 154.317 162.127" stroke="#263238" stroke-width="0.530341" stroke-miterlimit="10" stroke-linecap="round"/>
<path d="M19.6229 265.731L22.5213 266.81" stroke="#263238" stroke-width="0.530341" stroke-miterlimit="10" stroke-linecap="round"/>
<path d="M15.4867 271.962C15.5231 275.984 15.3111 280.004 14.852 284C14.1539 288.919 14.3866 300.143 15.3175 303.644C16.2484 307.145 16.7244 307.875 17.6553 305.76C18.5862 303.644 21.4 291.267 21.4 291.267C21.4 291.267 21.8655 299.444 23.9706 298.746C26.0757 298.048 24.9121 294.071 24.9121 290.559C24.9121 287.047 25.1448 285.883 24.9121 283.08C24.6793 280.276 21.5587 273.348 21.5587 273.348" fill="white"/>
<path d="M15.4867 271.962C15.5231 275.984 15.3111 280.004 14.852 284C14.1539 288.919 14.3866 300.143 15.3175 303.644C16.2484 307.145 16.7244 307.875 17.6553 305.76C18.5862 303.644 21.4 291.267 21.4 291.267C21.4 291.267 21.8655 299.444 23.9706 298.746C26.0757 298.048 24.9121 294.071 24.9121 290.559C24.9121 287.047 25.1448 285.883 24.9121 283.08C24.6793 280.276 21.5587 273.348 21.5587 273.348" stroke="#263238" stroke-miterlimit="10" stroke-linecap="round"/>
<path d="M150.869 152.342C150.762 150.273 150.762 148.201 150.869 146.132C151.059 144.186 150.287 141.277 150.477 138.727C150.668 136.178 153.196 135.236 152.804 131.936C152.413 128.636 151.641 128.244 152.223 127.472C152.804 126.7 156.454 127.853 156.687 129.99C156.894 132.189 156.894 134.402 156.687 136.601C156.496 137.183 157.85 140.832 157.078 142.419C156.636 143.279 156.309 144.193 156.105 145.138" stroke="#263238" stroke-width="0.880843" stroke-miterlimit="10" stroke-linecap="round"/>
<path d="M157.47 129.82C157.47 129.82 161.934 120.892 164.462 120.691C166.99 120.49 166.207 122.807 165.424 123.992C164.642 125.176 162.124 129.429 161.934 131.185C161.743 132.941 159.405 138.748 159.405 138.748" stroke="#263238" stroke-width="0.880843" stroke-miterlimit="10" stroke-linecap="round"/>
<path d="M161.965 131.185C161.965 131.185 168.767 135.258 167.255 138.59C165.742 141.922 164.917 143.255 163.753 142.821C162.721 142.294 161.799 141.576 161.034 140.705" stroke="#263238" stroke-width="0.880843" stroke-miterlimit="10" stroke-linecap="round"/>
<path d="M164.462 142.832C164.462 142.832 162.706 145.741 161.352 147.497C160.573 148.511 159.65 149.406 158.612 150.152L157.787 153.019" stroke="#263238" stroke-width="0.880843" stroke-miterlimit="10" stroke-linecap="round"/>
<path d="M82.9026 156.975C82.9026 156.975 99.0347 156.742 101.14 159.313C103.245 161.883 128.739 185.272 131.817 187.377C134.895 189.482 135.562 189.948 135.562 189.948C135.562 189.948 148.182 161.386 148.182 160.011C148.182 158.636 150.297 152.299 150.297 152.299C150.297 152.299 154.275 152.765 155.216 152.765C156.158 152.765 158.718 155.811 158.718 155.811C158.718 155.811 155.216 170.071 155.216 171.679C155.216 173.287 148.668 195.533 145.622 202.356C142.575 209.179 138.376 208.195 131.595 206.09C124.814 203.985 106.344 193.47 106.344 193.47" stroke="#263238" stroke-width="1.06068" stroke-miterlimit="10" stroke-linecap="round"/>
<path d="M55.7797 247.007C55.7797 247.007 46.4179 270.428 43.8896 286.37C41.3614 302.311 42.4404 339.589 41.7105 343.577C40.9806 347.565 30.8465 366.384 30.8465 375.439C30.8465 384.494 25.4198 431.198 25.4198 431.198L29.0376 433.367C29.0376 433.367 41.7317 394.227 46.4179 384.124C51.1041 374.022 57.6415 350.094 59.4504 345.386C61.2593 340.679 73.9428 303.02 74.6621 298.313C75.3814 293.605 79.7291 282.022 79.7291 282.022C79.7291 282.022 89.1439 339.589 90.9528 351.543C92.7617 363.496 105.435 428.3 105.435 428.3C106.267 428.503 107.117 428.624 107.973 428.659C109.031 428.659 109.423 426.85 109.423 426.85C109.423 426.85 114.49 380.866 113.04 368.553C111.591 356.24 107.254 341.049 107.254 336.691C107.254 332.333 113.77 294.695 113.77 281.683C113.77 268.672 105.308 246.087 105.308 246.087C105.308 246.087 75.2756 261.235 55.7797 247.007Z" fill="#263238"/>
<path d="M107.117 339.082C107.117 339.082 103.89 352.897 99.4789 360.238" stroke="white" stroke-width="0.530341" stroke-miterlimit="10" stroke-linecap="round"/>
<path d="M106.239 353.193C106.239 353.193 103.594 363.179 98.3048 367.886" stroke="white" stroke-width="0.530341" stroke-miterlimit="10" stroke-linecap="round"/>
<path d="M43.6463 348.782C43.6463 348.782 45.6985 360.831 48.0469 365.824" stroke="white" stroke-width="0.530341" stroke-miterlimit="10" stroke-linecap="round"/>
<path d="M43.0539 355.838C43.0539 355.838 44.8205 364.364 48.0469 369.357" stroke="white" stroke-width="0.530341" stroke-miterlimit="10" stroke-linecap="round"/>
<path d="M80.6706 282.075L92.4232 272.374" stroke="white" stroke-width="0.530341" stroke-miterlimit="10" stroke-linecap="round"/>
<path d="M86.256 277.96L100.071 271.782" stroke="white" stroke-width="0.530341" stroke-miterlimit="10" stroke-linecap="round"/>
<path d="M55.9807 261.5C55.9807 261.5 65.0993 267.371 70.3884 272.374" stroke="white" stroke-width="0.530341" stroke-miterlimit="10" stroke-linecap="round"/>
<path d="M25.8006 431.166C25.8006 431.166 12.0488 442.802 12.0488 448.578C12.0488 454.354 17.4755 454.005 23.2724 448.578C29.0694 443.152 29.3655 431.97 29.3655 431.97L25.8006 431.166Z" fill="white" stroke="#263238" stroke-width="1.06068" stroke-miterlimit="10" stroke-linecap="round"/>
<path d="M105.435 428.299C105.435 428.299 110.142 439.883 115.22 444.96C120.297 450.038 123.185 451.836 123.185 446.399C123.185 440.962 119.927 434.816 109.433 426.85C109.423 426.85 112.321 429.019 105.435 428.299Z" fill="white" stroke="#263238" stroke-width="1.06068" stroke-miterlimit="10" stroke-linecap="round"/>
<path d="M56.8587 107.68C55.9172 107.331 55.0286 106.908 54.1083 106.516C53.188 106.125 51.5061 105.913 50.8714 108.801C49.9299 113.032 56.4779 116.523 54.3728 120.025C53.0632 122.155 51.0949 123.8 48.7663 124.711C48.3872 124.841 47.9922 124.92 47.5921 124.944C45.7197 125.176 42.6837 124.944 43.6146 128.212C44.5455 131.481 47.5921 134.295 49.4644 134.295H51.3368C51.3368 134.295 53.4525 140.642 61.3863 144.112C69.32 147.581 74.715 147.391 76.5874 142.948C78.4597 138.505 79.8667 134.76 79.8667 128.911C79.8667 123.061 77.751 113.244 77.751 113.244C77.751 113.244 75.8786 115.825 68.6324 112.546C63.8404 110.377 59.3552 108.621 56.8587 107.68Z" fill="white"/>
<g style="mix-blend-mode:multiply" opacity="0.5">
<path d="M68.643 112.546C68.643 112.546 57.4617 111.922 55.7903 112.197C54.1189 112.472 56.0653 117.486 55.5153 122.5C54.9652 127.514 55.2297 135.596 57.4617 138.103C60.0956 140.688 62.8865 143.108 65.8186 145.349C65.8186 145.349 57.2395 143.964 54.1189 140.335C50.9983 136.707 50.5011 134.76 50.5011 134.76C50.5011 134.76 43.2549 130.529 42.6943 127.239C42.1336 123.949 46.9256 125.695 49.2211 124.066C50.5117 123.177 55.8538 121.506 54.5103 117.052C53.1669 112.599 50.9983 111.763 50.9137 108.78C50.8502 106.664 52.712 106.051 53.8545 105.86C54.3695 105.774 54.8988 105.851 55.3672 106.082L68.643 112.546Z" fill="#92E3A9"/>
</g>
<path d="M56.8587 107.68C55.9172 107.331 55.0286 106.908 54.1083 106.516C53.188 106.125 51.5061 105.913 50.8714 108.801C49.9299 113.032 56.4779 116.523 54.3728 120.025C53.0632 122.155 51.0949 123.8 48.7663 124.711C48.3872 124.841 47.9922 124.92 47.5921 124.944C45.7197 125.176 42.6837 124.944 43.6146 128.212C44.5455 131.481 47.5921 134.295 49.4644 134.295H51.3368C51.3368 134.295 53.4525 140.642 61.3863 144.112C69.32 147.581 74.715 147.391 76.5874 142.948C78.4597 138.505 79.8667 134.76 79.8667 128.911C79.8667 123.061 77.751 113.244 77.751 113.244C77.751 113.244 75.8786 115.825 68.6324 112.546C63.8404 110.377 59.3552 108.621 56.8587 107.68Z" stroke="#263238" stroke-width="1.06068" stroke-miterlimit="10" stroke-linecap="round"/>
<path d="M65.1204 121.537C65.2685 122.426 65.0252 123.209 64.5703 123.283C64.1155 123.357 63.65 122.691 63.5125 121.802C63.375 120.913 63.6183 120.12 64.0626 120.046C64.5069 119.972 64.9723 120.691 65.1204 121.537Z" fill="#263238"/>
<path d="M74.7996 119.919C74.9372 120.808 74.6938 121.59 74.2496 121.664C73.8053 121.738 73.3292 121.072 73.1917 120.183C73.0542 119.295 73.2869 118.512 73.7312 118.438C74.1755 118.364 74.6515 119.03 74.7996 119.919Z" fill="#263238"/>
<path d="M59.5139 117.221C60.1058 116.342 60.9087 115.624 61.8492 115.134C62.7898 114.645 63.8381 114.399 64.8983 114.418" stroke="#263238" stroke-width="1.06068" stroke-miterlimit="10" stroke-linecap="round"/>
<path d="M72.1445 115.116C73.043 114.802 74.0158 114.769 74.9339 115.02C75.852 115.271 76.6721 115.795 77.2855 116.523" stroke="#263238" stroke-width="1.06068" stroke-miterlimit="10" stroke-linecap="round"/>
<path d="M71.2136 119.094C71.0843 120.572 71.0843 122.059 71.2136 123.537C71.4463 125.409 72.8426 125.875 72.3772 127.282C71.9117 128.688 70.0394 128.678 70.0394 128.678" stroke="#263238" stroke-width="1.06068" stroke-miterlimit="10" stroke-linecap="round"/>
<path d="M67.7015 134.295C66.9004 134.484 66.0678 134.498 65.2608 134.336C64.4538 134.173 63.6914 133.838 63.0259 133.354" stroke="#263238" stroke-width="1.06068" stroke-miterlimit="10" stroke-linecap="round"/>
</svg>
