<svg width="481" height="448" viewBox="0 0 481 448" fill="none" xmlns="http://www.w3.org/2000/svg">
<path d="M92.4578 388.945C175.017 426.675 308.908 426.675 391.419 388.945C473.929 351.214 473.968 290.026 391.419 252.296C308.869 214.565 175.017 214.556 92.4578 252.296C9.89898 290.035 9.89898 351.232 92.4578 388.945Z" fill="#F5F5F5"/>
<path d="M138.634 384.008C163.445 384.008 183.559 375.078 183.559 364.063C183.559 353.047 163.445 344.118 138.634 344.118C113.822 344.118 93.7084 353.047 93.7084 364.063C93.7084 375.078 113.822 384.008 138.634 384.008Z" fill="#E0E0E0"/>
<path d="M364.608 325.338C389.419 325.338 409.533 316.408 409.533 305.393C409.533 294.377 389.419 285.448 364.608 285.448C339.796 285.448 319.682 294.377 319.682 305.393C319.682 316.408 339.796 325.338 364.608 325.338Z" fill="#E0E0E0"/>
<path d="M194.093 219.52L155.988 240.011C154.437 240.953 153.337 242.417 152.92 244.097L143.453 295.017C143.348 295.811 143.485 296.616 143.849 297.341C144.213 298.065 144.79 298.679 145.512 299.112L170.082 312.319C170.874 312.694 171.751 312.89 172.641 312.89C173.53 312.89 174.407 312.694 175.199 312.319L227.705 284.086C228.479 283.705 229.126 283.135 229.577 282.437C230.028 281.739 230.267 280.94 230.267 280.125C230.267 279.311 230.028 278.512 229.577 277.814C229.126 277.116 228.479 276.546 227.705 276.165L208.812 266.004C208.048 265.546 207.396 264.943 206.899 264.234C206.401 263.526 206.07 262.728 205.926 261.892L201.722 223.471C201.6 222.66 201.296 221.882 200.83 221.188C200.365 220.493 199.747 219.897 199.019 219.439C198.248 219.094 197.401 218.921 196.546 218.935C195.69 218.949 194.851 219.15 194.093 219.52Z" fill="#263238"/>
<path d="M172.641 303.377V312.901C173.532 312.913 174.412 312.716 175.199 312.328L227.705 284.095C228.436 283.668 229.048 283.087 229.492 282.399C229.937 281.711 230.201 280.935 230.264 280.134C230.214 279.199 229.862 278.3 229.254 277.554H220.664L172.641 303.377Z" fill="#455A64"/>
<path d="M198.894 222.118L160.789 242.601C159.238 243.545 158.141 245.013 157.73 246.696L149.11 292.911C149.003 293.705 149.14 294.511 149.504 295.236C149.868 295.96 150.446 296.574 151.169 297.006L170.062 307.167C170.857 307.538 171.733 307.731 172.621 307.731C173.51 307.731 174.386 307.538 175.18 307.167L227.705 278.925C229.12 278.163 229.12 276.936 227.705 276.174L208.812 266.013C208.048 265.555 207.396 264.952 206.899 264.243C206.401 263.535 206.07 262.737 205.926 261.901L201.722 223.48C201.73 223.171 201.645 222.866 201.476 222.6C201.306 222.334 201.06 222.117 200.765 221.975C200.47 221.833 200.138 221.771 199.807 221.796C199.476 221.822 199.16 221.933 198.894 222.118Z" fill="#263238"/>
<path d="M227.705 276.174L208.812 266.013C208.055 265.568 207.414 264.971 206.936 264.266L149.495 295.16C149.84 295.924 150.432 296.569 151.188 297.006L170.082 307.167C170.876 307.538 171.752 307.731 172.641 307.731C173.529 307.731 174.405 307.538 175.2 307.167L227.705 278.925C229.12 278.163 229.12 276.936 227.705 276.174Z" fill="#37474F"/>
<path d="M73.0062 320.768L70.5723 319.46C69.5276 318.826 68.6582 317.971 68.0347 316.966C67.4112 315.96 67.0513 314.831 66.9841 313.672V161.28C67.0519 160.123 67.4123 158.997 68.0359 157.994C68.6595 156.992 69.5285 156.14 70.5723 155.51L270.476 48.6169C271.587 48.0934 272.814 47.8206 274.059 47.8206C275.304 47.8206 276.532 48.0934 277.643 48.6169L279.509 49.6205C280.553 50.2524 281.421 51.1055 282.043 52.1099C282.665 53.1144 283.023 54.2417 283.088 55.3997V207.872C283.021 209.029 282.662 210.156 282.04 211.16C281.418 212.164 280.551 213.018 279.509 213.651L80.1731 320.768C79.0629 321.294 77.8351 321.568 76.5896 321.568C75.3442 321.568 74.1164 321.294 73.0062 320.768Z" fill="#455A64"/>
<path d="M81.3948 165.204L68.0423 158.036C67.3934 159.03 67.0291 160.162 66.9841 161.325V313.708C67.0513 314.867 67.4112 315.996 68.0347 317.001C68.6582 318.007 69.5276 318.862 70.5723 319.496L73.0062 320.768C74.1164 321.294 75.3442 321.568 76.5896 321.568C77.8351 321.568 79.0629 321.294 80.1731 320.768L81.3948 320.114V165.204Z" fill="#263238"/>
<path d="M76.5945 318.877V166.477C76.6621 165.319 77.0213 164.193 77.643 163.189C78.2647 162.185 79.1314 161.332 80.1731 160.698L279.509 53.5091C281.491 52.4429 283.088 53.303 283.088 55.4355V207.872C283.021 209.029 282.662 210.156 282.04 211.16C281.419 212.164 280.551 213.018 279.509 213.651L80.1731 320.768C78.201 321.87 76.5945 321.001 76.5945 318.877Z" fill="#37474F"/>
<path d="M170.197 262.071L189.081 251.91C190.495 251.149 191.65 251.695 191.65 253.12C191.585 253.921 191.319 254.697 190.873 255.385C190.426 256.073 189.813 256.654 189.081 257.08L170.197 267.232C168.783 267.994 167.638 267.456 167.638 266.031C167.701 265.23 167.966 264.455 168.41 263.767C168.855 263.079 169.467 262.498 170.197 262.071Z" fill="#E0E0E0"/>
<path d="M85.7719 165.357L273.506 64.1088C274.632 63.4995 275.546 63.9833 275.546 65.2019V198.016C275.508 198.677 275.304 199.321 274.95 199.896C274.595 200.47 274.101 200.959 273.506 201.322L85.7815 302.292C84.6464 302.902 83.7325 302.409 83.7325 301.199V168.663C83.77 168.002 83.9741 167.358 84.3284 166.783C84.6827 166.209 85.1772 165.72 85.7719 165.357Z" fill="white"/>
<path d="M92.7753 167.901L265.012 75.264C268.138 73.5885 270.697 74.9593 270.697 78.3193V193.679C270.646 194.531 270.381 195.361 269.924 196.1C269.466 196.839 268.828 197.468 268.061 197.935L91.7556 292.723C90.3029 293.512 89.1197 292.867 89.1197 291.308V173.824C89.1873 172.639 89.5535 171.485 90.1885 170.456C90.8236 169.427 91.7097 168.552 92.7753 167.901Z" fill="#E6E6E6"/>
<path d="M163.396 147.759L258.316 96.7142V114.473L163.396 165.509V147.759Z" fill="#F5F5F5"/>
<path d="M163.396 172.543L258.316 121.498V165.975L163.396 217.02V172.543Z" fill="#F0F0F0"/>
<path d="M270.697 81.1157V78.3471C270.697 74.9871 268.138 73.6162 265.012 75.2917L92.8138 167.902C91.7508 168.551 90.8662 169.424 90.2313 170.449C89.5963 171.475 89.2288 172.625 89.1582 173.807V178.744L270.697 81.1157Z" fill="#00CFC1"/>
<path d="M246.859 87.4048C246.295 87.7554 245.828 88.2241 245.493 88.7733C245.159 89.3226 244.968 89.9371 244.935 90.5677C244.935 91.7325 245.81 92.1984 246.859 91.616C247.423 91.2678 247.891 90.8009 248.225 90.253C248.559 89.7051 248.75 89.0915 248.783 88.4621C248.821 87.2973 247.946 86.8313 246.859 87.4048Z" fill="white"/>
<path d="M254.632 83.2294C254.067 83.579 253.599 84.0474 253.264 84.5969C252.93 85.1464 252.739 85.7614 252.708 86.3923C252.708 87.5481 253.583 88.023 254.632 87.4406C255.194 87.0909 255.661 86.6236 255.995 86.076C256.329 85.5284 256.521 84.9157 256.556 84.2867C256.585 83.1219 255.709 82.647 254.632 83.2294Z" fill="white"/>
<path d="M262.395 79.0541C261.833 79.4038 261.366 79.8711 261.032 80.4187C260.698 80.9663 260.506 81.579 260.471 82.208C260.471 83.3728 261.347 83.8477 262.395 83.2653C262.96 82.9157 263.428 82.4473 263.763 81.8978C264.097 81.3483 264.288 80.7332 264.319 80.1024C264.358 78.9466 263.482 78.4717 262.395 79.0541Z" fill="white"/>
<path d="M97.3641 241.92C97.1886 241.919 97.0164 241.875 96.8638 241.795C96.7093 241.713 96.5807 241.594 96.4912 241.451C96.4017 241.308 96.3543 241.145 96.354 240.979V183.277C96.3482 183.111 96.3919 182.947 96.4802 182.803C96.5685 182.659 96.698 182.541 96.8542 182.461L150.418 153.556C150.574 153.475 150.75 153.432 150.928 153.432C151.107 153.432 151.282 153.475 151.438 153.556C151.593 153.64 151.722 153.76 151.812 153.905C151.901 154.05 151.948 154.214 151.948 154.381V212.128C151.948 212.294 151.9 212.456 151.811 212.6C151.721 212.743 151.593 212.861 151.438 212.943L97.8739 241.795C97.7184 241.877 97.5428 241.92 97.3641 241.92ZM98.3838 183.823V239.375L149.918 211.599V156.047L98.3838 183.823Z" fill="#FAFAFA"/>
<path d="M115.825 221.088C113.951 221.107 112.105 220.661 110.476 219.798C106.628 217.728 104.502 213.445 104.502 207.72C104.502 196.358 113.083 182.47 123.636 176.781C128.937 173.923 133.978 173.483 137.826 175.553C141.674 177.623 143.8 181.906 143.8 187.631C143.8 199.011 135.209 212.89 124.656 218.579C121.998 220.119 118.953 220.984 115.825 221.088ZM132.477 176.163C129.703 176.265 127.006 177.043 124.656 178.42C114.661 183.796 106.532 196.959 106.532 207.72C106.532 212.737 108.292 216.447 111.486 218.158C114.68 219.869 118.999 219.439 123.636 216.94C133.631 211.564 141.77 198.41 141.77 187.631C141.77 182.614 140.01 178.904 136.806 177.193C135.487 176.497 133.993 176.142 132.477 176.163Z" fill="#FAFAFA"/>
<path d="M326.618 249.653L322.895 247.645C322.806 247.602 322.707 247.579 322.607 247.579C322.506 247.579 322.407 247.602 322.318 247.645L315.584 250.468C315.478 250.515 315.362 250.54 315.244 250.54C315.127 250.541 315.01 250.517 314.904 250.471C314.797 250.424 314.703 250.357 314.628 250.273C314.552 250.189 314.498 250.09 314.468 249.984C314.105 248.895 313.601 247.851 312.967 246.875C312.825 246.647 312.742 246.392 312.723 246.129C312.705 245.867 312.752 245.603 312.862 245.361L317.345 236.938C317.455 236.725 317.476 236.48 317.403 236.253C317.33 236.026 317.169 235.833 316.95 235.711L312.082 233.094C311.975 233.03 311.854 232.987 311.729 232.967C311.603 232.947 311.474 232.95 311.349 232.977C311.225 233.003 311.107 233.053 311.004 233.122C310.9 233.192 310.812 233.28 310.745 233.381L305.156 241.212C304.981 241.419 304.759 241.587 304.506 241.704C304.254 241.822 303.976 241.887 303.694 241.893C303.051 241.877 302.408 241.904 301.77 241.974V236.248L298.028 234.241C297.93 234.201 297.823 234.184 297.717 234.194C297.611 234.203 297.509 234.238 297.422 234.295L289.86 238.363C289.619 238.51 289.414 238.702 289.258 238.927C289.103 239.153 289 239.406 288.956 239.671L288.206 247.511C288.119 248.064 287.842 248.577 287.417 248.972C285.919 250.263 284.514 251.646 283.213 253.111C283.032 253.301 282.796 253.439 282.534 253.509C282.271 253.579 281.993 253.578 281.731 253.505L276.873 251.928C276.624 251.855 276.355 251.862 276.11 251.946C275.864 252.03 275.656 252.188 275.517 252.394L269.956 261.354C269.831 261.57 269.787 261.818 269.831 262.06C269.874 262.302 270.003 262.523 270.197 262.689L274.093 265.816C274.292 265.992 274.432 266.217 274.499 266.464C274.565 266.712 274.555 266.972 274.468 267.214C273.755 268.994 273.173 270.817 272.727 272.671C272.57 273.208 272.233 273.685 271.765 274.033L264.858 278.557C264.632 278.726 264.448 278.937 264.315 279.176C264.182 279.415 264.105 279.678 264.088 279.946V288.073C264.079 288.175 264.099 288.278 264.146 288.371C264.194 288.464 264.267 288.543 264.358 288.602L268.081 290.6L273.612 288.163C273.817 288.574 274.045 288.975 274.295 289.363C274.437 289.591 274.521 289.846 274.539 290.109C274.557 290.371 274.51 290.635 274.401 290.877L269.918 299.3C269.807 299.513 269.786 299.758 269.859 299.985C269.932 300.212 270.094 300.406 270.312 300.527L275.18 303.144C275.401 303.259 275.661 303.294 275.908 303.241C276.155 303.188 276.373 303.051 276.517 302.857L282.106 295.026C282.282 294.819 282.503 294.651 282.756 294.534C283.009 294.416 283.286 294.352 283.569 294.345C284.794 294.369 286.019 294.255 287.215 294.004C287.329 293.975 287.448 293.969 287.565 293.988C287.681 294.007 287.792 294.05 287.888 294.113C287.985 294.177 288.065 294.259 288.124 294.355C288.182 294.451 288.216 294.558 288.225 294.668L288.956 301.504C288.959 301.601 288.988 301.696 289.04 301.781C289.092 301.865 289.166 301.936 289.254 301.988L292.977 303.986L297.441 297.875C297.683 297.728 297.889 297.534 298.044 297.307C298.2 297.08 298.303 296.825 298.345 296.558L299.095 288.727C299.139 288.472 299.25 288.23 299.418 288.024C299.586 287.817 299.805 287.653 300.057 287.544C302.273 286.647 304.27 285.339 305.926 283.7C306.12 283.52 306.362 283.391 306.627 283.327C306.893 283.262 307.172 283.264 307.436 283.333L310.418 284.31C310.669 284.383 310.939 284.377 311.184 284.291C311.43 284.204 311.638 284.044 311.775 283.835L317.335 274.875C317.46 274.659 317.504 274.411 317.461 274.169C317.417 273.927 317.288 273.706 317.094 273.54L314.536 271.479C314.338 271.3 314.194 271.076 314.12 270.829C314.046 270.582 314.043 270.321 314.112 270.072C314.671 267.948 314.908 265.762 314.814 263.576C314.818 263.311 314.884 263.049 315.009 262.811C315.133 262.572 315.314 262.362 315.536 262.196L322.443 257.663C322.669 257.496 322.854 257.287 322.986 257.05C323.119 256.812 323.196 256.55 323.213 256.283L326.512 252.6L326.618 249.653ZM293.602 281.908C286.551 285.708 282.164 283.011 282.164 275.43C282.164 267.85 287.994 258.55 295.045 254.76C302.097 250.97 306.378 253.72 306.378 261.309C306.378 268.899 300.654 278.083 293.602 281.873V281.908Z" fill="#00CFC1"/>
<path opacity="0.1" d="M326.618 249.653L322.895 247.645C322.806 247.602 322.707 247.579 322.607 247.579C322.506 247.579 322.407 247.602 322.318 247.645L315.584 250.468C315.478 250.515 315.362 250.54 315.244 250.54C315.127 250.541 315.01 250.517 314.904 250.471C314.797 250.424 314.703 250.357 314.628 250.273C314.552 250.189 314.498 250.09 314.468 249.984C314.105 248.895 313.601 247.851 312.967 246.875C312.825 246.647 312.742 246.392 312.723 246.129C312.705 245.867 312.752 245.603 312.862 245.361L317.345 236.938C317.455 236.725 317.476 236.48 317.403 236.253C317.33 236.026 317.169 235.833 316.95 235.711L312.082 233.094C311.975 233.03 311.854 232.987 311.729 232.967C311.603 232.947 311.474 232.95 311.349 232.977C311.225 233.003 311.107 233.053 311.004 233.122C310.9 233.192 310.812 233.28 310.745 233.381L305.156 241.212C304.981 241.419 304.759 241.587 304.506 241.704C304.254 241.822 303.976 241.887 303.694 241.893C303.051 241.877 302.408 241.904 301.77 241.974V236.248L298.028 234.241C297.93 234.201 297.823 234.184 297.717 234.194C297.611 234.203 297.509 234.238 297.422 234.295L289.86 238.363C289.619 238.51 289.414 238.702 289.258 238.927C289.103 239.153 289 239.406 288.956 239.671L288.206 247.511C288.119 248.064 287.842 248.577 287.417 248.972C285.919 250.263 284.514 251.646 283.213 253.111C283.032 253.301 282.796 253.439 282.534 253.509C282.271 253.579 281.993 253.578 281.731 253.505L276.873 251.928C276.624 251.855 276.355 251.862 276.11 251.946C275.864 252.03 275.656 252.188 275.517 252.394L269.956 261.354C269.831 261.57 269.787 261.818 269.831 262.06C269.874 262.302 270.003 262.523 270.197 262.689L274.093 265.816C274.292 265.992 274.432 266.217 274.499 266.464C274.565 266.712 274.555 266.972 274.468 267.214C273.755 268.994 273.173 270.817 272.727 272.671C272.57 273.208 272.233 273.685 271.765 274.033L264.858 278.557C264.632 278.726 264.448 278.937 264.315 279.176C264.182 279.415 264.105 279.678 264.088 279.946V288.073C264.079 288.175 264.099 288.278 264.146 288.371C264.194 288.464 264.267 288.543 264.358 288.602L268.081 290.6L273.612 288.163C273.817 288.574 274.045 288.975 274.295 289.363C274.437 289.591 274.521 289.846 274.539 290.109C274.557 290.371 274.51 290.635 274.401 290.877L269.918 299.3C269.807 299.513 269.786 299.758 269.859 299.985C269.932 300.212 270.094 300.406 270.312 300.527L275.18 303.144C275.401 303.259 275.661 303.294 275.908 303.241C276.155 303.188 276.373 303.051 276.517 302.857L282.106 295.026C282.282 294.819 282.503 294.651 282.756 294.534C283.009 294.416 283.286 294.352 283.569 294.345C284.794 294.369 286.019 294.255 287.215 294.004C287.329 293.975 287.448 293.969 287.565 293.988C287.681 294.007 287.792 294.05 287.888 294.113C287.985 294.177 288.065 294.259 288.124 294.355C288.182 294.451 288.216 294.558 288.225 294.668L288.956 301.504C288.959 301.601 288.988 301.696 289.04 301.781C289.092 301.865 289.166 301.936 289.254 301.988L292.977 303.986L297.441 297.875C297.683 297.728 297.889 297.534 298.044 297.307C298.2 297.08 298.303 296.825 298.345 296.558L299.095 288.727C299.139 288.472 299.25 288.23 299.418 288.024C299.586 287.817 299.805 287.653 300.057 287.544C302.273 286.647 304.27 285.339 305.926 283.7C306.12 283.52 306.362 283.391 306.627 283.327C306.893 283.262 307.172 283.264 307.436 283.333L310.418 284.31C310.669 284.383 310.939 284.377 311.184 284.291C311.43 284.204 311.638 284.044 311.775 283.835L317.335 274.875C317.46 274.659 317.504 274.411 317.461 274.169C317.417 273.927 317.288 273.706 317.094 273.54L314.536 271.479C314.338 271.3 314.194 271.076 314.12 270.829C314.046 270.582 314.043 270.321 314.112 270.072C314.671 267.948 314.908 265.762 314.814 263.576C314.818 263.311 314.884 263.049 315.009 262.811C315.133 262.572 315.314 262.362 315.536 262.196L322.443 257.663C322.669 257.496 322.854 257.287 322.986 257.05C323.119 256.812 323.196 256.55 323.213 256.283L326.512 252.6L326.618 249.653ZM293.602 281.908C286.551 285.708 282.164 283.011 282.164 275.43C282.164 267.85 287.994 258.55 295.045 254.76C302.097 250.97 306.378 253.72 306.378 261.309C306.378 268.899 300.654 278.083 293.602 281.873V281.908Z" fill="black"/>
<path d="M315.853 239.743L317.335 236.956C317.446 236.743 317.466 236.499 317.393 236.271C317.32 236.044 317.159 235.851 316.941 235.729L312.073 233.113C311.965 233.049 311.845 233.005 311.719 232.985C311.593 232.965 311.464 232.968 311.34 232.995C311.215 233.022 311.098 233.071 310.994 233.141C310.89 233.21 310.802 233.298 310.736 233.399L305.146 241.23C305.041 241.358 304.914 241.47 304.771 241.562L311.024 244.931L315.853 239.743Z" fill="#00CFC1"/>
<path d="M272.246 273.531C272.106 273.735 271.926 273.915 271.717 274.06L264.81 278.584C264.625 278.719 264.471 278.886 264.358 279.077L268.571 281.344L277.739 276.479L272.246 273.531Z" fill="#00CFC1"/>
<path d="M276.45 251.893C276.256 251.899 276.067 251.95 275.899 252.041C275.732 252.131 275.59 252.259 275.488 252.412L269.928 261.372C269.815 261.573 269.771 261.801 269.803 262.026L274.613 264.607L282.222 255.02L276.45 251.893Z" fill="#00CFC1"/>
<path d="M289.071 239.232L294.997 242.422L301.731 238.838V236.311L297.989 234.304C297.892 234.263 297.785 234.247 297.678 234.256C297.572 234.266 297.47 234.301 297.383 234.358L289.822 238.426C289.493 238.621 289.232 238.901 289.071 239.232Z" fill="#00CFC1"/>
<path d="M326.618 249.652C326.527 249.605 326.424 249.581 326.32 249.581C326.216 249.581 326.113 249.605 326.022 249.652L319.288 252.484C319.182 252.531 319.066 252.556 318.948 252.556C318.831 252.557 318.714 252.533 318.608 252.487C318.501 252.44 318.407 252.373 318.331 252.289C318.256 252.205 318.202 252.106 318.172 252C317.922 251.24 317.6 250.503 317.21 249.796L322.27 247.654C322.361 247.612 322.462 247.59 322.563 247.59C322.665 247.59 322.766 247.612 322.857 247.654L326.618 249.652Z" fill="#00CFC1"/>
<g opacity="0.4">
<path opacity="0.4" d="M315.853 239.743L317.335 236.956C317.446 236.743 317.466 236.499 317.393 236.271C317.32 236.044 317.159 235.851 316.941 235.729L312.073 233.113C311.965 233.049 311.845 233.005 311.719 232.985C311.593 232.965 311.464 232.968 311.34 232.995C311.215 233.022 311.098 233.071 310.994 233.141C310.89 233.21 310.802 233.298 310.736 233.399L305.146 241.23C305.041 241.358 304.914 241.47 304.771 241.562L311.024 244.931L315.853 239.743Z" fill="white"/>
<path opacity="0.4" d="M272.246 273.531C272.106 273.735 271.926 273.915 271.717 274.06L264.81 278.584C264.625 278.719 264.471 278.886 264.358 279.077L268.571 281.344L277.739 276.479L272.246 273.531Z" fill="white"/>
<path opacity="0.4" d="M276.45 251.892C276.256 251.899 276.067 251.95 275.899 252.04C275.732 252.131 275.59 252.259 275.488 252.412L269.928 261.372C269.815 261.573 269.771 261.801 269.803 262.026L274.613 264.607L282.222 255.019L276.45 251.892Z" fill="white"/>
<path opacity="0.4" d="M289.072 239.232L294.997 242.422L301.731 238.838V236.311L297.989 234.304C297.892 234.263 297.785 234.247 297.679 234.256C297.572 234.266 297.471 234.301 297.383 234.358L289.822 238.426C289.493 238.621 289.232 238.901 289.072 239.232Z" fill="white"/>
<path opacity="0.4" d="M326.618 249.652C326.527 249.605 326.424 249.581 326.32 249.581C326.216 249.581 326.113 249.605 326.022 249.652L319.288 252.484C319.182 252.531 319.066 252.556 318.948 252.556C318.831 252.557 318.714 252.533 318.608 252.487C318.501 252.44 318.407 252.373 318.331 252.289C318.256 252.205 318.202 252.106 318.172 252C317.922 251.24 317.6 250.503 317.21 249.796L322.27 247.654C322.361 247.612 322.462 247.59 322.563 247.59C322.665 247.59 322.766 247.612 322.857 247.654L326.618 249.652Z" fill="white"/>
</g>
<path d="M326.888 258.308V250.172C326.903 250.072 326.887 249.97 326.841 249.879C326.796 249.787 326.724 249.709 326.633 249.655C326.542 249.6 326.436 249.571 326.328 249.57C326.219 249.57 326.113 249.599 326.022 249.652L319.288 252.484C319.181 252.531 319.064 252.556 318.946 252.556C318.828 252.557 318.711 252.533 318.604 252.487C318.496 252.441 318.401 252.373 318.325 252.289C318.249 252.205 318.193 252.106 318.162 252C317.799 250.911 317.295 249.867 316.662 248.891C316.523 248.662 316.442 248.406 316.426 248.144C316.409 247.882 316.457 247.619 316.565 247.377L321.048 238.945C321.158 238.732 321.177 238.488 321.102 238.262C321.027 238.037 320.864 237.845 320.644 237.727L315.777 235.101C315.554 234.987 315.294 234.953 315.046 235.008C314.799 235.063 314.583 235.201 314.439 235.397L308.85 243.228C308.678 243.437 308.457 243.607 308.203 243.723C307.95 243.84 307.671 243.9 307.388 243.9C306.165 243.879 304.944 243.997 303.752 244.25C303.638 244.279 303.518 244.285 303.402 244.266C303.285 244.247 303.174 244.204 303.078 244.141C302.981 244.077 302.901 243.995 302.843 243.899C302.784 243.803 302.75 243.696 302.741 243.587L302.001 236.741C302.003 236.641 301.975 236.543 301.92 236.458C301.865 236.372 301.785 236.303 301.689 236.258C301.594 236.213 301.486 236.194 301.38 236.203C301.273 236.213 301.172 236.25 301.087 236.311L293.535 240.379C293.293 240.525 293.088 240.717 292.932 240.942C292.776 241.168 292.673 241.422 292.631 241.687L291.871 249.527C291.781 250.08 291.505 250.591 291.082 250.988C289.585 252.277 288.183 253.66 286.888 255.127C286.705 255.318 286.468 255.457 286.204 255.526C285.94 255.596 285.66 255.594 285.397 255.521L280.587 253.944C280.336 253.869 280.065 253.874 279.818 253.959C279.57 254.043 279.36 254.202 279.221 254.41L273.67 263.37C273.543 263.586 273.498 263.834 273.541 264.077C273.585 264.319 273.715 264.54 273.91 264.705L277.806 267.832C278.004 268.007 278.144 268.23 278.211 268.476C278.277 268.722 278.267 268.98 278.182 269.221C277.47 271.005 276.886 272.831 276.431 274.687C276.275 275.225 275.937 275.702 275.469 276.049L268.571 280.529C268.342 280.695 268.154 280.905 268.02 281.144C267.885 281.384 267.808 281.648 267.792 281.917V290.044C267.777 290.144 267.793 290.246 267.838 290.338C267.883 290.429 267.956 290.507 268.047 290.562C268.138 290.616 268.244 290.645 268.352 290.646C268.46 290.646 268.566 290.618 268.658 290.564L275.392 287.741C275.498 287.693 275.615 287.667 275.734 287.665C275.853 287.664 275.97 287.687 276.078 287.734C276.186 287.78 276.281 287.848 276.357 287.933C276.433 288.018 276.488 288.118 276.517 288.225C276.872 289.332 277.376 290.391 278.018 291.379C278.153 291.611 278.232 291.867 278.249 292.131C278.266 292.394 278.22 292.658 278.114 292.902L273.631 301.325C273.523 301.539 273.503 301.782 273.576 302.009C273.649 302.236 273.809 302.429 274.026 302.552L278.893 305.169C279.117 305.286 279.379 305.321 279.629 305.266C279.879 305.211 280.097 305.071 280.24 304.873L285.829 297.051C286.005 296.844 286.226 296.676 286.479 296.559C286.732 296.441 287.009 296.376 287.292 296.37C288.514 296.394 289.735 296.28 290.928 296.029C291.042 296 291.162 295.994 291.278 296.013C291.395 296.032 291.505 296.075 291.602 296.138C291.698 296.202 291.779 296.284 291.837 296.38C291.895 296.476 291.93 296.583 291.938 296.693L292.679 303.529C292.675 303.629 292.701 303.729 292.756 303.816C292.81 303.903 292.89 303.973 292.986 304.019C293.082 304.065 293.19 304.085 293.297 304.076C293.405 304.067 293.507 304.029 293.593 303.968L301.144 299.9C301.387 299.753 301.592 299.559 301.748 299.332C301.904 299.105 302.006 298.85 302.049 298.583L302.809 290.752C302.901 290.198 303.176 289.684 303.598 289.283C305.095 287.993 306.496 286.61 307.792 285.143C307.975 284.956 308.211 284.821 308.473 284.753C308.735 284.685 309.012 284.686 309.273 284.758L314.131 286.335C314.384 286.407 314.654 286.4 314.901 286.314C315.149 286.228 315.358 286.069 315.498 285.86L321.048 276.9C321.173 276.685 321.216 276.439 321.173 276.198C321.129 275.958 321.001 275.738 320.808 275.574L316.912 272.447C316.714 272.27 316.574 272.046 316.508 271.798C316.441 271.551 316.451 271.291 316.536 271.049C317.249 269.268 317.834 267.445 318.287 265.592C318.443 265.054 318.781 264.577 319.249 264.23L326.156 259.697C326.378 259.527 326.557 259.315 326.683 259.076C326.809 258.836 326.879 258.574 326.888 258.308ZM297.316 283.871C290.264 287.67 284.55 284.588 284.55 277.007C284.55 269.427 290.264 260.198 297.316 256.399C304.367 252.6 310.091 255.683 310.091 263.272C310.091 270.861 304.377 280.081 297.316 283.871Z" fill="#00CFC1"/>
<path d="M289.389 313.376C289.286 313.327 289.169 313.305 289.053 313.315C288.938 313.324 288.827 313.364 288.735 313.43L285.551 315.392C285.34 315.506 285.091 315.542 284.854 315.492C284.617 315.442 284.408 315.31 284.271 315.123C284.084 314.874 283.878 314.637 283.655 314.415C283.468 314.231 283.334 314.005 283.269 313.758C283.203 313.512 283.207 313.253 283.28 313.009L288.34 310.025L284.56 307.991C284.484 307.944 284.399 307.911 284.31 307.893L281.914 307.391C281.65 307.348 281.379 307.382 281.136 307.488C280.894 307.594 280.692 307.766 280.558 307.982L278.297 311.978C277.989 312.444 277.505 312.786 276.941 312.937H276.796C276.894 312.645 276.962 312.345 276.998 312.041L273.208 310.016C273.096 309.959 272.967 309.937 272.841 309.953C272.715 309.969 272.597 310.023 272.506 310.106L268.908 312.704C268.693 312.884 268.521 313.103 268.404 313.349C268.286 313.594 268.225 313.86 268.225 314.129L268.437 317.309C268.443 317.867 268.246 318.41 267.879 318.851C267.287 319.511 266.731 320.199 266.214 320.911C266.044 321.123 265.823 321.296 265.57 321.416C265.316 321.535 265.036 321.599 264.752 321.601L262.443 321.494C262.168 321.492 261.897 321.563 261.662 321.697C261.428 321.832 261.238 322.025 261.116 322.255L258.942 326.789C258.859 326.982 258.852 327.196 258.92 327.394C258.989 327.592 259.129 327.761 259.317 327.873L261.876 329.244C261.957 329.441 261.977 329.655 261.933 329.862C261.754 330.577 261.619 331.301 261.529 332.031C261.44 332.584 261.168 333.098 260.75 333.5L257.566 336.188C257.367 336.38 257.216 336.61 257.124 336.863C257.033 337.115 257.003 337.384 257.037 337.649L257.633 340.883C257.643 340.972 257.675 341.057 257.724 341.133C257.774 341.209 257.842 341.274 257.922 341.322L261.722 343.365L261.77 339.315C261.98 339.201 262.229 339.165 262.466 339.215C262.704 339.265 262.912 339.397 263.049 339.584C263.237 339.835 263.446 340.072 263.675 340.292C263.862 340.478 263.995 340.706 264.059 340.955C264.123 341.203 264.117 341.462 264.04 341.708L262.414 345.856C262.348 346.016 262.343 346.193 262.401 346.357C262.459 346.52 262.576 346.66 262.732 346.752L266.532 348.795L267.561 346.161L269.023 342.774C269.336 342.308 269.822 341.966 270.389 341.815C270.891 341.7 271.383 341.55 271.861 341.367C271.968 341.318 272.085 341.292 272.204 341.29C272.322 341.288 272.44 341.311 272.549 341.356C272.657 341.401 272.753 341.468 272.831 341.552C272.908 341.636 272.965 341.735 272.996 341.842L273.814 344.351C273.834 344.432 273.872 344.51 273.925 344.577C273.977 344.645 274.045 344.702 274.122 344.745L277.97 346.788L277.297 342.872L278.461 342.021C278.679 341.844 278.853 341.625 278.971 341.379C279.089 341.133 279.148 340.866 279.144 340.596L278.932 337.416C278.931 336.859 279.127 336.317 279.49 335.875C280.077 335.22 280.971 334.871 281.491 334.154C281.789 333.751 282.107 333.106 282.626 333.124L284.935 333.231C285.209 333.233 285.479 333.163 285.713 333.03C285.947 332.897 286.138 332.706 286.262 332.479L288.427 327.936C288.519 327.724 288.521 327.487 288.431 327.273C288.342 327.06 288.168 326.887 287.946 326.789L286.08 326.054C285.844 325.951 285.652 325.775 285.537 325.557C285.422 325.339 285.389 325.091 285.445 324.854C285.617 324.138 285.749 323.414 285.839 322.685C285.928 322.132 286.201 321.618 286.618 321.216L289.803 318.528C290.091 318.252 290.277 317.897 290.332 317.516L293.218 315.419L289.389 313.376ZM274.959 334.298C271.111 337.147 267.34 336.367 266.638 332.559C265.935 328.751 269.12 323.904 273.016 321.055C276.912 318.205 280.038 318.421 280.712 322.229C281.385 326.036 278.826 331.439 274.93 334.298H274.959Z" fill="#00CFC1"/>
<path opacity="0.1" d="M289.389 313.376C289.286 313.327 289.169 313.305 289.053 313.315C288.938 313.324 288.827 313.364 288.735 313.43L285.551 315.392C285.34 315.506 285.091 315.542 284.854 315.492C284.617 315.442 284.408 315.31 284.271 315.123C284.084 314.874 283.878 314.637 283.655 314.415C283.468 314.231 283.334 314.005 283.269 313.758C283.203 313.512 283.207 313.253 283.28 313.009L288.34 310.025L284.56 307.991C284.484 307.944 284.399 307.911 284.31 307.893L281.914 307.391C281.65 307.348 281.379 307.382 281.136 307.488C280.894 307.594 280.692 307.766 280.558 307.982L278.297 311.978C277.989 312.444 277.505 312.786 276.941 312.937H276.796C276.894 312.645 276.962 312.345 276.998 312.041L273.208 310.016C273.096 309.959 272.967 309.937 272.841 309.953C272.715 309.969 272.597 310.023 272.506 310.106L268.908 312.704C268.693 312.884 268.521 313.103 268.404 313.349C268.286 313.594 268.225 313.86 268.225 314.129L268.437 317.309C268.443 317.867 268.246 318.41 267.879 318.851C267.287 319.511 266.731 320.199 266.214 320.911C266.044 321.123 265.823 321.296 265.57 321.416C265.316 321.535 265.036 321.599 264.752 321.601L262.443 321.494C262.168 321.492 261.897 321.563 261.662 321.697C261.428 321.832 261.238 322.025 261.116 322.255L258.942 326.789C258.859 326.982 258.852 327.196 258.92 327.394C258.989 327.592 259.129 327.761 259.317 327.873L261.876 329.244C261.957 329.441 261.977 329.655 261.933 329.862C261.754 330.577 261.619 331.301 261.529 332.031C261.44 332.584 261.168 333.098 260.75 333.5L257.566 336.188C257.367 336.38 257.216 336.61 257.124 336.863C257.033 337.115 257.003 337.384 257.037 337.649L257.633 340.883C257.643 340.972 257.675 341.057 257.724 341.133C257.774 341.209 257.842 341.274 257.922 341.322L261.722 343.365L261.77 339.315C261.98 339.201 262.229 339.165 262.466 339.215C262.704 339.265 262.912 339.397 263.049 339.584C263.237 339.835 263.446 340.072 263.675 340.292C263.862 340.478 263.995 340.706 264.059 340.955C264.123 341.203 264.117 341.462 264.04 341.708L262.414 345.856C262.348 346.016 262.343 346.193 262.401 346.357C262.459 346.52 262.576 346.66 262.732 346.752L266.532 348.795L267.561 346.161L269.023 342.774C269.336 342.308 269.822 341.966 270.389 341.815C270.891 341.7 271.383 341.55 271.861 341.367C271.968 341.318 272.085 341.292 272.204 341.29C272.322 341.288 272.44 341.311 272.549 341.356C272.657 341.401 272.753 341.468 272.831 341.552C272.908 341.636 272.965 341.735 272.996 341.842L273.814 344.351C273.834 344.432 273.872 344.51 273.925 344.577C273.977 344.645 274.045 344.702 274.122 344.745L277.97 346.788L277.297 342.872L278.461 342.021C278.679 341.844 278.853 341.625 278.971 341.379C279.089 341.133 279.148 340.866 279.144 340.596L278.932 337.416C278.931 336.859 279.127 336.317 279.49 335.875C280.077 335.22 280.971 334.871 281.491 334.154C281.789 333.751 282.107 333.106 282.626 333.124L284.935 333.231C285.209 333.233 285.479 333.163 285.713 333.03C285.947 332.897 286.138 332.706 286.262 332.479L288.427 327.936C288.519 327.724 288.521 327.487 288.431 327.273C288.342 327.06 288.168 326.887 287.946 326.789L286.08 326.054C285.844 325.951 285.652 325.775 285.537 325.557C285.422 325.339 285.389 325.091 285.445 324.854C285.617 324.138 285.749 323.414 285.839 322.685C285.928 322.132 286.201 321.618 286.618 321.216L289.803 318.528C290.091 318.252 290.277 317.897 290.332 317.516L293.218 315.419L289.389 313.376ZM274.959 334.298C271.111 337.147 267.34 336.367 266.638 332.559C265.935 328.751 269.12 323.904 273.016 321.055C276.912 318.205 280.038 318.421 280.712 322.229C281.385 326.036 278.826 331.439 274.93 334.298H274.959Z" fill="black"/>
<path d="M260.702 333.572L257.547 336.26C257.305 336.493 257.139 336.785 257.066 337.102L261.741 339.62V339.387C261.951 339.273 262.2 339.237 262.438 339.287C262.675 339.337 262.883 339.468 263.02 339.656L267.523 337.228L260.702 333.572Z" fill="#00CFC1"/>
<path d="M268.744 325.409C269.098 324.893 269.483 324.396 269.899 323.922L265.406 321.503C265.202 321.594 264.978 321.64 264.752 321.637L262.443 321.53C262.092 321.527 261.751 321.642 261.481 321.852L268.388 325.571L268.744 325.409Z" fill="#00CFC1"/>
<path d="M293.169 315.392C293.064 315.347 292.947 315.33 292.832 315.343C292.716 315.355 292.607 315.397 292.515 315.464L289.331 317.417C289.122 317.529 288.875 317.563 288.64 317.513C288.405 317.463 288.198 317.333 288.061 317.148C287.871 316.899 287.662 316.663 287.436 316.44C287.247 316.255 287.114 316.027 287.048 315.779C286.982 315.53 286.987 315.271 287.061 315.025L287.369 314.272L288.735 313.43C288.827 313.364 288.938 313.324 289.053 313.315C289.169 313.305 289.285 313.327 289.389 313.376L293.169 315.392Z" fill="#00CFC1"/>
<path d="M283.79 314.541C283.757 314.497 283.722 314.455 283.684 314.415C283.496 314.231 283.363 314.005 283.297 313.758C283.232 313.512 283.236 313.253 283.309 313.009L288.369 310.025L284.588 307.991C284.512 307.944 284.428 307.911 284.338 307.893L281.943 307.391C281.679 307.348 281.408 307.382 281.165 307.488C280.922 307.594 280.721 307.766 280.587 307.982L278.326 311.978C278.2 312.19 278.026 312.373 277.816 312.516L282.905 315.258L283.79 314.541Z" fill="#00CFC1"/>
<path d="M268.321 313.6L272.996 316.118L276.844 312.838C276.915 312.573 276.967 312.304 276.998 312.032L273.208 310.016C273.096 309.959 272.968 309.937 272.841 309.953C272.715 309.969 272.597 310.023 272.506 310.106L268.908 312.704C268.623 312.943 268.419 313.255 268.321 313.6Z" fill="#00CFC1"/>
<g opacity="0.4">
<path opacity="0.4" d="M260.702 333.572L257.547 336.26C257.305 336.493 257.139 336.785 257.066 337.102L261.741 339.62V339.387C261.951 339.273 262.2 339.237 262.438 339.287C262.675 339.337 262.883 339.468 263.02 339.656L267.523 337.228L260.702 333.572Z" fill="white"/>
<path opacity="0.4" d="M268.744 325.409C269.097 324.893 269.483 324.396 269.899 323.922L265.406 321.503C265.202 321.594 264.978 321.64 264.752 321.637L262.443 321.53C262.092 321.527 261.751 321.642 261.481 321.852L268.388 325.571L268.744 325.409Z" fill="white"/>
<path opacity="0.4" d="M293.169 315.392C293.064 315.347 292.947 315.33 292.832 315.343C292.716 315.355 292.607 315.397 292.515 315.464L289.331 317.417C289.122 317.529 288.875 317.563 288.64 317.513C288.405 317.463 288.198 317.333 288.061 317.148C287.871 316.899 287.662 316.663 287.436 316.44C287.247 316.255 287.114 316.027 287.048 315.779C286.982 315.53 286.987 315.271 287.061 315.025L287.369 314.272L288.735 313.43C288.827 313.364 288.938 313.324 289.053 313.315C289.169 313.305 289.285 313.327 289.389 313.376L293.169 315.392Z" fill="white"/>
<path opacity="0.4" d="M283.79 314.541C283.757 314.497 283.722 314.455 283.684 314.415C283.496 314.231 283.363 314.005 283.297 313.758C283.232 313.512 283.236 313.253 283.309 313.009L288.369 310.025L284.588 307.991C284.512 307.944 284.428 307.911 284.338 307.893L281.943 307.391C281.679 307.348 281.408 307.382 281.165 307.488C280.922 307.594 280.721 307.766 280.587 307.982L278.326 311.978C278.2 312.19 278.026 312.373 277.816 312.516L282.905 315.258L283.79 314.541Z" fill="white"/>
<path opacity="0.4" d="M268.321 313.6L272.996 316.118L276.844 312.838C276.915 312.573 276.967 312.304 276.998 312.032L273.208 310.016C273.096 309.959 272.967 309.937 272.841 309.953C272.715 309.969 272.597 310.023 272.506 310.106L268.908 312.704C268.623 312.943 268.419 313.255 268.321 313.6Z" fill="white"/>
</g>
<path d="M294.064 319.092L293.468 315.858C293.465 315.755 293.43 315.656 293.368 315.571C293.307 315.486 293.22 315.42 293.119 315.379C293.018 315.339 292.906 315.326 292.798 315.343C292.689 315.359 292.588 315.404 292.506 315.473L289.322 317.426C289.112 317.538 288.866 317.572 288.63 317.522C288.395 317.472 288.189 317.342 288.052 317.157C287.862 316.908 287.653 316.671 287.426 316.449C287.24 316.264 287.108 316.038 287.042 315.791C286.977 315.545 286.98 315.287 287.051 315.043L288.677 310.948C288.722 310.845 288.742 310.735 288.735 310.624C288.728 310.514 288.695 310.406 288.638 310.309C288.581 310.212 288.501 310.128 288.405 310.064C288.308 309.999 288.197 309.955 288.081 309.935L285.685 309.434C285.421 309.388 285.149 309.421 284.905 309.527C284.662 309.633 284.461 309.807 284.329 310.025L282.078 314.021C281.761 314.484 281.276 314.824 280.712 314.98C280.207 315.098 279.711 315.251 279.23 315.437C279.123 315.484 279.007 315.509 278.889 315.509C278.77 315.51 278.653 315.486 278.546 315.44C278.439 315.394 278.344 315.326 278.267 315.242C278.191 315.158 278.136 315.059 278.105 314.953L277.287 312.444C277.268 312.344 277.22 312.25 277.148 312.174C277.076 312.098 276.983 312.041 276.878 312.01C276.774 311.98 276.663 311.977 276.557 312.001C276.451 312.025 276.354 312.076 276.277 312.148L272.679 314.774C272.464 314.953 272.293 315.173 272.175 315.418C272.057 315.664 271.996 315.93 271.996 316.198L272.217 319.379C272.215 319.936 272.019 320.476 271.659 320.92C271.061 321.578 270.502 322.266 269.985 322.981C269.811 323.189 269.59 323.359 269.337 323.478C269.084 323.598 268.806 323.663 268.523 323.671L266.214 323.564C265.939 323.562 265.668 323.632 265.433 323.767C265.199 323.902 265.009 324.095 264.887 324.325L262.722 328.832C262.631 329.045 262.63 329.283 262.722 329.497C262.813 329.71 262.989 329.883 263.213 329.979L265.079 330.723C265.313 330.826 265.503 331 265.618 331.216C265.733 331.432 265.767 331.678 265.714 331.914C265.542 332.63 265.411 333.354 265.32 334.083C265.226 334.635 264.954 335.147 264.54 335.552L261.356 338.24C261.155 338.431 261.003 338.661 260.909 338.913C260.816 339.166 260.785 339.435 260.818 339.7L261.414 342.935C261.417 343.037 261.452 343.137 261.513 343.222C261.575 343.307 261.662 343.373 261.763 343.414C261.864 343.454 261.975 343.467 262.084 343.45C262.193 343.434 262.294 343.389 262.376 343.32L265.56 341.367C265.769 341.255 266.016 341.221 266.251 341.271C266.487 341.321 266.693 341.451 266.83 341.636C267.018 341.887 267.227 342.124 267.455 342.344C267.642 342.53 267.775 342.758 267.841 343.006C267.906 343.254 267.903 343.513 267.831 343.759L266.205 347.845C266.16 347.948 266.14 348.058 266.147 348.168C266.154 348.279 266.187 348.387 266.244 348.484C266.301 348.581 266.381 348.665 266.477 348.729C266.574 348.794 266.684 348.838 266.801 348.858L269.197 349.359C269.461 349.405 269.733 349.372 269.976 349.266C270.22 349.16 270.421 348.986 270.553 348.768L272.804 344.772C273.121 344.309 273.606 343.969 274.17 343.813C274.674 343.694 275.169 343.544 275.652 343.365C275.758 343.318 275.874 343.293 275.991 343.292C276.109 343.291 276.226 343.314 276.333 343.359C276.44 343.404 276.535 343.471 276.612 343.554C276.689 343.637 276.745 343.734 276.777 343.84L277.595 346.349C277.614 346.449 277.662 346.542 277.734 346.619C277.806 346.695 277.899 346.752 278.003 346.782C278.108 346.813 278.219 346.816 278.325 346.792C278.431 346.768 278.528 346.717 278.605 346.644L282.203 344.019C282.418 343.84 282.589 343.62 282.707 343.374C282.825 343.129 282.886 342.863 282.886 342.595L282.665 339.414C282.667 338.857 282.862 338.317 283.223 337.873C283.821 337.215 284.38 336.527 284.896 335.812C285.071 335.604 285.292 335.434 285.545 335.315C285.797 335.195 286.075 335.13 286.359 335.122L288.667 335.229C288.943 335.231 289.214 335.16 289.448 335.026C289.683 334.891 289.873 334.698 289.995 334.468L292.169 329.934C292.261 329.721 292.261 329.483 292.17 329.269C292.078 329.056 291.903 328.883 291.679 328.787L289.812 328.044C289.578 327.94 289.388 327.766 289.273 327.55C289.158 327.334 289.124 327.088 289.177 326.852C289.349 326.136 289.481 325.412 289.572 324.684C289.667 324.132 289.939 323.62 290.351 323.214L293.535 320.526C293.73 320.338 293.879 320.112 293.97 319.864C294.062 319.616 294.094 319.353 294.064 319.092ZM278.72 336.323C274.824 339.181 271.092 338.401 270.389 334.593C269.687 330.785 272.313 325.382 276.161 322.533C280.009 319.684 283.79 320.454 284.492 324.262C285.195 328.07 282.607 333.473 278.72 336.323Z" fill="#00CFC1"/>
<path d="M258.461 307.444L254.738 305.446C254.646 305.405 254.546 305.383 254.444 305.383C254.342 305.383 254.242 305.405 254.151 305.446L247.417 308.269C247.312 308.318 247.196 308.344 247.078 308.346C246.961 308.348 246.844 308.325 246.737 308.279C246.63 308.234 246.535 308.167 246.46 308.083C246.385 307.999 246.33 307.9 246.301 307.794C245.939 306.704 245.435 305.66 244.8 304.685C244.663 304.454 244.583 304.198 244.564 303.934C244.546 303.671 244.591 303.407 244.694 303.162L249.158 294.784C249.268 294.569 249.287 294.324 249.212 294.097C249.138 293.87 248.974 293.677 248.754 293.556L243.886 290.94C243.664 290.825 243.404 290.792 243.156 290.847C242.909 290.901 242.692 291.04 242.549 291.236L236.96 299.067C236.788 299.276 236.567 299.446 236.313 299.562C236.06 299.679 235.78 299.739 235.498 299.739C234.855 299.726 234.212 299.756 233.574 299.828V294.067L229.841 292.096C229.742 292.054 229.634 292.038 229.526 292.047C229.418 292.056 229.314 292.092 229.225 292.15L221.664 296.209C221.422 296.355 221.216 296.549 221.062 296.776C220.907 297.003 220.808 297.259 220.769 297.526L220.009 305.357C219.918 305.911 219.642 306.425 219.221 306.826C217.723 308.116 216.322 309.499 215.026 310.966C214.842 311.154 214.604 311.291 214.341 311.36C214.078 311.43 213.799 311.43 213.535 311.36L208.725 309.774C208.473 309.703 208.203 309.711 207.956 309.797C207.709 309.882 207.5 310.041 207.359 310.249L201.799 319.209C201.677 319.426 201.635 319.675 201.68 319.916C201.725 320.158 201.855 320.378 202.049 320.544L205.897 323.662C206.094 323.839 206.235 324.063 206.303 324.31C206.371 324.557 206.363 324.817 206.282 325.06C205.565 326.839 204.98 328.662 204.531 330.516C204.375 331.057 204.038 331.537 203.569 331.887L196.662 336.412C196.436 336.579 196.251 336.788 196.118 337.025C195.986 337.263 195.909 337.524 195.892 337.792V345.928C195.884 346.029 195.904 346.13 195.951 346.221C195.999 346.313 196.071 346.391 196.161 346.447L199.884 348.454L205.416 346.008C205.628 346.429 205.858 346.833 206.099 347.209C206.241 347.438 206.325 347.695 206.343 347.959C206.361 348.223 206.314 348.488 206.205 348.732L201.722 357.155C201.611 357.368 201.59 357.612 201.663 357.84C201.736 358.067 201.898 358.26 202.116 358.382L206.984 360.998C207.206 361.113 207.467 361.147 207.714 361.092C207.961 361.037 208.178 360.898 208.321 360.703L213.91 352.872C214.084 352.662 214.307 352.492 214.562 352.375C214.817 352.259 215.098 352.199 215.382 352.2C216.605 352.22 217.826 352.103 219.019 351.85C219.132 351.822 219.251 351.818 219.367 351.838C219.483 351.857 219.593 351.9 219.689 351.963C219.785 352.026 219.866 352.108 219.924 352.203C219.983 352.298 220.019 352.404 220.029 352.513L220.769 359.359C220.771 359.454 220.798 359.548 220.848 359.631C220.898 359.714 220.971 359.784 221.058 359.834L224.771 361.832L229.235 355.73C229.476 355.581 229.681 355.388 229.837 355.161C229.993 354.934 230.096 354.679 230.139 354.413L230.899 346.573C230.94 346.316 231.049 346.073 231.217 345.867C231.386 345.66 231.607 345.496 231.861 345.39C234.081 344.499 236.081 343.194 237.739 341.555C237.929 341.371 238.169 341.238 238.433 341.172C238.698 341.106 238.977 341.108 239.24 341.179L242.222 342.156C242.472 342.23 242.741 342.225 242.986 342.14C243.232 342.056 243.441 341.897 243.578 341.69L249.139 332.73C249.264 332.514 249.308 332.265 249.265 332.024C249.221 331.782 249.092 331.56 248.898 331.395L246.339 329.343C246.143 329.163 246.002 328.938 245.929 328.691C245.856 328.444 245.855 328.184 245.926 327.936C246.477 325.811 246.71 323.625 246.618 321.44C246.62 321.173 246.686 320.91 246.81 320.67C246.935 320.429 247.116 320.218 247.34 320.051L254.247 315.526C254.474 315.359 254.66 315.149 254.792 314.909C254.925 314.67 255.001 314.407 255.017 314.138L258.316 310.455L258.461 307.444ZM225.445 339.7C218.393 343.491 214.007 340.803 214.007 333.213C214.007 325.624 219.836 316.333 226.888 312.543C233.939 308.753 238.22 311.512 238.22 319.092C238.22 326.673 232.496 335.884 225.445 339.674V339.7Z" fill="#00CFC1"/>
<path opacity="0.1" d="M258.461 307.444L254.738 305.446C254.646 305.405 254.546 305.383 254.444 305.383C254.342 305.383 254.242 305.405 254.151 305.446L247.417 308.269C247.312 308.318 247.196 308.344 247.078 308.346C246.961 308.348 246.844 308.325 246.737 308.279C246.63 308.234 246.535 308.167 246.46 308.083C246.385 307.999 246.33 307.9 246.301 307.794C245.939 306.704 245.435 305.66 244.8 304.685C244.663 304.454 244.583 304.198 244.564 303.934C244.546 303.671 244.591 303.407 244.694 303.162L249.158 294.784C249.268 294.569 249.287 294.324 249.212 294.097C249.138 293.87 248.974 293.677 248.754 293.556L243.886 290.94C243.664 290.825 243.404 290.792 243.156 290.847C242.909 290.901 242.692 291.04 242.549 291.236L236.96 299.067C236.788 299.276 236.567 299.446 236.313 299.562C236.06 299.679 235.78 299.739 235.498 299.739C234.855 299.726 234.212 299.756 233.574 299.828V294.067L229.841 292.096C229.742 292.054 229.634 292.038 229.526 292.047C229.418 292.056 229.314 292.092 229.225 292.15L221.664 296.209C221.422 296.355 221.216 296.549 221.062 296.776C220.907 297.003 220.808 297.259 220.769 297.526L220.009 305.357C219.918 305.911 219.642 306.425 219.221 306.826C217.723 308.116 216.322 309.499 215.026 310.966C214.842 311.154 214.604 311.291 214.341 311.36C214.078 311.43 213.799 311.43 213.535 311.36L208.725 309.774C208.473 309.703 208.203 309.711 207.956 309.797C207.709 309.882 207.5 310.041 207.359 310.249L201.799 319.209C201.677 319.426 201.635 319.675 201.68 319.916C201.725 320.158 201.855 320.378 202.049 320.544L205.897 323.662C206.094 323.839 206.235 324.063 206.303 324.31C206.371 324.557 206.363 324.817 206.282 325.06C205.565 326.839 204.98 328.662 204.531 330.516C204.375 331.057 204.038 331.537 203.569 331.887L196.662 336.412C196.436 336.579 196.251 336.788 196.118 337.025C195.986 337.263 195.909 337.524 195.892 337.792V345.928C195.884 346.029 195.904 346.13 195.951 346.221C195.999 346.313 196.071 346.391 196.161 346.447L199.884 348.454L205.416 346.008C205.628 346.429 205.858 346.833 206.099 347.209C206.241 347.438 206.325 347.695 206.343 347.959C206.361 348.223 206.314 348.488 206.205 348.732L201.722 357.155C201.611 357.368 201.59 357.612 201.663 357.84C201.736 358.067 201.898 358.26 202.116 358.382L206.984 360.998C207.206 361.113 207.467 361.147 207.714 361.092C207.961 361.037 208.178 360.898 208.321 360.703L213.91 352.872C214.084 352.662 214.307 352.492 214.562 352.375C214.817 352.259 215.098 352.199 215.382 352.2C216.605 352.22 217.826 352.103 219.019 351.85C219.132 351.822 219.251 351.818 219.367 351.838C219.483 351.857 219.593 351.9 219.689 351.963C219.785 352.026 219.866 352.108 219.924 352.203C219.983 352.298 220.019 352.404 220.029 352.513L220.769 359.359C220.771 359.454 220.798 359.548 220.848 359.631C220.898 359.714 220.971 359.784 221.058 359.834L224.771 361.832L229.235 355.73C229.476 355.581 229.681 355.388 229.837 355.161C229.993 354.934 230.096 354.679 230.139 354.413L230.899 346.573C230.94 346.316 231.049 346.073 231.217 345.867C231.386 345.66 231.607 345.496 231.861 345.39C234.081 344.499 236.081 343.194 237.739 341.555C237.929 341.371 238.169 341.238 238.433 341.172C238.698 341.106 238.977 341.108 239.24 341.179L242.222 342.156C242.472 342.23 242.741 342.225 242.986 342.14C243.232 342.056 243.441 341.897 243.578 341.69L249.139 332.73C249.264 332.514 249.308 332.265 249.265 332.024C249.221 331.782 249.092 331.56 248.898 331.395L246.339 329.343C246.143 329.163 246.002 328.938 245.929 328.691C245.856 328.444 245.855 328.184 245.926 327.936C246.477 325.811 246.71 323.625 246.618 321.44C246.62 321.173 246.686 320.91 246.81 320.67C246.935 320.429 247.116 320.218 247.34 320.051L254.247 315.526C254.474 315.359 254.66 315.149 254.792 314.909C254.925 314.67 255.001 314.407 255.017 314.138L258.316 310.455L258.461 307.444ZM225.445 339.7C218.393 343.491 214.007 340.803 214.007 333.213C214.007 325.624 219.836 316.333 226.888 312.543C233.939 308.753 238.22 311.512 238.22 319.092C238.22 326.673 232.496 335.884 225.445 339.674V339.7Z" fill="black"/>
<path d="M247.696 297.535L249.158 294.784C249.268 294.569 249.287 294.324 249.212 294.097C249.138 293.87 248.974 293.677 248.754 293.556L243.886 290.94C243.664 290.825 243.404 290.792 243.156 290.847C242.909 290.901 242.692 291.04 242.549 291.236L236.96 299.067C236.859 299.199 236.732 299.312 236.585 299.398L242.847 302.758L247.696 297.535Z" fill="#00CFC1"/>
<path d="M204.098 331.332C203.949 331.533 203.767 331.711 203.559 331.86L196.652 336.385C196.468 336.516 196.314 336.681 196.2 336.869L200.414 339.136L209.581 334.28L204.098 331.332Z" fill="#00CFC1"/>
<path d="M208.292 309.693C208.098 309.699 207.909 309.75 207.741 309.84C207.573 309.931 207.432 310.059 207.33 310.213L201.77 319.173C201.656 319.374 201.612 319.602 201.645 319.827L206.455 322.399L214.064 312.812L208.292 309.693Z" fill="#00CFC1"/>
<path d="M220.914 297.024L226.84 300.214L233.574 296.63V294.067L229.841 292.096C229.742 292.054 229.634 292.038 229.526 292.047C229.418 292.056 229.314 292.092 229.225 292.15L221.664 296.209C221.335 296.408 221.074 296.691 220.914 297.024Z" fill="#00CFC1"/>
<path d="M258.461 307.445C258.37 307.396 258.267 307.37 258.162 307.37C258.058 307.37 257.955 307.396 257.864 307.445L251.13 310.267C251.023 310.314 250.907 310.339 250.788 310.339C250.67 310.34 250.553 310.316 250.446 310.27C250.339 310.224 250.244 310.156 250.167 310.072C250.091 309.988 250.035 309.889 250.005 309.783C249.756 309.026 249.434 308.291 249.043 307.588L254.141 305.446C254.232 305.405 254.333 305.383 254.435 305.383C254.536 305.383 254.637 305.405 254.728 305.446L258.461 307.445Z" fill="#00CFC1"/>
<g opacity="0.4">
<path opacity="0.4" d="M247.696 297.535L249.158 294.784C249.268 294.569 249.287 294.324 249.212 294.097C249.138 293.87 248.974 293.677 248.754 293.556L243.886 290.94C243.664 290.825 243.404 290.792 243.156 290.847C242.909 290.901 242.692 291.04 242.549 291.236L236.96 299.067C236.859 299.199 236.732 299.312 236.585 299.398L242.847 302.758L247.696 297.535Z" fill="white"/>
<path opacity="0.4" d="M204.098 331.332C203.949 331.533 203.767 331.711 203.559 331.86L196.652 336.385C196.468 336.516 196.314 336.681 196.2 336.869L200.414 339.136L209.581 334.28L204.098 331.332Z" fill="white"/>
<path opacity="0.4" d="M208.292 309.693C208.098 309.699 207.909 309.75 207.741 309.84C207.573 309.931 207.432 310.059 207.33 310.213L201.77 319.173C201.656 319.374 201.612 319.602 201.645 319.827L206.455 322.399L214.064 312.811L208.292 309.693Z" fill="white"/>
<path opacity="0.4" d="M220.914 297.024L226.84 300.214L233.574 296.63V294.067L229.841 292.096C229.742 292.054 229.634 292.038 229.526 292.047C229.418 292.056 229.314 292.092 229.225 292.15L221.664 296.209C221.335 296.408 221.074 296.691 220.914 297.024Z" fill="white"/>
<path opacity="0.4" d="M258.461 307.444C258.37 307.396 258.267 307.37 258.162 307.37C258.058 307.37 257.955 307.396 257.864 307.444L251.13 310.267C251.023 310.314 250.907 310.339 250.788 310.339C250.67 310.34 250.553 310.316 250.446 310.27C250.339 310.224 250.244 310.156 250.167 310.072C250.091 309.988 250.035 309.889 250.005 309.783C249.756 309.026 249.434 308.291 249.043 307.588L254.141 305.446C254.232 305.404 254.333 305.383 254.435 305.383C254.536 305.383 254.637 305.404 254.728 305.446L258.461 307.444Z" fill="white"/>
</g>
<path d="M258.778 316.1V307.973C258.793 307.873 258.777 307.771 258.732 307.68C258.687 307.588 258.614 307.51 258.523 307.456C258.432 307.401 258.326 307.372 258.218 307.371C258.11 307.371 258.004 307.4 257.912 307.453L251.178 310.276C251.072 310.325 250.955 310.351 250.836 310.352C250.717 310.353 250.6 310.33 250.492 310.284C250.384 310.237 250.289 310.169 250.213 310.084C250.137 309.999 250.082 309.899 250.053 309.792C249.693 308.704 249.189 307.663 248.552 306.692C248.417 306.46 248.338 306.204 248.321 305.94C248.305 305.677 248.35 305.414 248.456 305.169L252.939 296.746C253.049 296.533 253.07 296.288 252.997 296.061C252.924 295.834 252.763 295.641 252.544 295.519L247.677 292.902C247.453 292.785 247.191 292.75 246.941 292.805C246.691 292.86 246.473 293 246.33 293.198L240.702 301.056C240.527 301.263 240.305 301.431 240.052 301.548C239.8 301.666 239.522 301.73 239.24 301.737C238.017 301.713 236.796 301.828 235.603 302.077C235.493 302.099 235.378 302.099 235.268 302.077C235.157 302.055 235.053 302.011 234.962 301.948C234.871 301.885 234.795 301.805 234.74 301.713C234.685 301.621 234.651 301.519 234.641 301.414L233.901 294.578C233.907 294.478 233.883 294.378 233.83 294.29C233.777 294.203 233.697 294.131 233.602 294.085C233.506 294.038 233.398 294.019 233.29 294.028C233.183 294.038 233.081 294.076 232.996 294.139L225.435 298.207C225.193 298.354 224.987 298.548 224.832 298.775C224.676 299.002 224.573 299.257 224.531 299.524L223.771 307.355C223.682 307.908 223.409 308.422 222.992 308.824C221.491 310.114 220.087 311.497 218.788 312.964C218.604 313.151 218.368 313.286 218.106 313.354C217.844 313.422 217.567 313.421 217.306 313.349L212.448 311.772C212.196 311.699 211.925 311.707 211.678 311.793C211.431 311.879 211.221 312.038 211.082 312.247L205.531 321.207C205.407 321.421 205.363 321.668 205.407 321.909C205.45 322.149 205.579 322.369 205.772 322.533L209.668 325.66C209.865 325.837 210.006 326.061 210.072 326.309C210.138 326.556 210.128 326.816 210.043 327.058C209.331 328.839 208.746 330.662 208.292 332.515C208.136 333.053 207.799 333.53 207.33 333.877L200.423 338.41C200.196 338.575 200.009 338.784 199.876 339.022C199.744 339.26 199.668 339.522 199.654 339.79V347.926C199.64 348.024 199.657 348.124 199.701 348.215C199.746 348.305 199.817 348.381 199.907 348.436C199.996 348.49 200.1 348.52 200.207 348.521C200.313 348.523 200.418 348.497 200.51 348.445L207.244 345.614C207.351 345.567 207.467 345.542 207.585 345.542C207.704 345.541 207.821 345.565 207.928 345.611C208.035 345.657 208.13 345.725 208.207 345.809C208.283 345.893 208.338 345.992 208.369 346.098C208.733 347.187 209.237 348.231 209.87 349.207C210.011 349.437 210.093 349.694 210.109 349.958C210.126 350.222 210.077 350.487 209.966 350.73L205.483 359.153C205.374 359.366 205.355 359.61 205.43 359.835C205.505 360.061 205.668 360.252 205.887 360.371L210.678 362.97C210.9 363.084 211.161 363.118 211.408 363.063C211.656 363.008 211.872 362.87 212.015 362.674L217.604 354.843C217.776 354.634 217.998 354.464 218.251 354.348C218.505 354.231 218.784 354.171 219.067 354.171C220.29 354.192 221.511 354.074 222.703 353.821C222.814 353.799 222.928 353.8 223.039 353.822C223.149 353.844 223.254 353.888 223.345 353.951C223.435 354.014 223.511 354.094 223.566 354.186C223.622 354.278 223.655 354.38 223.665 354.485L224.406 361.33C224.403 361.43 224.432 361.528 224.487 361.613C224.542 361.699 224.622 361.768 224.717 361.813C224.813 361.858 224.92 361.877 225.027 361.868C225.133 361.858 225.235 361.821 225.32 361.76L232.881 357.692C233.122 357.546 233.326 357.354 233.481 357.128C233.635 356.903 233.736 356.649 233.776 356.384L234.536 348.544C234.625 347.991 234.901 347.48 235.324 347.084C236.822 345.794 238.223 344.411 239.519 342.944C239.702 342.754 239.939 342.616 240.203 342.546C240.467 342.476 240.747 342.478 241.01 342.55L245.82 344.127C246.071 344.202 246.341 344.197 246.589 344.112C246.836 344.028 247.046 343.869 247.186 343.661L252.746 334.701C252.87 334.484 252.913 334.235 252.868 333.993C252.822 333.751 252.692 333.531 252.496 333.366L248.6 330.239C248.402 330.064 248.262 329.841 248.196 329.595C248.129 329.349 248.139 329.091 248.225 328.85C248.94 327.067 249.525 325.241 249.976 323.384C250.132 322.846 250.469 322.369 250.938 322.022L257.845 317.498C258.102 317.344 258.319 317.139 258.481 316.897C258.642 316.655 258.744 316.383 258.778 316.1ZM229.216 341.672C222.155 345.462 216.44 342.389 216.44 334.799C216.44 327.21 222.155 317.99 229.216 314.191C236.277 310.392 241.982 313.475 241.982 321.055C241.982 328.635 236.219 337.873 229.168 341.672H229.216Z" fill="#00CFC1"/>
<path d="M345.781 163.744H377.191V137.527C377.191 133.647 375.535 129.925 372.589 127.181C369.643 124.437 365.648 122.895 361.481 122.895C357.316 122.898 353.323 124.44 350.379 127.184C347.435 129.928 345.781 133.648 345.781 137.527V163.744Z" fill="#263238"/>
<path d="M355.661 156.63L333.179 157.436C332.4 156.809 327.946 151.863 327.946 151.863C327.946 151.863 315.728 150.403 315.661 150.815C315.594 151.227 327.676 163.278 328.869 164.488C329.21 164.897 329.648 165.227 330.149 165.452C330.649 165.678 331.199 165.792 331.755 165.787L352.332 166.988L355.661 156.63Z" fill="#FFA8A7"/>
<path d="M239.865 251.014L239.192 250.656C238.63 250.31 238.164 249.846 237.829 249.301C237.495 248.756 237.303 248.146 237.268 247.52V183.196C237.303 182.57 237.495 181.96 237.829 181.415C238.164 180.871 238.63 180.407 239.192 180.06L327.907 132.366C328.504 132.085 329.163 131.939 329.831 131.939C330.5 131.939 331.159 132.085 331.755 132.366L332.419 132.725C332.981 133.068 333.449 133.53 333.783 134.073C334.117 134.617 334.309 135.226 334.343 135.852V200.184C334.31 200.81 334.118 201.42 333.784 201.963C333.45 202.507 332.982 202.969 332.419 203.311L243.703 251.014C243.107 251.291 242.45 251.435 241.784 251.435C241.118 251.435 240.461 251.291 239.865 251.014Z" fill="#00CFC1"/>
<path opacity="0.4" d="M334.382 135.565C334.247 134.624 333.42 134.284 332.458 134.803L243.742 182.515C243.166 182.845 242.692 183.308 242.366 183.859L237.826 181.413C238.154 180.861 238.627 180.395 239.201 180.06L327.907 132.366C328.504 132.085 329.163 131.939 329.831 131.939C330.5 131.939 331.159 132.085 331.755 132.366L332.419 132.725C332.947 133.038 333.396 133.454 333.735 133.944C334.074 134.434 334.294 134.987 334.382 135.565Z" fill="white"/>
<path opacity="0.1" d="M243.386 251.158C242.819 251.368 242.21 251.465 241.599 251.44C240.989 251.415 240.391 251.27 239.846 251.014L239.163 250.656C238.601 250.31 238.135 249.846 237.801 249.301C237.467 248.756 237.274 248.146 237.239 247.52V183.196C237.255 182.563 237.45 181.944 237.806 181.404L242.347 183.85C241.998 184.393 241.803 185.01 241.779 185.642V249.984C241.799 251.006 242.501 251.489 243.386 251.158Z" fill="black"/>
<path d="M250.765 186.054L257.441 182.47C257.922 182.211 258.316 182.417 258.316 182.945V189.952C258.3 190.237 258.212 190.513 258.058 190.76C257.904 191.006 257.689 191.214 257.431 191.368L250.774 194.871C250.284 195.131 249.889 194.871 249.889 194.387V187.506C249.898 187.216 249.982 186.933 250.135 186.68C250.287 186.427 250.503 186.212 250.765 186.054Z" fill="#FAFAFA"/>
<path d="M256.575 190.346C256.489 190.398 256.389 190.426 256.286 190.426C256.184 190.426 256.084 190.398 255.998 190.346L253.968 188.913C253.689 188.725 253.727 188.187 254.045 187.721C254.362 187.255 254.843 187.031 255.113 187.228L256.556 188.241L260.548 180.248C260.798 179.747 261.269 179.415 261.616 179.496C261.962 179.576 262.02 180.06 261.779 180.553L257.219 189.674C257.094 189.94 256.891 190.166 256.633 190.328L256.575 190.346Z" fill="#37474F"/>
<path d="M250.765 201.286L257.441 197.702C257.922 197.443 258.316 197.702 258.316 198.177V205.184C258.3 205.469 258.212 205.745 258.058 205.992C257.904 206.238 257.689 206.446 257.431 206.6L250.774 210.112C250.284 210.363 249.889 210.112 249.889 209.628V202.738C249.898 202.448 249.982 202.165 250.135 201.912C250.287 201.659 250.503 201.444 250.765 201.286Z" fill="#FAFAFA"/>
<path d="M256.575 205.569C256.489 205.621 256.389 205.649 256.286 205.649C256.184 205.649 256.084 205.621 255.998 205.569L253.968 204.145C253.689 203.948 253.727 203.41 254.045 202.944C254.362 202.478 254.843 202.254 255.113 202.451L256.556 203.464L260.548 195.471C260.798 194.97 261.269 194.638 261.616 194.728C261.962 194.817 262.02 195.283 261.779 195.785L257.219 204.906C257.094 205.169 256.89 205.393 256.633 205.551L256.575 205.569Z" fill="#37474F"/>
<path d="M250.765 216.509L257.441 212.925C257.922 212.657 258.316 212.872 258.316 213.391V220.416C258.299 220.699 258.209 220.974 258.055 221.219C257.902 221.463 257.688 221.67 257.431 221.823L250.774 225.335C250.284 225.595 249.889 225.38 249.889 224.851V217.961C249.898 217.671 249.982 217.388 250.135 217.135C250.287 216.882 250.503 216.667 250.765 216.509Z" fill="#FAFAFA"/>
<path d="M256.575 220.792C256.491 220.849 256.39 220.88 256.286 220.88C256.183 220.88 256.082 220.849 255.998 220.792L253.968 219.368C253.689 219.18 253.727 218.642 254.045 218.176C254.362 217.71 254.843 217.486 255.113 217.674L256.556 218.687L260.548 210.694C260.798 210.202 261.269 209.861 261.616 209.951C261.962 210.04 262.02 210.506 261.779 211.008L257.219 220.129C257.094 220.395 256.891 220.621 256.633 220.783L256.575 220.792Z" fill="#37474F"/>
<path d="M250.765 231.777L257.441 228.193C257.922 227.933 258.316 228.193 258.316 228.668V235.648C258.299 235.931 258.209 236.206 258.055 236.451C257.902 236.695 257.688 236.902 257.431 237.055L250.774 240.567C250.284 240.827 249.889 240.612 249.889 240.083V233.193C249.904 232.909 249.991 232.633 250.144 232.387C250.296 232.141 250.509 231.932 250.765 231.777Z" fill="#FAFAFA"/>
<path d="M256.575 236.06C256.491 236.117 256.39 236.148 256.286 236.148C256.183 236.148 256.082 236.117 255.998 236.06L253.968 234.636C253.689 234.438 253.727 233.91 254.045 233.435C254.362 232.96 254.843 232.754 255.113 232.942L256.556 233.955L260.548 225.962C260.798 225.469 261.269 225.129 261.616 225.219C261.962 225.308 262.02 225.774 261.779 226.276L257.219 235.397C257.094 235.66 256.89 235.884 256.633 236.042L256.575 236.06Z" fill="#37474F"/>
<path d="M266.57 179.505C266.57 180.347 267.359 180.607 268.331 180.087L293.699 166.441C294.178 166.184 294.587 165.827 294.892 165.398C295.198 164.969 295.392 164.479 295.459 163.968C295.459 163.126 294.67 162.857 293.699 163.386L268.331 177.023C267.85 177.281 267.441 177.639 267.136 178.07C266.83 178.501 266.637 178.992 266.57 179.505Z" fill="#455A64"/>
<path d="M266.57 184.63C266.57 185.481 267.359 185.741 268.331 185.221L322.587 156.083C323.068 155.826 323.478 155.467 323.783 155.037C324.089 154.606 324.282 154.114 324.348 153.601C324.348 152.759 323.559 152.499 322.587 153.019L268.331 182.157C267.851 182.413 267.442 182.77 267.137 183.2C266.831 183.629 266.637 184.119 266.57 184.63Z" fill="#F0F0F0"/>
<path d="M266.57 194.432C266.57 195.274 267.359 195.543 268.331 195.014L293.699 181.377C294.179 181.119 294.588 180.761 294.894 180.33C295.199 179.899 295.393 179.408 295.459 178.895C295.459 178.053 294.67 177.793 293.699 178.313L268.331 191.923C267.846 192.183 267.434 192.546 267.129 192.982C266.823 193.418 266.631 193.914 266.57 194.432Z" fill="#455A64"/>
<path d="M266.57 199.53C266.57 200.373 267.359 200.632 268.331 200.113L322.587 170.975C323.067 170.718 323.476 170.361 323.781 169.932C324.087 169.503 324.281 169.013 324.348 168.502C324.348 167.66 323.559 167.391 322.587 167.919L268.331 197.048C267.85 197.306 267.441 197.665 267.136 198.096C266.83 198.526 266.637 199.018 266.57 199.53Z" fill="#F0F0F0"/>
<path d="M266.57 210.237C266.57 211.133 267.359 211.349 268.331 210.82L293.699 197.183C294.179 196.925 294.589 196.567 294.894 196.136C295.2 195.705 295.393 195.214 295.459 194.701C295.459 193.859 294.67 193.599 293.699 194.118L268.331 207.765C267.851 208.021 267.442 208.378 267.137 208.807C266.831 209.237 266.637 209.726 266.57 210.237Z" fill="#455A64"/>
<path d="M266.57 215.372C266.57 216.214 267.359 216.474 268.331 215.954L322.587 186.816C323.067 186.56 323.476 186.203 323.781 185.773C324.087 185.344 324.281 184.854 324.348 184.343C324.348 183.501 323.559 183.232 322.587 183.761L268.331 212.899C267.851 213.155 267.442 213.512 267.137 213.941C266.831 214.371 266.637 214.86 266.57 215.372Z" fill="#F0F0F0"/>
<path d="M266.57 226.079C266.57 226.975 267.359 227.19 268.331 226.67L293.699 213.024C294.178 212.768 294.587 212.411 294.892 211.981C295.198 211.552 295.392 211.062 295.459 210.551C295.459 209.655 294.67 209.44 293.699 209.96L268.331 223.606C267.851 223.862 267.442 224.219 267.137 224.649C266.831 225.078 266.637 225.568 266.57 226.079Z" fill="#455A64"/>
<path d="M266.57 231.213C266.57 232.055 267.359 232.324 268.331 231.795L322.587 202.666C323.067 202.407 323.475 202.048 323.78 201.618C324.086 201.187 324.28 200.697 324.348 200.184C324.348 199.342 323.559 199.082 322.587 199.602L268.331 228.74C267.851 228.996 267.442 229.353 267.137 229.783C266.831 230.212 266.637 230.702 266.57 231.213Z" fill="#F0F0F0"/>
<path d="M345.493 298.888C343.697 300.68 341.719 302.307 339.586 303.744C339.248 303.947 338.965 304.22 338.759 304.541C338.48 305.088 338.037 306.432 340.683 307.301C342.03 307.735 343.462 307.894 344.881 307.767C346.3 307.64 347.673 307.231 348.908 306.566C351.092 305.285 351.197 302.633 353.256 301.119C354.786 299.999 356.7 299.712 357.931 298.252C358.797 297.23 358.566 295.868 358.124 294.193C357.633 292.356 357.402 290.967 356.758 291.11L356.863 291.953C356.046 293.162 351.832 293.521 349.956 292.687C348.586 294.825 347.096 296.895 345.493 298.888Z" fill="#263238"/>
<path d="M343.646 300.608C344.292 300.07 344.908 299.502 345.493 298.906C346.745 297.4 347.896 295.823 348.937 294.184C349.661 293.193 350.001 292.001 349.899 290.806C349.754 289.533 349.379 286.281 349.379 286.281L356.055 285.842L356.835 291.944C356.998 293.324 355.767 294.551 353.593 296.298C351.418 298.045 348.658 302.113 346.695 303.135C344.733 304.156 343.318 304.12 342.482 303.592C341.645 303.063 341.51 302.624 343.646 300.608Z" fill="#FFA8A7"/>
<path d="M375.497 299.443V298.547C375.103 299.649 373.266 304.371 370.485 306.737C368.273 308.618 365.252 310.787 364.483 312.883C363.713 314.98 368.686 315.795 370.755 315.455C373.513 315.028 376.045 313.769 377.96 311.871C379.153 310.509 379.884 308.896 380.76 307.821C381.635 306.746 383.569 305.554 384.03 304.317C384.168 303.16 384.03 301.988 383.626 300.886C383.299 299.73 382.943 298.458 382.52 298.565V299.282C381.519 300.012 380.28 300.401 379.009 300.384C377.989 300.366 375.497 300.16 375.497 299.443Z" fill="#263238"/>
<path d="M368.446 308.349C369.139 307.785 369.831 307.221 370.457 306.692C372.381 305.034 373.881 302.212 374.737 300.321C375.22 299.23 375.468 298.061 375.469 296.881V293.153H382.491V299.264V299.425C382.145 300.787 378.932 304.398 377.094 306.755C375.873 308.332 373.535 310.339 370.755 310.688C367.975 311.037 366.763 310.213 368.446 308.349Z" fill="#FFA8A7"/>
<path d="M381.125 197.837C386.57 208.902 380.933 247.905 380.933 247.905C381.096 249.697 383.299 253.236 384.117 261.139C385.079 270.484 382.597 293.942 382.597 293.942C381.526 294.52 380.32 294.847 379.083 294.894C377.846 294.941 376.615 294.706 375.497 294.211C375.497 294.211 368.811 258.872 367.551 249.59C366.455 241.481 364.348 222.423 364.348 222.423L358.027 249.599C358.779 252.232 359.192 254.939 359.259 257.663C359.163 263.155 356.421 287.231 356.421 287.231C356.421 287.231 353.977 288.557 349.379 287.93C349.379 287.93 344.944 256.328 345.079 248.963C345.146 245.02 347.003 203.052 347.003 203.052L381.125 197.837Z" fill="#00CFC1"/>
<g opacity="0.15">
<path opacity="0.15" d="M364.348 222.423L362.578 213.373C362.578 213.373 355.103 211.931 351.717 208.956C354.059 211.512 357.121 213.408 360.558 214.431L362.539 222.351L358.951 245.647L364.348 222.423Z" fill="#263238"/>
</g>
<path d="M365.002 123.791L365.368 119.956C365.099 119.92 364.825 119.935 364.562 120.001C364.3 120.066 364.054 120.181 363.841 120.338C363.628 120.495 363.451 120.69 363.321 120.913C363.192 121.135 363.112 121.38 363.088 121.632C363.049 122.152 363.226 122.666 363.582 123.067C363.938 123.469 364.447 123.728 365.002 123.791Z" fill="#263238"/>
<path d="M365.223 124.177L368.552 121.901C368.402 121.686 368.207 121.502 367.978 121.361C367.749 121.219 367.492 121.122 367.221 121.077C366.951 121.032 366.673 121.038 366.406 121.097C366.138 121.155 365.886 121.264 365.666 121.417C365.228 121.738 364.939 122.202 364.856 122.715C364.774 123.228 364.905 123.751 365.223 124.177Z" fill="#263238"/>
<path d="M368.686 156.908C368.686 156.908 376.7 157.562 377.825 158.028C372.053 163.896 380.827 166.333 380.827 166.333L374.834 186.296C378.432 191.412 380.721 195.364 382.078 200.399C378.037 207.03 355.324 207.953 346.993 203.007C347.725 193.751 349.341 187.121 348.802 184.334C345.964 172.982 346.07 170.58 346.435 167.982C347.167 162.911 352.573 158.484 355.661 156.63H358.547L368.686 156.908Z" fill="#37474F"/>
<path d="M352.39 130.045C350.697 130.941 348.609 134.938 348.811 143.253C348.985 150.295 351.438 152.033 352.659 152.535C353.881 153.037 356.267 152.732 358.576 152.374V156.603C358.576 156.603 355.382 160.052 355.584 161.979C355.786 163.905 360.192 164.371 363.174 162.481C365.333 160.918 367.193 159.028 368.677 156.89L368.619 147.168C368.619 147.168 369.975 148.404 372.284 146.523C374.208 144.973 374.824 142.365 373.342 140.968C372.959 140.634 372.495 140.39 371.99 140.256C371.485 140.122 370.953 140.101 370.438 140.197C369.923 140.292 369.439 140.501 369.028 140.804C368.616 141.108 368.288 141.499 368.071 141.944C367.436 143.226 365.993 143.244 365.983 141.783C365.916 134.293 364.963 133.898 364.155 130.825C359.355 129.382 355.94 129.92 352.39 130.045Z" fill="#FFA8A7"/>
<path d="M357.258 141.478C357.252 141.596 357.27 141.714 357.313 141.825C357.355 141.936 357.421 142.038 357.506 142.125C357.591 142.212 357.693 142.283 357.807 142.334C357.922 142.384 358.046 142.413 358.172 142.419C358.298 142.425 358.424 142.408 358.544 142.368C358.663 142.329 358.772 142.268 358.866 142.188C358.96 142.109 359.036 142.014 359.09 141.908C359.144 141.801 359.176 141.686 359.182 141.568C359.188 141.45 359.17 141.333 359.127 141.222C359.085 141.111 359.019 141.009 358.934 140.921C358.849 140.834 358.747 140.763 358.633 140.713C358.518 140.662 358.394 140.633 358.268 140.627C358.142 140.621 358.015 140.639 357.896 140.678C357.777 140.718 357.667 140.779 357.574 140.858C357.48 140.937 357.404 141.032 357.35 141.139C357.295 141.245 357.264 141.361 357.258 141.478Z" fill="#263238"/>
<path d="M356.998 147.455L354.795 148.109C354.834 148.247 354.902 148.376 354.996 148.489C355.09 148.601 355.208 148.695 355.342 148.764C355.476 148.833 355.624 148.875 355.776 148.889C355.929 148.903 356.083 148.887 356.229 148.844C356.527 148.753 356.776 148.556 356.92 148.296C357.064 148.036 357.092 147.734 356.998 147.455Z" fill="#F28F8F"/>
<path d="M349.61 139.131L351.534 137.894C351.453 137.773 351.346 137.668 351.221 137.586C351.095 137.504 350.953 137.447 350.803 137.418C350.653 137.388 350.498 137.388 350.347 137.416C350.197 137.444 350.054 137.5 349.927 137.581C349.674 137.754 349.499 138.01 349.441 138.298C349.382 138.585 349.442 138.883 349.61 139.131Z" fill="#263238"/>
<path d="M360.029 139.418L358.104 138.172C358.185 138.052 358.292 137.948 358.417 137.867C358.542 137.786 358.684 137.73 358.833 137.701C358.982 137.673 359.136 137.673 359.285 137.701C359.435 137.73 359.576 137.786 359.701 137.868C359.957 138.039 360.133 138.295 360.194 138.582C360.254 138.87 360.195 139.169 360.029 139.418Z" fill="#263238"/>
<path d="M349.899 140.842C349.899 141.019 349.955 141.193 350.061 141.34C350.166 141.487 350.317 141.602 350.492 141.67C350.668 141.738 350.862 141.756 351.048 141.721C351.235 141.686 351.406 141.601 351.541 141.476C351.675 141.351 351.767 141.191 351.804 141.017C351.841 140.843 351.822 140.663 351.749 140.499C351.677 140.336 351.553 140.196 351.395 140.097C351.237 139.999 351.051 139.946 350.861 139.946C350.605 139.946 350.361 140.041 350.18 140.209C350 140.377 349.899 140.605 349.899 140.842Z" fill="#263238"/>
<path d="M354.391 140.332L354.237 145.663L351.226 144.794L354.391 140.332Z" fill="#F28F8F"/>
<path d="M358.585 152.374C361.019 152.078 366.022 150.743 366.801 148.897C366.487 149.83 365.873 150.65 365.04 151.245C363.549 152.445 358.585 153.789 358.585 153.789V152.374Z" fill="#F28F8F"/>
<path d="M357.402 123.872C355.667 123.872 353.949 124.191 352.346 124.811C350.743 125.43 349.288 126.338 348.063 127.483C346.837 128.627 345.867 129.986 345.206 131.48C344.546 132.975 344.208 134.576 344.213 136.192V137.778H350.668C352.12 137.779 353.524 137.289 354.617 136.399C355.711 135.509 356.42 134.28 356.613 132.94L356.854 137.778C358.045 137.77 359.19 137.35 360.068 136.6C360.946 135.85 361.494 134.824 361.606 133.719L361.683 132.931C361.797 134.251 362.44 135.482 363.485 136.38C364.529 137.279 365.899 137.778 367.32 137.778H367.898L368.552 129.105L357.402 123.872Z" fill="#263238"/>
<path d="M372.573 161.28C370.784 163.753 360.577 184.576 360.577 184.576C360.577 184.576 345.185 183.608 338.682 182.963C336.633 182.757 337.085 180.714 336.267 178.689C335.449 176.664 334.401 177.059 334.401 177.059V179.747C334.468 181.539 331.245 182.542 329.86 183.044C327.59 183.868 325.098 184.388 322.751 185.069C321.927 185.214 321.188 185.635 320.673 186.252C320.499 186.563 320.413 186.912 320.425 187.263C320.437 187.615 320.545 187.957 320.74 188.259C321.303 189.11 322.074 189.826 322.99 190.347C323.906 190.869 324.942 191.182 326.012 191.26C328.629 191.556 331.168 190.857 333.708 190.427C336.719 189.934 339.018 189.531 342.001 189.898C344.983 190.266 348.6 190.991 351.438 191.475C355.076 192.063 358.747 192.458 362.433 192.658C364.482 192.748 365.974 192.371 367.744 190.042C369.514 187.712 379.288 168.959 379.288 168.959C383.357 163.583 381.019 159.031 377.999 158.072C376.142 157.499 374.372 158.843 372.573 161.28Z" fill="#FFA8A7"/>
<path d="M310.457 141.245C311.233 141.342 311.997 141.514 312.737 141.756C314.634 142.358 316.255 143.543 317.335 145.116C317.803 145.892 318.002 146.784 317.903 147.67C317.874 147.902 317.799 148.127 317.681 148.333C317.411 148.687 317.042 148.966 316.613 149.139C315.935 149.573 315.134 149.811 314.311 149.823C313.489 149.836 312.68 149.623 311.986 149.211C310.106 148.196 308.121 147.362 306.06 146.72C305.02 146.42 303.944 146.242 302.857 146.191C302.23 146.206 301.626 146.411 301.135 146.774C300.963 146.375 300.913 145.94 300.989 145.517C301.066 145.093 301.266 144.697 301.568 144.373C302.632 143.031 304.134 142.047 305.849 141.568C307.34 141.144 308.914 141.033 310.457 141.245Z" fill="#FFA8A7"/>
<path d="M140.269 202.962C145.843 202.962 150.361 198.754 150.361 193.563C150.361 188.372 145.843 184.164 140.269 184.164C134.696 184.164 130.178 188.372 130.178 193.563C130.178 198.754 134.696 202.962 140.269 202.962Z" fill="#263238"/>
<path d="M116.113 363.857H123.223V352.531H116.113V363.857Z" fill="#FFA8A7"/>
<path d="M140.75 351.922L147.85 352.146L148.206 340.157L140.75 339.933V351.922Z" fill="#FFA8A7"/>
<path d="M116.585 255.432C116.585 261.748 115.709 307.337 115.709 307.337C115.546 309.129 113.708 312.507 114.112 319.496C114.642 328.984 115.815 358.194 115.815 358.194C117.042 358.754 118.386 359.058 119.752 359.083C121.118 359.107 122.474 358.853 123.723 358.337C123.723 358.337 129.995 319.531 131.265 310.123C132.381 301.925 134.266 279.659 134.266 279.659L138.114 306.441C137.293 309.891 136.998 313.433 137.239 316.96C137.566 321.306 140.308 348.239 140.308 348.239C141.544 348.891 142.919 349.282 144.336 349.382C145.753 349.483 147.176 349.292 148.504 348.822C148.504 348.822 152.102 310.437 152.179 306.441C152.275 301.898 149.812 255.459 149.812 255.459L116.585 255.432Z" fill="#37474F"/>
<path d="M148.841 216.966C153.006 220.156 160.529 226.634 160.529 226.634L148.793 232.646L141.327 214.001C141.327 214.001 144.3 213.463 148.841 216.966Z" fill="#00CFC1"/>
<path opacity="0.1" d="M148.841 216.966C153.006 220.156 160.529 226.634 160.529 226.634L148.793 232.646L141.327 214.001C141.327 214.001 144.3 213.463 148.841 216.966Z" fill="black"/>
<path d="M118.999 218.543C118.999 218.543 116.344 221.025 116.344 227.028V239.994L116.142 264.481C126.339 269.49 139.23 269.777 150.091 262.376C150.091 262.376 149.572 230.908 149.572 225.747C149.572 220.586 146.493 213.893 138.028 213.436L127.071 215.811L118.999 218.543Z" fill="#00CFC1"/>
<path d="M122.838 200.238C122.838 200.238 124.473 207.406 125.127 208.571C125.564 209.295 126.285 209.834 127.138 210.076L127.022 205.05L122.838 200.238Z" fill="#263238"/>
<path d="M124.887 189.997C124.317 189.933 123.738 189.992 123.196 190.169C122.654 190.346 122.163 190.636 121.76 191.018C120.414 192.3 121.164 196.314 122.838 200.238L125.916 200.57L124.887 189.997Z" fill="#263238"/>
<path d="M126.84 200.57C126.224 200.919 125.339 199.808 124.579 199.073C123.819 198.339 121.337 197.281 120.096 199.745C118.855 202.209 121.212 205.507 123.136 206.08C126.503 207.066 126.984 205.059 126.984 205.059L127.244 216.384C127.244 216.384 130.13 220.864 137.624 221.939C141.472 222.495 142.376 219.036 138.211 216.088V212.639C139.715 212.862 141.24 212.934 142.761 212.854C145.243 212.495 146.801 210.676 147.571 208.177C148.783 204.163 149.235 200.919 148.215 193.016C147.09 184.361 136.277 184.271 130.438 187.694C124.598 191.117 126.84 200.57 126.84 200.57Z" fill="#FFA8A7"/>
<path d="M126.84 201.537C126.532 201.537 125.349 199.745 124.579 199.073C123.511 198.177 124.887 189.997 124.887 189.997C124.609 189.288 124.558 188.52 124.741 187.784C124.924 187.049 125.332 186.38 125.916 185.857C127.378 184.37 129.812 184.2 133.978 183.59C136.161 183.268 139.471 182.694 141.674 182.327C144.271 181.87 146.426 181.431 148.273 182.883C148.991 183.467 149.498 184.243 149.726 185.106C149.953 185.969 149.889 186.875 149.543 187.703C149.353 188.079 149.103 188.426 148.802 188.733C148.31 189.286 147.665 189.701 146.936 189.934C146.936 189.934 145.801 190.875 141.847 191.323C138.199 191.577 134.534 191.511 130.899 191.126C129.755 190.982 129.514 192.022 128.898 194.835C128.331 197.317 127.879 201.519 126.84 201.537Z" fill="#263238"/>
<path d="M124.896 190.633L121.212 188.76C121.329 188.524 121.496 188.312 121.704 188.138C121.911 187.963 122.155 187.83 122.419 187.746C122.684 187.662 122.964 187.63 123.243 187.65C123.522 187.67 123.793 187.743 124.04 187.864C124.539 188.133 124.907 188.572 125.067 189.088C125.227 189.604 125.165 190.158 124.896 190.633Z" fill="#263238"/>
<path d="M138.239 212.63C138.239 212.63 132.708 211.59 130.774 210.632C129.637 210.08 128.705 209.221 128.1 208.168C128.39 209.221 128.907 210.209 129.62 211.071C131.034 212.755 138.278 214.001 138.278 214.001L138.239 212.63Z" fill="#F28F8F"/>
<path d="M136.912 199.279C136.904 199.484 136.832 199.681 136.705 199.848C136.577 200.014 136.4 200.141 136.195 200.214C135.99 200.287 135.766 200.302 135.552 200.258C135.338 200.213 135.143 200.11 134.991 199.963C134.839 199.815 134.737 199.629 134.698 199.428C134.659 199.227 134.685 199.019 134.772 198.832C134.859 198.644 135.003 198.484 135.187 198.373C135.371 198.261 135.586 198.202 135.806 198.204C135.954 198.206 136.101 198.236 136.237 198.292C136.373 198.347 136.496 198.427 136.599 198.527C136.702 198.627 136.783 198.745 136.836 198.874C136.89 199.003 136.916 199.141 136.912 199.279Z" fill="#263238"/>
<path d="M135.738 195.382L133.362 196.6C133.272 196.449 133.214 196.283 133.193 196.111C133.171 195.939 133.187 195.765 133.238 195.598C133.288 195.432 133.374 195.277 133.49 195.141C133.605 195.005 133.748 194.892 133.91 194.808C134.07 194.729 134.245 194.682 134.425 194.668C134.605 194.654 134.786 194.675 134.957 194.729C135.128 194.782 135.285 194.868 135.42 194.98C135.554 195.092 135.662 195.229 135.738 195.382Z" fill="#263238"/>
<path d="M137.739 206.42L140.269 207.316C140.214 207.474 140.126 207.619 140.009 207.744C139.892 207.869 139.75 207.971 139.59 208.044C139.43 208.116 139.257 208.158 139.079 208.167C138.902 208.176 138.724 208.152 138.557 208.096C138.213 207.971 137.934 207.726 137.782 207.413C137.629 207.1 137.614 206.744 137.739 206.42Z" fill="#F28F8F"/>
<path d="M146.801 196.224L144.637 194.674C144.738 194.531 144.87 194.41 145.025 194.318C145.179 194.226 145.353 194.166 145.534 194.14C145.716 194.115 145.901 194.125 146.078 194.171C146.255 194.217 146.419 194.296 146.561 194.405C146.842 194.622 147.024 194.932 147.069 195.27C147.114 195.608 147.018 195.949 146.801 196.224Z" fill="#263238"/>
<path d="M146.137 198.993C146.128 199.196 146.054 199.393 145.926 199.558C145.797 199.723 145.619 199.85 145.414 199.921C145.209 199.993 144.986 200.006 144.772 199.961C144.559 199.915 144.365 199.812 144.214 199.664C144.063 199.516 143.962 199.33 143.924 199.129C143.886 198.928 143.912 198.721 143.999 198.534C144.086 198.347 144.23 198.188 144.414 198.077C144.597 197.965 144.812 197.907 145.031 197.908C145.331 197.918 145.616 198.037 145.823 198.24C146.03 198.442 146.143 198.713 146.137 198.993Z" fill="#263238"/>
<path d="M140.49 198.007L140.846 204.225L144.329 203.114L140.49 198.007Z" fill="#F28F8F"/>
<path d="M123.223 360.586V359.645C123.906 359.923 125.483 365.532 128.302 367.924C130.543 369.833 133.603 372.028 134.382 374.152C135.161 376.275 130.12 377.574 128.023 377.234C125.599 376.831 121.376 375.236 120.327 373.757C119.278 372.279 118.778 370.093 117.912 369.009C117.047 367.924 115.026 366.715 114.603 365.425C114.464 364.255 114.606 363.07 115.017 361.957C115.344 360.783 115.7 359.502 116.133 359.61V360.326C117.141 361.072 118.396 361.468 119.682 361.446C120.712 361.518 123.232 361.33 123.223 360.586Z" fill="#263238"/>
<path d="M147.927 350.112C148.302 350.112 148.6 350.605 149.408 351.429C150.628 352.569 152.042 353.514 153.593 354.225C156.248 355.47 161.424 357.379 163.761 358.355C165.233 358.973 165.156 360.622 163.646 361.554C162.136 362.486 158.49 363.167 154.103 362.253C151.717 361.751 148.61 359.699 146.638 359.816C144.666 359.932 140.991 359.896 139.538 358.964C138.086 358.033 138.672 356.044 139.086 354.332C139.529 352.46 140.048 349.556 140.75 349.682V350.336C141.606 351.537 146.012 352.029 147.888 351.142L147.927 350.112Z" fill="#263238"/>
<path d="M134.266 279.633C137.937 278.563 141.312 276.758 144.156 274.346C144.156 274.346 142.232 277.679 136.575 280.771L137.787 304.12L134.266 279.633Z" fill="#263238"/>
<path d="M143.126 304.703L142.453 304.344C141.892 303.997 141.426 303.533 141.092 302.989C140.758 302.444 140.565 301.835 140.529 301.208V236.884C140.565 236.258 140.758 235.649 141.092 235.104C141.426 234.56 141.892 234.095 142.453 233.748L202.27 201.6C202.867 201.322 203.526 201.177 204.194 201.177C204.862 201.177 205.521 201.322 206.118 201.6L206.792 201.967C207.353 202.311 207.82 202.774 208.154 203.317C208.489 203.86 208.681 204.469 208.715 205.094V269.427C208.679 270.052 208.487 270.661 208.152 271.204C207.818 271.747 207.352 272.209 206.792 272.554L146.974 304.721C146.375 304.996 145.716 305.138 145.048 305.135C144.38 305.132 143.722 304.984 143.126 304.703Z" fill="#F5F5F5"/>
<path d="M175.786 227.817C186.147 222.244 194.555 226.769 194.555 237.915C194.555 249.061 186.147 262.618 175.786 268.191C165.426 273.764 157.008 269.248 157.008 258.102C157.008 246.956 165.464 233.399 175.786 227.817Z" fill="#455A64"/>
<path d="M175.652 236.598C179.009 234.806 181.741 236.248 181.741 239.868C181.631 241.842 181.022 243.763 179.964 245.476C178.906 247.188 177.428 248.644 175.652 249.724C172.285 251.516 169.562 250.074 169.562 246.454C169.672 244.48 170.281 242.559 171.339 240.846C172.397 239.133 173.875 237.678 175.652 236.598Z" fill="#00CFC1"/>
<path d="M187.648 255.88C187.648 249.939 183.174 247.529 177.643 250.504L174.189 252.358C168.667 255.333 164.185 262.555 164.185 268.486V270.09C167.378 271.076 171.4 270.538 175.786 268.182C180.583 265.428 184.64 261.689 187.648 257.251V255.88Z" fill="#00CFC1"/>
<path d="M208.754 204.79C208.619 203.849 207.792 203.508 206.83 204.028L147.013 236.204C146.439 236.536 145.966 236.998 145.637 237.548L141.097 235.101C141.425 234.549 141.898 234.084 142.472 233.748L202.27 201.6C202.866 201.318 203.525 201.17 204.194 201.17C204.863 201.17 205.522 201.318 206.118 201.6L206.792 201.958C207.317 202.272 207.764 202.687 208.102 203.176C208.441 203.664 208.663 204.215 208.754 204.79Z" fill="#FAFAFA"/>
<path d="M146.676 304.846C146.107 305.057 145.497 305.153 144.885 305.128C144.273 305.104 143.674 304.959 143.126 304.703L142.443 304.344C141.882 303.997 141.416 303.533 141.082 302.989C140.748 302.444 140.555 301.835 140.519 301.208V236.884C140.535 236.251 140.731 235.633 141.087 235.092L145.628 237.539C145.279 238.082 145.084 238.698 145.06 239.331V303.672C145.06 304.694 145.762 305.178 146.676 304.846Z" fill="#E0E0E0"/>
<path d="M155.151 288.664C155.151 290.456 156.527 291.236 158.23 290.322L193.362 271.488C194.259 270.945 195.005 270.212 195.54 269.349C196.074 268.487 196.383 267.519 196.44 266.524C196.44 264.732 195.065 263.953 193.362 264.867L158.259 283.745C157.365 284.283 156.619 285.008 156.08 285.862C155.54 286.716 155.222 287.676 155.151 288.664Z" fill="#00CFC1"/>
<path d="M107.6 257.295C103.954 254.93 104.002 251.418 105.166 247.439C113.102 220.111 115.536 219.959 118.999 218.579L121.78 229.331L114.363 251.731C119.331 255.129 124.97 257.58 130.957 258.944C132.204 259.139 133.485 259.012 134.661 258.577C136.921 257.394 138.191 257.394 140.51 256.785V260.315C142.582 260.559 144.684 260.492 146.734 260.118C151.544 259.284 153.631 260.216 150.697 265.324C148.86 268.522 145.291 269.58 136.344 268.146C133.084 267.571 129.87 266.79 126.724 265.807C119.982 263.749 113.554 260.888 107.6 257.295Z" fill="#FFA8A7"/>
<path d="M118.999 218.543C118.999 218.543 122.414 220.541 123.146 225.55C123.877 230.559 118.701 244.187 118.701 244.187C118.701 244.187 110.341 243.443 106.878 239.608C106.878 239.608 111.688 227.145 112.65 224.331C113.066 222.931 113.872 221.657 114.987 220.641C116.103 219.624 117.487 218.9 118.999 218.543Z" fill="#00CFC1"/>
<path opacity="0.1" d="M118.999 218.543C118.999 218.543 122.414 220.541 123.146 225.55C123.877 230.559 118.701 244.187 118.701 244.187C118.701 244.187 110.341 243.443 106.878 239.608C106.878 239.608 111.688 227.145 112.65 224.331C113.066 222.931 113.872 221.657 114.987 220.641C116.103 219.624 117.487 218.9 118.999 218.543Z" fill="black"/>
<path d="M208.754 220.3V224.287C208.754 224.287 206.445 227.557 203.944 228.767C201.443 229.976 201.481 234.806 204.569 235.487C207.657 236.168 211.909 232.611 212.265 230.657C212.621 228.704 211.861 220.093 208.754 220.3Z" fill="#FFA8A7"/>
</svg>
