<svg width="481" height="481" viewBox="0 0 481 481" fill="none" xmlns="http://www.w3.org/2000/svg">
<path d="M92.4578 417.595C175.017 458.104 308.908 458.104 391.419 417.595C473.929 377.085 473.968 311.39 391.419 270.88C308.869 230.37 175.017 230.36 92.4578 270.88C9.89898 311.399 9.89898 377.104 92.4578 417.595Z" fill="#F5F5F5"/>
<path d="M138.634 412.294C163.445 412.294 183.559 402.707 183.559 390.88C183.559 379.053 163.445 369.466 138.634 369.466C113.822 369.466 93.7084 379.053 93.7084 390.88C93.7084 402.707 113.822 412.294 138.634 412.294Z" fill="#E0E0E0"/>
<path d="M364.608 349.302C389.419 349.302 409.533 339.715 409.533 327.888C409.533 316.061 389.419 306.474 364.608 306.474C339.796 306.474 319.682 316.061 319.682 327.888C319.682 339.715 339.796 349.302 364.608 349.302Z" fill="#E0E0E0"/>
<path d="M194.093 235.69L155.988 257.691C154.437 258.702 153.337 260.274 152.92 262.078L143.453 316.748C143.348 317.6 143.485 318.465 143.849 319.243C144.213 320.021 144.79 320.68 145.512 321.145L170.082 335.324C170.874 335.727 171.751 335.937 172.641 335.937C173.53 335.937 174.407 335.727 175.199 335.324L227.705 305.012C228.479 304.603 229.126 303.991 229.577 303.242C230.028 302.492 230.267 301.634 230.267 300.76C230.267 299.885 230.028 299.027 229.577 298.278C229.126 297.529 228.479 296.917 227.705 296.508L208.812 285.599C208.048 285.106 207.396 284.459 206.899 283.698C206.401 282.937 206.07 282.08 205.926 281.183L201.722 239.932C201.6 239.062 201.296 238.226 200.83 237.481C200.365 236.735 199.747 236.095 199.019 235.603C198.248 235.233 197.401 235.047 196.546 235.062C195.69 235.078 194.851 235.292 194.093 235.69Z" fill="#263238"/>
<path d="M172.641 325.724V335.95C173.532 335.963 174.412 335.751 175.199 335.334L227.705 305.021C228.436 304.563 229.048 303.939 229.492 303.201C229.937 302.462 230.201 301.629 230.264 300.769C230.214 299.765 229.862 298.8 229.254 297.999H220.664L172.641 325.724Z" fill="#455A64"/>
<path d="M198.894 238.48L160.789 260.471C159.238 261.485 158.141 263.061 157.73 264.867L149.11 314.487C149.003 315.34 149.14 316.205 149.504 316.983C149.868 317.761 150.446 318.42 151.169 318.884L170.062 329.793C170.857 330.191 171.733 330.399 172.621 330.399C173.51 330.399 174.386 330.191 175.18 329.793L227.705 299.471C229.12 298.653 229.12 297.335 227.705 296.517L208.812 285.608C208.048 285.116 207.396 284.468 206.899 283.708C206.401 282.947 206.07 282.09 205.926 281.193L201.722 239.942C201.73 239.61 201.645 239.282 201.476 238.997C201.306 238.711 201.06 238.479 200.765 238.326C200.47 238.173 200.138 238.107 199.807 238.134C199.476 238.161 199.16 238.281 198.894 238.48Z" fill="#263238"/>
<path d="M227.705 296.517L208.812 285.608C208.055 285.13 207.414 284.489 206.936 283.732L149.495 316.902C149.84 317.722 150.432 318.415 151.188 318.884L170.082 329.793C170.876 330.191 171.752 330.399 172.641 330.399C173.529 330.399 174.405 330.191 175.2 329.793L227.705 299.471C229.12 298.653 229.12 297.335 227.705 296.517Z" fill="#37474F"/>
<path d="M73.0062 344.396L70.5723 342.991C69.5276 342.311 68.6582 341.393 68.0347 340.314C67.4112 339.234 67.0513 338.022 66.9841 336.777V173.16C67.0519 171.918 67.4123 170.709 68.0359 169.632C68.6595 168.556 69.5285 167.642 70.5723 166.965L270.476 52.1981C271.587 51.636 272.814 51.3431 274.059 51.3431C275.304 51.3431 276.532 51.636 277.643 52.1981L279.509 53.2756C280.553 53.9541 281.421 54.87 282.043 55.9484C282.665 57.0269 283.023 58.2372 283.088 59.4805V223.184C283.021 224.427 282.662 225.636 282.04 226.714C281.418 227.792 280.551 228.709 279.509 229.389L80.1731 344.396C79.0629 344.96 77.8351 345.255 76.5896 345.255C75.3442 345.255 74.1164 344.96 73.0062 344.396Z" fill="#455A64"/>
<path d="M81.3948 177.374L68.0423 169.678C67.3934 170.745 67.0291 171.96 66.9841 173.208V336.815C67.0513 338.061 67.4112 339.272 68.0347 340.352C68.6582 341.432 69.5276 342.349 70.5723 343.03L73.0062 344.396C74.1164 344.96 75.3442 345.255 76.5896 345.255C77.8351 345.255 79.0629 344.96 80.1731 344.396L81.3948 343.694V177.374Z" fill="#263238"/>
<path d="M76.5945 342.366V178.74C76.6621 177.497 77.0213 176.288 77.643 175.21C78.2647 174.132 79.1314 173.215 80.1731 172.535L279.509 57.4506C281.491 56.3059 283.088 57.2294 283.088 59.5189V223.184C283.021 224.427 282.662 225.636 282.04 226.714C281.419 227.792 280.551 228.709 279.509 229.389L80.1731 344.396C78.201 345.579 76.5945 344.646 76.5945 342.366Z" fill="#37474F"/>
<path d="M170.197 281.375L189.081 270.466C190.495 269.649 191.65 270.235 191.65 271.765C191.585 272.625 191.319 273.459 190.873 274.197C190.426 274.936 189.813 275.559 189.081 276.017L170.197 286.916C168.783 287.734 167.638 287.157 167.638 285.627C167.701 284.768 167.966 283.935 168.41 283.196C168.855 282.457 169.467 281.834 170.197 281.375Z" fill="#E0E0E0"/>
<path d="M85.7719 177.537L273.506 68.8311C274.632 68.1769 275.546 68.6964 275.546 70.0047V212.602C275.508 213.312 275.304 214.004 274.95 214.62C274.595 215.237 274.101 215.762 273.506 216.152L85.7815 324.56C84.6464 325.214 83.7325 324.685 83.7325 323.386V181.087C83.77 180.377 83.9741 179.685 84.3284 179.069C84.6827 178.452 85.1772 177.927 85.7719 177.537Z" fill="white"/>
<path d="M92.7753 180.269L265.012 80.808C268.138 79.0091 270.697 80.4809 270.697 84.0884V207.946C270.646 208.861 270.381 209.751 269.924 210.545C269.466 211.338 268.828 212.013 268.061 212.515L91.7556 314.285C90.3029 315.132 89.1197 314.439 89.1197 312.765V186.628C89.1873 185.356 89.5535 184.117 90.1885 183.012C90.8236 181.908 91.7097 180.968 92.7753 180.269Z" fill="#E6E6E6"/>
<path d="M163.396 158.643L258.316 103.838V122.905L163.396 177.701V158.643Z" fill="#F5F5F5"/>
<path d="M163.396 185.252L258.316 130.447V178.201L163.396 233.006V185.252Z" fill="#F0F0F0"/>
<path d="M270.697 87.0899V84.1173C270.697 80.5098 268.138 79.0379 265.012 80.8369L92.8138 180.269C91.7508 180.966 90.8662 181.903 90.2313 183.004C89.5963 184.105 89.2288 185.34 89.1582 186.609V191.909L270.697 87.0899Z" fill="#00CFC1"/>
<path d="M246.859 93.8431C246.295 94.2195 245.828 94.7228 245.493 95.3125C245.159 95.9022 244.968 96.562 244.935 97.239C244.935 98.4896 245.81 98.9898 246.859 98.3645C247.423 97.9907 247.891 97.4894 248.225 96.9011C248.559 96.3128 248.75 95.6541 248.783 94.9783C248.821 93.7277 247.946 93.2274 246.859 93.8431Z" fill="white"/>
<path d="M254.632 89.3602C254.067 89.7355 253.599 90.2385 253.264 90.8284C252.93 91.4184 252.739 92.0787 252.708 92.756C252.708 93.997 253.583 94.5069 254.632 93.8816C255.194 93.5061 255.661 93.0044 255.995 92.4165C256.329 91.8285 256.521 91.1707 256.556 90.4953C256.585 89.2447 255.709 88.7349 254.632 89.3602Z" fill="white"/>
<path d="M262.395 84.8773C261.833 85.2527 261.366 85.7544 261.032 86.3424C260.698 86.9303 260.506 87.5882 260.471 88.2635C260.471 89.5141 261.347 90.024 262.395 89.3987C262.96 89.0234 263.428 88.5204 263.763 87.9304C264.097 87.3405 264.288 86.6801 264.319 86.0028C264.358 84.7618 263.482 84.252 262.395 84.8773Z" fill="white"/>
<path d="M97.3641 259.74C97.1886 259.739 97.0164 259.692 96.8638 259.605C96.7093 259.517 96.5807 259.39 96.4912 259.236C96.4017 259.082 96.3543 258.908 96.354 258.73V196.777C96.3482 196.599 96.3919 196.423 96.4802 196.269C96.5685 196.114 96.698 195.987 96.8542 195.902L150.418 164.868C150.574 164.78 150.75 164.734 150.928 164.734C151.107 164.734 151.282 164.78 151.438 164.868C151.593 164.957 151.722 165.086 151.812 165.242C151.901 165.397 151.948 165.573 151.948 165.753V227.754C151.948 227.931 151.9 228.106 151.811 228.26C151.721 228.414 151.593 228.541 151.438 228.629L97.8739 259.605C97.7184 259.693 97.5428 259.74 97.3641 259.74ZM98.3838 197.364V257.008L149.918 227.186V167.542L98.3838 197.364Z" fill="#FAFAFA"/>
<path d="M115.825 237.374C113.951 237.394 112.105 236.916 110.476 235.988C106.628 233.766 104.502 229.168 104.502 223.02C104.502 210.822 113.083 195.911 123.636 189.803C128.937 186.734 133.978 186.262 137.826 188.485C141.674 190.707 143.8 195.305 143.8 201.452C143.8 213.67 135.209 228.571 124.656 234.68C121.998 236.334 118.953 237.262 115.825 237.374ZM132.477 189.139C129.703 189.249 127.006 190.085 124.656 191.563C114.661 197.335 106.532 211.467 106.532 223.02C106.532 228.408 108.292 232.39 111.486 234.228C114.68 236.065 118.999 235.603 123.636 232.919C133.631 227.147 141.77 213.025 141.77 201.452C141.77 196.065 140.01 192.083 136.806 190.245C135.487 189.498 133.993 189.117 132.477 189.139Z" fill="#FAFAFA"/>
<path d="M326.618 268.042L322.895 265.887C322.806 265.84 322.707 265.815 322.607 265.815C322.506 265.815 322.407 265.84 322.318 265.887L315.584 268.918C315.478 268.968 315.362 268.995 315.244 268.995C315.127 268.996 315.01 268.97 314.904 268.92C314.797 268.871 314.703 268.798 314.628 268.708C314.552 268.618 314.498 268.512 314.468 268.398C314.105 267.229 313.601 266.108 312.967 265.06C312.825 264.816 312.742 264.542 312.723 264.259C312.705 263.977 312.752 263.695 312.862 263.434L317.345 254.391C317.455 254.162 317.476 253.9 317.403 253.656C317.33 253.412 317.169 253.204 316.95 253.073L312.082 250.264C311.975 250.196 311.854 250.149 311.729 250.127C311.603 250.106 311.474 250.109 311.349 250.138C311.225 250.167 311.107 250.22 311.004 250.294C310.9 250.369 310.812 250.463 310.745 250.572L305.156 258.98C304.981 259.202 304.759 259.382 304.506 259.509C304.254 259.635 303.976 259.704 303.694 259.711C303.051 259.694 302.408 259.723 301.77 259.798V253.651L298.028 251.496C297.93 251.452 297.823 251.434 297.717 251.444C297.611 251.455 297.509 251.492 297.422 251.553L289.86 255.921C289.619 256.078 289.414 256.285 289.258 256.527C289.103 256.769 289 257.041 288.956 257.325L288.206 265.743C288.119 266.337 287.842 266.887 287.417 267.311C285.919 268.698 284.514 270.183 283.213 271.755C283.032 271.96 282.796 272.108 282.534 272.183C282.271 272.258 281.993 272.256 281.731 272.179L276.873 270.486C276.624 270.407 276.355 270.414 276.11 270.504C275.864 270.595 275.656 270.764 275.517 270.986L269.956 280.606C269.831 280.837 269.787 281.104 269.831 281.364C269.874 281.623 270.003 281.861 270.197 282.039L274.093 285.397C274.292 285.585 274.432 285.827 274.499 286.092C274.565 286.358 274.555 286.637 274.468 286.897C273.755 288.808 273.173 290.766 272.727 292.756C272.57 293.333 272.233 293.845 271.765 294.218L264.858 299.076C264.632 299.257 264.448 299.483 264.315 299.74C264.182 299.997 264.105 300.279 264.088 300.567V309.293C264.079 309.403 264.099 309.513 264.146 309.613C264.194 309.712 264.267 309.798 264.358 309.86L268.081 312.005L273.612 309.389C273.817 309.83 274.045 310.261 274.295 310.678C274.437 310.922 274.521 311.196 274.539 311.478C274.557 311.76 274.51 312.043 274.401 312.304L269.918 321.347C269.807 321.576 269.786 321.838 269.859 322.082C269.932 322.326 270.094 322.534 270.312 322.664L275.18 325.473C275.401 325.598 275.661 325.635 275.908 325.578C276.155 325.521 276.373 325.374 276.517 325.166L282.106 316.758C282.282 316.536 282.503 316.356 282.756 316.229C283.009 316.103 283.286 316.034 283.569 316.027C284.794 316.052 286.019 315.93 287.215 315.661C287.329 315.629 287.448 315.623 287.565 315.644C287.681 315.664 287.792 315.71 287.888 315.778C287.985 315.846 288.065 315.935 288.124 316.038C288.182 316.14 288.216 316.255 288.225 316.373L288.956 323.713C288.959 323.817 288.988 323.92 289.04 324.01C289.092 324.101 289.166 324.177 289.254 324.233L292.977 326.378L297.441 319.817C297.683 319.658 297.889 319.45 298.044 319.207C298.2 318.963 298.303 318.689 298.345 318.403L299.095 309.995C299.139 309.721 299.25 309.461 299.418 309.24C299.586 309.018 299.805 308.842 300.057 308.725C302.273 307.762 304.27 306.358 305.926 304.598C306.12 304.405 306.362 304.266 306.627 304.197C306.893 304.127 307.172 304.13 307.436 304.204L310.418 305.252C310.669 305.331 310.939 305.324 311.184 305.232C311.43 305.139 311.638 304.967 311.775 304.742L317.335 295.122C317.46 294.891 317.504 294.624 317.461 294.364C317.417 294.105 317.288 293.867 317.094 293.689L314.536 291.476C314.338 291.285 314.194 291.044 314.12 290.778C314.046 290.513 314.043 290.233 314.112 289.966C314.671 287.686 314.908 285.338 314.814 282.992C314.818 282.707 314.884 282.426 315.009 282.17C315.133 281.913 315.314 281.688 315.536 281.51L322.443 276.642C322.669 276.464 322.854 276.239 322.986 275.984C323.119 275.729 323.196 275.448 323.213 275.161L326.512 271.207L326.618 268.042ZM293.602 302.674C286.551 306.753 282.164 303.857 282.164 295.719C282.164 287.58 287.994 277.595 295.045 273.525C302.097 269.456 306.378 272.41 306.378 280.558C306.378 288.706 300.654 298.566 293.602 302.636V302.674Z" fill="#00CFC1"/>
<path opacity="0.1" d="M326.618 268.042L322.895 265.887C322.806 265.84 322.707 265.815 322.607 265.815C322.506 265.815 322.407 265.84 322.318 265.887L315.584 268.918C315.478 268.968 315.362 268.995 315.244 268.995C315.127 268.996 315.01 268.97 314.904 268.92C314.797 268.871 314.703 268.798 314.628 268.708C314.552 268.618 314.498 268.512 314.468 268.398C314.105 267.229 313.601 266.108 312.967 265.06C312.825 264.816 312.742 264.542 312.723 264.259C312.705 263.977 312.752 263.695 312.862 263.434L317.345 254.391C317.455 254.162 317.476 253.9 317.403 253.656C317.33 253.412 317.169 253.204 316.95 253.073L312.082 250.264C311.975 250.196 311.854 250.149 311.729 250.127C311.603 250.106 311.474 250.109 311.349 250.138C311.225 250.167 311.107 250.22 311.004 250.294C310.9 250.369 310.812 250.463 310.745 250.572L305.156 258.98C304.981 259.202 304.759 259.382 304.506 259.509C304.254 259.635 303.976 259.704 303.694 259.711C303.051 259.694 302.408 259.723 301.77 259.798V253.651L298.028 251.496C297.93 251.452 297.823 251.434 297.717 251.444C297.611 251.455 297.509 251.492 297.422 251.553L289.86 255.921C289.619 256.078 289.414 256.285 289.258 256.527C289.103 256.769 289 257.041 288.956 257.325L288.206 265.743C288.119 266.337 287.842 266.887 287.417 267.311C285.919 268.698 284.514 270.183 283.213 271.755C283.032 271.96 282.796 272.108 282.534 272.183C282.271 272.258 281.993 272.256 281.731 272.179L276.873 270.486C276.624 270.407 276.355 270.414 276.11 270.504C275.864 270.595 275.656 270.764 275.517 270.986L269.956 280.606C269.831 280.837 269.787 281.104 269.831 281.364C269.874 281.623 270.003 281.861 270.197 282.039L274.093 285.397C274.292 285.585 274.432 285.827 274.499 286.092C274.565 286.358 274.555 286.637 274.468 286.897C273.755 288.808 273.173 290.766 272.727 292.756C272.57 293.333 272.233 293.845 271.765 294.218L264.858 299.076C264.632 299.257 264.448 299.483 264.315 299.74C264.182 299.997 264.105 300.279 264.088 300.567V309.293C264.079 309.403 264.099 309.513 264.146 309.613C264.194 309.712 264.267 309.798 264.358 309.86L268.081 312.005L273.612 309.389C273.817 309.83 274.045 310.261 274.295 310.678C274.437 310.922 274.521 311.196 274.539 311.478C274.557 311.76 274.51 312.043 274.401 312.304L269.918 321.347C269.807 321.576 269.786 321.838 269.859 322.082C269.932 322.326 270.094 322.534 270.312 322.664L275.18 325.473C275.401 325.598 275.661 325.635 275.908 325.578C276.155 325.521 276.373 325.374 276.517 325.166L282.106 316.758C282.282 316.536 282.503 316.356 282.756 316.229C283.009 316.103 283.286 316.034 283.569 316.027C284.794 316.052 286.019 315.93 287.215 315.661C287.329 315.629 287.448 315.623 287.565 315.644C287.681 315.664 287.792 315.71 287.888 315.778C287.985 315.846 288.065 315.935 288.124 316.038C288.182 316.14 288.216 316.255 288.225 316.373L288.956 323.713C288.959 323.817 288.988 323.92 289.04 324.01C289.092 324.101 289.166 324.177 289.254 324.233L292.977 326.378L297.441 319.817C297.683 319.658 297.889 319.45 298.044 319.207C298.2 318.963 298.303 318.689 298.345 318.403L299.095 309.995C299.139 309.721 299.25 309.461 299.418 309.24C299.586 309.018 299.805 308.842 300.057 308.725C302.273 307.762 304.27 306.358 305.926 304.598C306.12 304.405 306.362 304.266 306.627 304.197C306.893 304.127 307.172 304.13 307.436 304.204L310.418 305.252C310.669 305.331 310.939 305.324 311.184 305.232C311.43 305.139 311.638 304.967 311.775 304.742L317.335 295.122C317.46 294.891 317.504 294.624 317.461 294.364C317.417 294.105 317.288 293.867 317.094 293.689L314.536 291.476C314.338 291.285 314.194 291.044 314.12 290.778C314.046 290.513 314.043 290.233 314.112 289.966C314.671 287.686 314.908 285.338 314.814 282.992C314.818 282.707 314.884 282.426 315.009 282.17C315.133 281.913 315.314 281.688 315.536 281.51L322.443 276.642C322.669 276.464 322.854 276.239 322.986 275.984C323.119 275.729 323.196 275.448 323.213 275.161L326.512 271.207L326.618 268.042ZM293.602 302.674C286.551 306.753 282.164 303.857 282.164 295.719C282.164 287.58 287.994 277.595 295.045 273.525C302.097 269.456 306.378 272.41 306.378 280.558C306.378 288.706 300.654 298.566 293.602 302.636V302.674Z" fill="black"/>
<path d="M315.853 257.402L317.335 254.411C317.446 254.181 317.466 253.919 317.393 253.675C317.32 253.431 317.159 253.223 316.941 253.093L312.073 250.284C311.965 250.215 311.845 250.168 311.719 250.147C311.593 250.125 311.464 250.128 311.34 250.157C311.215 250.186 311.098 250.239 310.994 250.314C310.89 250.388 310.802 250.483 310.736 250.591L305.146 258.999C305.041 259.137 304.914 259.257 304.771 259.355L311.024 262.972L315.853 257.402Z" fill="#00CFC1"/>
<path d="M272.246 293.679C272.106 293.899 271.926 294.091 271.717 294.247L264.81 299.105C264.625 299.249 264.471 299.429 264.358 299.634L268.571 302.068L277.739 296.844L272.246 293.679Z" fill="#00CFC1"/>
<path d="M276.45 270.447C276.256 270.454 276.067 270.509 275.899 270.606C275.732 270.703 275.59 270.84 275.488 271.005L269.928 280.625C269.815 280.841 269.771 281.086 269.803 281.327L274.613 284.098L282.222 273.804L276.45 270.447Z" fill="#00CFC1"/>
<path d="M289.071 256.854L294.997 260.279L301.731 256.431V253.718L297.989 251.563C297.892 251.519 297.785 251.502 297.678 251.512C297.572 251.522 297.47 251.559 297.383 251.621L289.822 255.988C289.493 256.198 289.232 256.499 289.071 256.854Z" fill="#00CFC1"/>
<path d="M326.618 268.042C326.527 267.992 326.424 267.965 326.32 267.965C326.216 267.965 326.113 267.992 326.022 268.042L319.288 271.082C319.182 271.133 319.066 271.159 318.948 271.16C318.831 271.16 318.714 271.135 318.608 271.085C318.501 271.035 318.407 270.963 318.331 270.872C318.256 270.782 318.202 270.676 318.172 270.563C317.922 269.747 317.6 268.955 317.21 268.196L322.27 265.897C322.361 265.851 322.462 265.827 322.563 265.827C322.665 265.827 322.766 265.851 322.857 265.897L326.618 268.042Z" fill="#00CFC1"/>
<g opacity="0.4">
<path opacity="0.4" d="M315.853 257.402L317.335 254.411C317.446 254.181 317.466 253.919 317.393 253.675C317.32 253.431 317.159 253.223 316.941 253.093L312.073 250.284C311.965 250.215 311.845 250.168 311.719 250.147C311.593 250.125 311.464 250.128 311.34 250.157C311.215 250.186 311.098 250.239 310.994 250.314C310.89 250.388 310.802 250.483 310.736 250.591L305.146 258.999C305.041 259.137 304.914 259.257 304.771 259.355L311.024 262.972L315.853 257.402Z" fill="white"/>
<path opacity="0.4" d="M272.246 293.679C272.106 293.899 271.926 294.091 271.717 294.247L264.81 299.105C264.625 299.249 264.471 299.429 264.358 299.634L268.571 302.068L277.739 296.844L272.246 293.679Z" fill="white"/>
<path opacity="0.4" d="M276.45 270.447C276.256 270.454 276.067 270.509 275.899 270.606C275.732 270.703 275.59 270.84 275.488 271.005L269.928 280.625C269.815 280.841 269.771 281.086 269.803 281.327L274.613 284.098L282.222 273.804L276.45 270.447Z" fill="white"/>
<path opacity="0.4" d="M289.072 256.854L294.997 260.279L301.731 256.431V253.718L297.989 251.563C297.892 251.519 297.785 251.502 297.679 251.512C297.572 251.522 297.471 251.559 297.383 251.621L289.822 255.988C289.493 256.198 289.232 256.499 289.072 256.854Z" fill="white"/>
<path opacity="0.4" d="M326.618 268.042C326.527 267.991 326.424 267.965 326.32 267.965C326.216 267.965 326.113 267.991 326.022 268.042L319.288 271.082C319.182 271.133 319.066 271.159 318.948 271.159C318.831 271.16 318.714 271.135 318.608 271.085C318.501 271.035 318.407 270.963 318.331 270.872C318.256 270.782 318.202 270.676 318.172 270.562C317.922 269.747 317.6 268.955 317.21 268.196L322.27 265.897C322.361 265.851 322.462 265.827 322.563 265.827C322.665 265.827 322.766 265.851 322.857 265.897L326.618 268.042Z" fill="white"/>
</g>
<path d="M326.888 277.335V268.6C326.903 268.493 326.887 268.384 326.841 268.285C326.796 268.187 326.724 268.103 326.633 268.045C326.542 267.986 326.436 267.954 326.328 267.954C326.219 267.954 326.113 267.984 326.022 268.042L319.288 271.082C319.181 271.133 319.064 271.159 318.946 271.16C318.828 271.16 318.711 271.135 318.604 271.085C318.496 271.036 318.401 270.963 318.325 270.873C318.249 270.783 318.193 270.677 318.162 270.563C317.799 269.393 317.295 268.272 316.662 267.224C316.523 266.979 316.442 266.704 316.426 266.423C316.409 266.141 316.457 265.859 316.565 265.599L321.048 256.546C321.158 256.317 321.177 256.056 321.102 255.813C321.027 255.571 320.864 255.365 320.644 255.238L315.777 252.419C315.554 252.296 315.294 252.26 315.046 252.319C314.799 252.378 314.583 252.527 314.439 252.737L308.85 261.145C308.678 261.369 308.457 261.551 308.203 261.676C307.95 261.802 307.671 261.866 307.388 261.866C306.165 261.844 304.944 261.97 303.752 262.241C303.638 262.273 303.518 262.279 303.402 262.259C303.285 262.238 303.174 262.193 303.078 262.125C302.981 262.056 302.901 261.968 302.843 261.865C302.784 261.762 302.75 261.647 302.741 261.529L302.001 254.18C302.003 254.073 301.975 253.967 301.92 253.875C301.865 253.784 301.785 253.709 301.689 253.661C301.594 253.613 301.486 253.592 301.38 253.602C301.273 253.613 301.172 253.653 301.087 253.718L293.535 258.085C293.293 258.242 293.088 258.448 292.932 258.69C292.776 258.932 292.673 259.205 292.631 259.49L291.871 267.907C291.781 268.501 291.505 269.05 291.082 269.475C289.585 270.86 288.183 272.345 286.888 273.92C286.705 274.125 286.468 274.274 286.204 274.349C285.94 274.424 285.66 274.422 285.397 274.343L280.587 272.65C280.336 272.569 280.065 272.575 279.818 272.665C279.57 272.756 279.36 272.927 279.221 273.15L273.67 282.77C273.543 283.002 273.498 283.269 273.541 283.529C273.585 283.789 273.715 284.027 273.91 284.204L277.806 287.561C278.004 287.748 278.144 287.988 278.211 288.252C278.277 288.516 278.267 288.794 278.182 289.052C277.47 290.968 276.886 292.928 276.431 294.92C276.275 295.498 275.937 296.011 275.469 296.383L268.571 301.193C268.342 301.371 268.154 301.596 268.02 301.854C267.885 302.111 267.808 302.394 267.792 302.684V311.409C267.777 311.516 267.793 311.626 267.838 311.724C267.883 311.822 267.956 311.906 268.047 311.965C268.138 312.023 268.244 312.055 268.352 312.055C268.46 312.056 268.566 312.025 268.658 311.967L275.392 308.937C275.498 308.884 275.615 308.857 275.734 308.855C275.853 308.854 275.97 308.879 276.078 308.929C276.186 308.978 276.281 309.051 276.357 309.143C276.433 309.234 276.488 309.341 276.517 309.456C276.872 310.644 277.376 311.782 278.018 312.842C278.153 313.091 278.232 313.367 278.249 313.649C278.266 313.932 278.22 314.215 278.114 314.478L273.631 323.521C273.523 323.75 273.503 324.012 273.576 324.255C273.649 324.498 273.809 324.706 274.026 324.839L278.893 327.648C279.117 327.774 279.379 327.811 279.629 327.752C279.879 327.693 280.097 327.543 280.24 327.33L285.829 318.932C286.005 318.71 286.226 318.53 286.479 318.403C286.732 318.277 287.009 318.208 287.292 318.201C288.514 318.227 289.735 318.104 290.928 317.835C291.042 317.804 291.162 317.798 291.278 317.818C291.395 317.838 291.505 317.884 291.602 317.952C291.698 318.02 291.779 318.109 291.837 318.212C291.895 318.315 291.93 318.429 291.938 318.547L292.679 325.887C292.675 325.995 292.701 326.102 292.756 326.195C292.81 326.288 292.89 326.364 292.986 326.414C293.082 326.463 293.19 326.484 293.297 326.474C293.405 326.465 293.507 326.424 293.593 326.359L301.144 321.991C301.387 321.833 301.592 321.625 301.748 321.381C301.904 321.137 302.006 320.863 302.049 320.577L302.809 312.169C302.901 311.574 303.176 311.022 303.598 310.591C305.095 309.207 306.496 307.722 307.792 306.147C307.975 305.946 308.211 305.801 308.473 305.728C308.735 305.655 309.012 305.657 309.273 305.733L314.131 307.426C314.384 307.504 314.654 307.497 314.901 307.404C315.149 307.312 315.358 307.141 315.498 306.917L321.048 297.297C321.173 297.066 321.216 296.801 321.173 296.543C321.129 296.285 321.001 296.049 320.808 295.873L316.912 292.515C316.714 292.326 316.574 292.085 316.508 291.819C316.441 291.554 316.451 291.275 316.536 291.015C317.249 289.103 317.834 287.146 318.287 285.156C318.443 284.578 318.781 284.066 319.249 283.694L326.156 278.826C326.378 278.644 326.557 278.417 326.683 278.16C326.809 277.902 326.879 277.621 326.888 277.335ZM297.316 304.781C290.264 308.86 284.55 305.55 284.55 297.412C284.55 289.273 290.264 279.365 297.316 275.286C304.367 271.207 310.091 274.516 310.091 282.664C310.091 290.813 304.377 300.712 297.316 304.781Z" fill="#00CFC1"/>
<path d="M289.389 336.46C289.286 336.406 289.169 336.384 289.053 336.394C288.938 336.404 288.827 336.447 288.735 336.517L285.551 338.624C285.34 338.747 285.091 338.785 284.854 338.732C284.617 338.678 284.408 338.536 284.271 338.335C284.084 338.068 283.878 337.814 283.655 337.575C283.468 337.378 283.334 337.134 283.269 336.87C283.203 336.605 283.207 336.328 283.28 336.065L288.34 332.862L284.56 330.678C284.484 330.627 284.399 330.591 284.31 330.572L281.914 330.033C281.65 329.988 281.379 330.024 281.136 330.138C280.894 330.251 280.692 330.436 280.558 330.668L278.297 334.959C277.989 335.459 277.505 335.826 276.941 335.988H276.796C276.894 335.675 276.962 335.353 276.998 335.026L273.208 332.852C273.096 332.791 272.967 332.767 272.841 332.785C272.715 332.802 272.597 332.859 272.506 332.948L268.908 335.738C268.693 335.931 268.521 336.167 268.404 336.43C268.286 336.694 268.225 336.979 268.225 337.268L268.437 340.683C268.443 341.282 268.246 341.865 267.879 342.337C267.287 343.046 266.731 343.785 266.214 344.55C266.044 344.778 265.823 344.963 265.57 345.091C265.316 345.22 265.036 345.288 264.752 345.291L262.443 345.175C262.168 345.174 261.897 345.249 261.662 345.394C261.428 345.538 261.238 345.746 261.116 345.993L258.942 350.861C258.859 351.068 258.852 351.298 258.92 351.51C258.989 351.722 259.129 351.904 259.317 352.025L261.876 353.497C261.957 353.708 261.977 353.938 261.933 354.16C261.754 354.928 261.619 355.705 261.529 356.488C261.44 357.083 261.168 357.634 260.75 358.066L257.566 360.952C257.367 361.158 257.216 361.405 257.124 361.676C257.033 361.948 257.003 362.236 257.037 362.52L257.633 365.993C257.643 366.088 257.675 366.18 257.724 366.261C257.774 366.343 257.842 366.412 257.922 366.464L261.722 368.658L261.77 364.309C261.98 364.187 262.229 364.148 262.466 364.202C262.704 364.255 262.912 364.397 263.049 364.598C263.237 364.868 263.446 365.122 263.675 365.358C263.862 365.558 263.995 365.803 264.059 366.07C264.123 366.336 264.117 366.615 264.04 366.878L262.414 371.332C262.348 371.504 262.343 371.694 262.401 371.87C262.459 372.045 262.576 372.195 262.732 372.294L266.532 374.487L267.561 371.659L269.023 368.023C269.336 367.523 269.822 367.156 270.389 366.993C270.891 366.87 271.383 366.709 271.861 366.512C271.968 366.46 272.085 366.432 272.204 366.43C272.322 366.428 272.44 366.452 272.549 366.501C272.657 366.549 272.753 366.621 272.831 366.711C272.908 366.802 272.965 366.908 272.996 367.022L273.814 369.716C273.834 369.804 273.872 369.886 273.925 369.959C273.977 370.032 274.045 370.093 274.122 370.139L277.97 372.332L277.297 368.129L278.461 367.215C278.679 367.025 278.853 366.789 278.971 366.525C279.089 366.261 279.148 365.974 279.144 365.685L278.932 362.27C278.931 361.672 279.127 361.091 279.49 360.615C280.077 359.913 280.971 359.538 281.491 358.768C281.789 358.335 282.107 357.643 282.626 357.662L284.935 357.777C285.209 357.779 285.479 357.704 285.713 357.561C285.947 357.419 286.138 357.214 286.262 356.969L288.427 352.092C288.519 351.864 288.521 351.61 288.431 351.381C288.342 351.152 288.168 350.966 287.946 350.861L286.08 350.072C285.844 349.96 285.652 349.772 285.537 349.538C285.422 349.304 285.389 349.038 285.445 348.783C285.617 348.014 285.749 347.237 285.839 346.455C285.928 345.861 286.201 345.309 286.618 344.877L289.803 341.991C290.091 341.695 290.277 341.314 290.332 340.904L293.218 338.653L289.389 336.46ZM274.959 358.922C271.111 361.981 267.34 361.144 266.638 357.056C265.935 352.967 269.12 347.763 273.016 344.704C276.912 341.645 280.038 341.876 280.712 345.964C281.385 350.053 278.826 355.853 274.93 358.922H274.959Z" fill="#00CFC1"/>
<path opacity="0.1" d="M289.389 336.46C289.286 336.406 289.169 336.384 289.053 336.394C288.938 336.404 288.827 336.447 288.735 336.517L285.551 338.624C285.34 338.747 285.091 338.785 284.854 338.732C284.617 338.678 284.408 338.536 284.271 338.335C284.084 338.068 283.878 337.814 283.655 337.575C283.468 337.378 283.334 337.134 283.269 336.87C283.203 336.605 283.207 336.328 283.28 336.065L288.34 332.862L284.56 330.678C284.484 330.627 284.399 330.591 284.31 330.572L281.914 330.033C281.65 329.988 281.379 330.024 281.136 330.138C280.894 330.251 280.692 330.436 280.558 330.668L278.297 334.959C277.989 335.459 277.505 335.826 276.941 335.988H276.796C276.894 335.675 276.962 335.353 276.998 335.026L273.208 332.852C273.096 332.791 272.967 332.767 272.841 332.785C272.715 332.802 272.597 332.859 272.506 332.948L268.908 335.738C268.693 335.931 268.521 336.167 268.404 336.43C268.286 336.694 268.225 336.979 268.225 337.268L268.437 340.683C268.443 341.282 268.246 341.865 267.879 342.337C267.287 343.046 266.731 343.785 266.214 344.55C266.044 344.778 265.823 344.963 265.57 345.091C265.316 345.22 265.036 345.288 264.752 345.291L262.443 345.175C262.168 345.174 261.897 345.249 261.662 345.394C261.428 345.538 261.238 345.746 261.116 345.993L258.942 350.861C258.859 351.068 258.852 351.298 258.92 351.51C258.989 351.722 259.129 351.904 259.317 352.025L261.876 353.497C261.957 353.708 261.977 353.938 261.933 354.16C261.754 354.928 261.619 355.705 261.529 356.488C261.44 357.083 261.168 357.634 260.75 358.066L257.566 360.952C257.367 361.158 257.216 361.405 257.124 361.676C257.033 361.948 257.003 362.236 257.037 362.52L257.633 365.993C257.643 366.088 257.675 366.18 257.724 366.261C257.774 366.343 257.842 366.412 257.922 366.464L261.722 368.658L261.77 364.309C261.98 364.187 262.229 364.148 262.466 364.202C262.704 364.255 262.912 364.397 263.049 364.598C263.237 364.868 263.446 365.122 263.675 365.358C263.862 365.558 263.995 365.803 264.059 366.07C264.123 366.336 264.117 366.615 264.04 366.878L262.414 371.332C262.348 371.504 262.343 371.694 262.401 371.87C262.459 372.045 262.576 372.195 262.732 372.294L266.532 374.487L267.561 371.659L269.023 368.023C269.336 367.523 269.822 367.156 270.389 366.993C270.891 366.87 271.383 366.709 271.861 366.512C271.968 366.46 272.085 366.432 272.204 366.43C272.322 366.428 272.44 366.452 272.549 366.501C272.657 366.549 272.753 366.621 272.831 366.711C272.908 366.802 272.965 366.908 272.996 367.022L273.814 369.716C273.834 369.804 273.872 369.886 273.925 369.959C273.977 370.032 274.045 370.093 274.122 370.139L277.97 372.332L277.297 368.129L278.461 367.215C278.679 367.025 278.853 366.789 278.971 366.525C279.089 366.261 279.148 365.974 279.144 365.685L278.932 362.27C278.931 361.672 279.127 361.091 279.49 360.615C280.077 359.913 280.971 359.538 281.491 358.768C281.789 358.335 282.107 357.643 282.626 357.662L284.935 357.777C285.209 357.779 285.479 357.704 285.713 357.561C285.947 357.419 286.138 357.214 286.262 356.969L288.427 352.092C288.519 351.864 288.521 351.61 288.431 351.381C288.342 351.152 288.168 350.966 287.946 350.861L286.08 350.072C285.844 349.96 285.652 349.772 285.537 349.538C285.422 349.304 285.389 349.038 285.445 348.783C285.617 348.014 285.749 347.237 285.839 346.455C285.928 345.861 286.201 345.309 286.618 344.877L289.803 341.991C290.091 341.695 290.277 341.314 290.332 340.904L293.218 338.653L289.389 336.46ZM274.959 358.922C271.111 361.981 267.34 361.144 266.638 357.056C265.935 352.967 269.12 347.763 273.016 344.704C276.912 341.645 280.038 341.876 280.712 345.964C281.385 350.053 278.826 355.853 274.93 358.922H274.959Z" fill="black"/>
<path d="M260.702 358.143L257.547 361.029C257.305 361.28 257.139 361.593 257.066 361.933L261.741 364.636V364.386C261.951 364.264 262.2 364.225 262.438 364.279C262.675 364.332 262.883 364.474 263.02 364.675L267.523 362.068L260.702 358.143Z" fill="#00CFC1"/>
<path d="M268.744 349.379C269.098 348.825 269.483 348.292 269.899 347.782L265.406 345.185C265.202 345.283 264.978 345.332 264.752 345.329L262.443 345.214C262.092 345.211 261.751 345.334 261.481 345.56L268.388 349.552L268.744 349.379Z" fill="#00CFC1"/>
<path d="M293.169 338.624C293.064 338.576 292.947 338.557 292.832 338.571C292.716 338.585 292.607 338.63 292.515 338.701L289.331 340.798C289.122 340.918 288.875 340.955 288.64 340.901C288.405 340.848 288.198 340.708 288.061 340.51C287.871 340.242 287.662 339.988 287.436 339.75C287.247 339.55 287.114 339.305 287.048 339.039C286.982 338.773 286.987 338.494 287.061 338.23L287.369 337.422L288.735 336.517C288.827 336.447 288.938 336.404 289.053 336.394C289.169 336.384 289.285 336.406 289.389 336.46L293.169 338.624Z" fill="#00CFC1"/>
<path d="M283.79 337.71C283.757 337.663 283.722 337.618 283.684 337.575C283.496 337.378 283.363 337.134 283.297 336.87C283.232 336.605 283.236 336.328 283.309 336.065L288.369 332.862L284.588 330.678C284.512 330.627 284.428 330.591 284.338 330.572L281.943 330.033C281.679 329.988 281.408 330.024 281.165 330.138C280.922 330.251 280.721 330.436 280.587 330.668L278.326 334.959C278.2 335.186 278.026 335.383 277.816 335.536L282.905 338.48L283.79 337.71Z" fill="#00CFC1"/>
<path d="M268.321 336.7L272.996 339.403L276.844 335.882C276.915 335.598 276.967 335.308 276.998 335.017L273.208 332.852C273.096 332.791 272.968 332.767 272.841 332.785C272.715 332.802 272.597 332.859 272.506 332.948L268.908 335.738C268.623 335.995 268.419 336.329 268.321 336.7Z" fill="#00CFC1"/>
<g opacity="0.4">
<path opacity="0.4" d="M260.702 358.143L257.547 361.029C257.305 361.28 257.139 361.593 257.066 361.933L261.741 364.637V364.386C261.951 364.264 262.2 364.225 262.438 364.279C262.675 364.332 262.883 364.474 263.02 364.675L267.523 362.068L260.702 358.143Z" fill="white"/>
<path opacity="0.4" d="M268.744 349.379C269.097 348.825 269.483 348.292 269.899 347.782L265.406 345.185C265.202 345.283 264.978 345.332 264.752 345.329L262.443 345.214C262.092 345.211 261.751 345.334 261.481 345.56L268.388 349.552L268.744 349.379Z" fill="white"/>
<path opacity="0.4" d="M293.169 338.624C293.064 338.576 292.947 338.557 292.832 338.571C292.716 338.585 292.607 338.63 292.515 338.701L289.331 340.798C289.122 340.918 288.875 340.955 288.64 340.901C288.405 340.848 288.198 340.708 288.061 340.51C287.871 340.242 287.662 339.988 287.436 339.75C287.247 339.55 287.114 339.305 287.048 339.039C286.982 338.773 286.987 338.494 287.061 338.23L287.369 337.422L288.735 336.517C288.827 336.447 288.938 336.404 289.053 336.394C289.169 336.384 289.285 336.406 289.389 336.46L293.169 338.624Z" fill="white"/>
<path opacity="0.4" d="M283.79 337.71C283.757 337.663 283.722 337.618 283.684 337.575C283.496 337.378 283.363 337.134 283.297 336.87C283.232 336.605 283.236 336.328 283.309 336.065L288.369 332.862L284.588 330.678C284.512 330.627 284.428 330.591 284.338 330.572L281.943 330.033C281.679 329.988 281.408 330.024 281.165 330.138C280.922 330.251 280.721 330.436 280.587 330.668L278.326 334.959C278.2 335.186 278.026 335.383 277.816 335.536L282.905 338.48L283.79 337.71Z" fill="white"/>
<path opacity="0.4" d="M268.321 336.7L272.996 339.403L276.844 335.882C276.915 335.598 276.967 335.308 276.998 335.017L273.208 332.852C273.096 332.791 272.967 332.767 272.841 332.785C272.715 332.802 272.597 332.859 272.506 332.948L268.908 335.738C268.623 335.995 268.419 336.329 268.321 336.7Z" fill="white"/>
</g>
<path d="M294.064 342.597L293.468 339.124C293.465 339.014 293.43 338.907 293.368 338.816C293.307 338.725 293.22 338.654 293.119 338.61C293.018 338.567 292.906 338.553 292.798 338.571C292.689 338.589 292.588 338.637 292.506 338.711L289.322 340.808C289.112 340.928 288.866 340.964 288.63 340.911C288.395 340.857 288.189 340.718 288.052 340.519C287.862 340.251 287.653 339.997 287.426 339.759C287.24 339.56 287.108 339.317 287.042 339.053C286.977 338.788 286.98 338.512 287.051 338.249L288.677 333.852C288.722 333.742 288.742 333.624 288.735 333.505C288.728 333.387 288.695 333.271 288.638 333.167C288.581 333.063 288.501 332.973 288.405 332.903C288.308 332.834 288.197 332.787 288.081 332.765L285.685 332.227C285.421 332.178 285.149 332.213 284.905 332.327C284.662 332.441 284.461 332.628 284.329 332.862L282.078 337.152C281.761 337.649 281.276 338.014 280.712 338.181C280.207 338.309 279.711 338.473 279.23 338.672C279.123 338.723 279.007 338.749 278.889 338.75C278.77 338.75 278.653 338.725 278.546 338.675C278.439 338.626 278.344 338.553 278.267 338.463C278.191 338.373 278.136 338.267 278.105 338.153L277.287 335.459C277.268 335.351 277.22 335.251 277.148 335.169C277.076 335.087 276.983 335.026 276.878 334.993C276.774 334.961 276.663 334.957 276.557 334.983C276.451 335.009 276.354 335.064 276.277 335.142L272.679 337.96C272.464 338.153 272.293 338.389 272.175 338.652C272.057 338.916 271.996 339.201 271.996 339.49L272.217 342.905C272.215 343.502 272.019 344.083 271.659 344.56C271.061 345.266 270.502 346.004 269.985 346.772C269.811 346.996 269.59 347.178 269.337 347.306C269.084 347.434 268.806 347.505 268.523 347.513L266.214 347.397C265.939 347.396 265.668 347.471 265.433 347.616C265.199 347.761 265.009 347.968 264.887 348.215L262.722 353.054C262.631 353.283 262.63 353.538 262.722 353.768C262.813 353.997 262.989 354.182 263.213 354.285L265.079 355.084C265.313 355.195 265.503 355.381 265.618 355.614C265.733 355.846 265.767 356.11 265.714 356.363C265.542 357.132 265.411 357.909 265.32 358.691C265.226 359.284 264.954 359.834 264.54 360.269L261.356 363.155C261.155 363.36 261.003 363.607 260.909 363.878C260.816 364.149 260.785 364.438 260.818 364.723L261.414 368.196C261.417 368.306 261.452 368.413 261.513 368.504C261.575 368.595 261.662 368.666 261.763 368.71C261.864 368.753 261.975 368.767 262.084 368.749C262.193 368.731 262.294 368.683 262.376 368.61L265.56 366.512C265.769 366.393 266.016 366.356 266.251 366.409C266.487 366.463 266.693 366.602 266.83 366.801C267.018 367.071 267.227 367.325 267.455 367.561C267.642 367.761 267.775 368.006 267.841 368.272C267.906 368.538 267.903 368.817 267.831 369.081L266.205 373.468C266.16 373.578 266.14 373.696 266.147 373.815C266.154 373.933 266.187 374.049 266.244 374.153C266.301 374.257 266.381 374.347 266.477 374.417C266.574 374.486 266.684 374.533 266.801 374.555L269.197 375.093C269.461 375.142 269.733 375.107 269.976 374.993C270.22 374.879 270.421 374.692 270.553 374.458L272.804 370.168C273.121 369.671 273.606 369.306 274.17 369.139C274.674 369.01 275.169 368.85 275.652 368.658C275.758 368.607 275.874 368.58 275.991 368.579C276.109 368.578 276.226 368.602 276.333 368.651C276.44 368.699 276.535 368.771 276.612 368.86C276.689 368.949 276.745 369.054 276.777 369.167L277.595 371.861C277.614 371.969 277.662 372.069 277.734 372.151C277.806 372.233 277.899 372.294 278.003 372.327C278.108 372.36 278.219 372.363 278.325 372.337C278.431 372.311 278.528 372.256 278.605 372.179L282.203 369.36C282.418 369.167 282.589 368.931 282.707 368.668C282.825 368.404 282.886 368.119 282.886 367.83L282.665 364.415C282.667 363.818 282.862 363.237 283.223 362.761C283.821 362.054 284.38 361.316 284.896 360.548C285.071 360.324 285.292 360.142 285.545 360.014C285.797 359.886 286.075 359.815 286.359 359.807L288.667 359.923C288.943 359.924 289.214 359.849 289.448 359.704C289.683 359.559 289.873 359.352 289.995 359.105L292.169 354.237C292.261 354.008 292.261 353.753 292.17 353.524C292.078 353.294 291.903 353.109 291.679 353.006L289.812 352.207C289.578 352.096 289.388 351.91 289.273 351.678C289.158 351.446 289.124 351.182 289.177 350.928C289.349 350.159 289.481 349.382 289.572 348.6C289.667 348.008 289.939 347.458 290.351 347.022L293.535 344.136C293.73 343.934 293.879 343.691 293.97 343.425C294.062 343.159 294.094 342.877 294.064 342.597ZM278.72 361.096C274.824 364.165 271.092 363.328 270.389 359.24C269.687 355.151 272.313 349.35 276.161 346.291C280.009 343.232 283.79 344.059 284.492 348.148C285.195 352.236 282.607 358.037 278.72 361.096Z" fill="#00CFC1"/>
<path d="M258.461 330.091L254.738 327.946C254.646 327.901 254.546 327.877 254.444 327.877C254.342 327.877 254.242 327.901 254.151 327.946L247.417 330.976C247.312 331.029 247.196 331.057 247.078 331.059C246.961 331.061 246.844 331.036 246.737 330.988C246.63 330.939 246.535 330.867 246.46 330.776C246.385 330.686 246.33 330.58 246.301 330.466C245.939 329.296 245.435 328.175 244.8 327.128C244.663 326.88 244.583 326.605 244.564 326.322C244.546 326.04 244.591 325.756 244.694 325.493L249.158 316.498C249.268 316.268 249.287 316.004 249.212 315.76C249.138 315.516 248.974 315.309 248.754 315.18L243.886 312.371C243.664 312.248 243.404 312.212 243.156 312.271C242.909 312.329 242.692 312.478 242.549 312.689L236.96 321.096C236.788 321.321 236.567 321.503 236.313 321.628C236.06 321.753 235.78 321.818 235.498 321.818C234.855 321.804 234.212 321.836 233.574 321.914V315.728L229.841 313.612C229.742 313.567 229.634 313.549 229.526 313.559C229.418 313.57 229.314 313.608 229.225 313.67L221.664 318.028C221.422 318.185 221.216 318.393 221.062 318.637C220.907 318.881 220.808 319.155 220.769 319.442L220.009 327.85C219.918 328.445 219.642 328.997 219.221 329.427C217.723 330.812 216.322 332.297 215.026 333.872C214.842 334.074 214.604 334.221 214.341 334.296C214.078 334.37 213.799 334.37 213.535 334.295L208.725 332.592C208.473 332.516 208.203 332.524 207.956 332.617C207.709 332.709 207.5 332.879 207.359 333.102L201.799 342.722C201.677 342.955 201.635 343.222 201.68 343.481C201.725 343.741 201.855 343.978 202.049 344.156L205.897 347.503C206.094 347.693 206.235 347.934 206.303 348.199C206.371 348.464 206.363 348.743 206.282 349.004C205.565 350.915 204.98 352.872 204.531 354.863C204.375 355.443 204.038 355.959 203.569 356.334L196.662 361.193C196.436 361.371 196.251 361.596 196.118 361.851C195.986 362.106 195.909 362.387 195.892 362.674V371.409C195.884 371.517 195.904 371.626 195.951 371.724C195.999 371.822 196.071 371.906 196.161 371.967L199.884 374.122L205.416 371.496C205.628 371.948 205.858 372.381 206.099 372.785C206.241 373.031 206.325 373.306 206.343 373.59C206.361 373.874 206.314 374.158 206.205 374.42L201.722 383.463C201.611 383.692 201.59 383.954 201.663 384.198C201.736 384.442 201.898 384.65 202.116 384.781L206.984 387.59C207.206 387.713 207.467 387.749 207.714 387.69C207.961 387.631 208.178 387.482 208.321 387.272L213.91 378.864C214.084 378.639 214.307 378.457 214.562 378.332C214.817 378.206 215.098 378.142 215.382 378.143C216.605 378.165 217.826 378.039 219.019 377.768C219.132 377.738 219.251 377.733 219.367 377.754C219.483 377.775 219.593 377.821 219.689 377.889C219.785 377.957 219.866 378.045 219.924 378.147C219.983 378.249 220.019 378.362 220.029 378.48L220.769 385.829C220.771 385.932 220.798 386.032 220.848 386.121C220.898 386.211 220.971 386.286 221.058 386.339L224.771 388.484L229.235 381.933C229.476 381.774 229.681 381.566 229.837 381.322C229.993 381.078 230.096 380.805 230.139 380.519L230.899 372.102C230.94 371.826 231.049 371.565 231.217 371.343C231.386 371.121 231.607 370.945 231.861 370.832C234.081 369.875 236.081 368.473 237.739 366.714C237.929 366.517 238.169 366.374 238.433 366.303C238.698 366.232 238.977 366.234 239.24 366.31L242.222 367.359C242.472 367.439 242.741 367.433 242.986 367.342C243.232 367.252 243.441 367.082 243.578 366.859L249.139 357.239C249.264 357.007 249.308 356.74 249.265 356.481C249.221 356.221 249.092 355.983 248.898 355.805L246.339 353.602C246.143 353.41 246.002 353.168 245.929 352.903C245.856 352.638 245.855 352.358 245.926 352.092C246.477 349.81 246.71 347.463 246.618 345.118C246.62 344.831 246.686 344.548 246.81 344.29C246.935 344.032 247.116 343.806 247.34 343.626L254.247 338.768C254.474 338.589 254.66 338.363 254.792 338.106C254.925 337.849 255.001 337.566 255.017 337.277L258.316 333.323L258.461 330.091ZM225.445 364.723C218.393 368.792 214.007 365.906 214.007 357.758C214.007 349.61 219.836 339.634 226.888 335.565C233.939 331.496 238.22 334.459 238.22 342.597C238.22 350.736 232.496 360.625 225.445 364.694V364.723Z" fill="#00CFC1"/>
<path opacity="0.1" d="M258.461 330.091L254.738 327.946C254.646 327.901 254.546 327.877 254.444 327.877C254.342 327.877 254.242 327.901 254.151 327.946L247.417 330.976C247.312 331.029 247.196 331.057 247.078 331.059C246.961 331.061 246.844 331.036 246.737 330.988C246.63 330.939 246.535 330.867 246.46 330.776C246.385 330.686 246.33 330.58 246.301 330.466C245.939 329.296 245.435 328.175 244.8 327.128C244.663 326.88 244.583 326.605 244.564 326.322C244.546 326.04 244.591 325.756 244.694 325.493L249.158 316.498C249.268 316.268 249.287 316.004 249.212 315.76C249.138 315.516 248.974 315.309 248.754 315.18L243.886 312.371C243.664 312.248 243.404 312.212 243.156 312.271C242.909 312.329 242.692 312.478 242.549 312.689L236.96 321.096C236.788 321.321 236.567 321.503 236.313 321.628C236.06 321.753 235.78 321.818 235.498 321.818C234.855 321.804 234.212 321.836 233.574 321.914V315.728L229.841 313.612C229.742 313.567 229.634 313.549 229.526 313.559C229.418 313.57 229.314 313.608 229.225 313.67L221.664 318.028C221.422 318.185 221.216 318.393 221.062 318.637C220.907 318.881 220.808 319.155 220.769 319.442L220.009 327.85C219.918 328.445 219.642 328.997 219.221 329.427C217.723 330.812 216.322 332.297 215.026 333.872C214.842 334.074 214.604 334.221 214.341 334.296C214.078 334.37 213.799 334.37 213.535 334.295L208.725 332.592C208.473 332.516 208.203 332.524 207.956 332.617C207.709 332.709 207.5 332.879 207.359 333.102L201.799 342.722C201.677 342.955 201.635 343.222 201.68 343.481C201.725 343.741 201.855 343.978 202.049 344.156L205.897 347.503C206.094 347.693 206.235 347.934 206.303 348.199C206.371 348.464 206.363 348.743 206.282 349.004C205.565 350.915 204.98 352.872 204.531 354.863C204.375 355.443 204.038 355.959 203.569 356.334L196.662 361.193C196.436 361.371 196.251 361.596 196.118 361.851C195.986 362.106 195.909 362.387 195.892 362.674V371.409C195.884 371.517 195.904 371.626 195.951 371.724C195.999 371.822 196.071 371.906 196.161 371.967L199.884 374.122L205.416 371.496C205.628 371.948 205.858 372.381 206.099 372.785C206.241 373.031 206.325 373.306 206.343 373.59C206.361 373.874 206.314 374.158 206.205 374.42L201.722 383.463C201.611 383.692 201.59 383.954 201.663 384.198C201.736 384.442 201.898 384.65 202.116 384.781L206.984 387.59C207.206 387.713 207.467 387.749 207.714 387.69C207.961 387.631 208.178 387.482 208.321 387.272L213.91 378.864C214.084 378.639 214.307 378.457 214.562 378.332C214.817 378.206 215.098 378.142 215.382 378.143C216.605 378.165 217.826 378.039 219.019 377.768C219.132 377.738 219.251 377.733 219.367 377.754C219.483 377.775 219.593 377.821 219.689 377.889C219.785 377.957 219.866 378.045 219.924 378.147C219.983 378.249 220.019 378.362 220.029 378.48L220.769 385.829C220.771 385.932 220.798 386.032 220.848 386.121C220.898 386.211 220.971 386.286 221.058 386.339L224.771 388.484L229.235 381.933C229.476 381.774 229.681 381.566 229.837 381.322C229.993 381.078 230.096 380.805 230.139 380.519L230.899 372.102C230.94 371.826 231.049 371.565 231.217 371.343C231.386 371.121 231.607 370.945 231.861 370.832C234.081 369.875 236.081 368.473 237.739 366.714C237.929 366.517 238.169 366.374 238.433 366.303C238.698 366.232 238.977 366.234 239.24 366.31L242.222 367.359C242.472 367.439 242.741 367.433 242.986 367.342C243.232 367.252 243.441 367.082 243.578 366.859L249.139 357.239C249.264 357.007 249.308 356.74 249.265 356.481C249.221 356.221 249.092 355.983 248.898 355.805L246.339 353.602C246.143 353.41 246.002 353.168 245.929 352.903C245.856 352.638 245.855 352.358 245.926 352.092C246.477 349.81 246.71 347.463 246.618 345.118C246.62 344.831 246.686 344.548 246.81 344.29C246.935 344.032 247.116 343.806 247.34 343.626L254.247 338.768C254.474 338.589 254.66 338.363 254.792 338.106C254.925 337.849 255.001 337.566 255.017 337.277L258.316 333.323L258.461 330.091ZM225.445 364.723C218.393 368.792 214.007 365.906 214.007 357.758C214.007 349.61 219.836 339.634 226.888 335.565C233.939 331.496 238.22 334.459 238.22 342.597C238.22 350.736 232.496 360.625 225.445 364.694V364.723Z" fill="black"/>
<path d="M247.696 319.451L249.158 316.498C249.268 316.268 249.287 316.004 249.212 315.76C249.138 315.516 248.974 315.309 248.754 315.18L243.886 312.371C243.664 312.248 243.404 312.212 243.156 312.271C242.909 312.329 242.692 312.478 242.549 312.689L236.96 321.096C236.859 321.238 236.732 321.359 236.585 321.452L242.847 325.06L247.696 319.451Z" fill="#00CFC1"/>
<path d="M204.098 355.738C203.949 355.954 203.767 356.145 203.559 356.306L196.652 361.164C196.468 361.304 196.314 361.481 196.2 361.683L200.414 364.117L209.581 358.903L204.098 355.738Z" fill="#00CFC1"/>
<path d="M208.292 332.506C208.098 332.512 207.909 332.566 207.741 332.663C207.573 332.761 207.432 332.898 207.33 333.064L201.77 342.684C201.656 342.899 201.612 343.145 201.645 343.386L206.455 346.147L214.064 335.853L208.292 332.506Z" fill="#00CFC1"/>
<path d="M220.914 318.903L226.84 322.328L233.574 318.48V315.728L229.841 313.612C229.742 313.567 229.634 313.549 229.526 313.559C229.418 313.57 229.314 313.608 229.225 313.67L221.664 318.028C221.335 318.241 221.074 318.545 220.914 318.903Z" fill="#00CFC1"/>
<path d="M258.461 330.091C258.37 330.039 258.267 330.011 258.162 330.011C258.058 330.011 257.955 330.039 257.864 330.091L251.13 333.121C251.023 333.172 250.907 333.198 250.788 333.199C250.67 333.199 250.553 333.174 250.446 333.125C250.339 333.075 250.244 333.003 250.167 332.912C250.091 332.822 250.035 332.716 250.005 332.602C249.756 331.789 249.434 331 249.043 330.245L254.141 327.946C254.232 327.901 254.333 327.877 254.435 327.877C254.536 327.877 254.637 327.901 254.728 327.946L258.461 330.091Z" fill="#00CFC1"/>
<g opacity="0.4">
<path opacity="0.4" d="M247.696 319.451L249.158 316.498C249.268 316.268 249.287 316.004 249.212 315.76C249.138 315.516 248.974 315.309 248.754 315.18L243.886 312.371C243.664 312.248 243.404 312.212 243.156 312.271C242.909 312.329 242.692 312.478 242.549 312.689L236.96 321.096C236.859 321.238 236.732 321.359 236.585 321.452L242.847 325.06L247.696 319.451Z" fill="white"/>
<path opacity="0.4" d="M204.098 355.738C203.949 355.954 203.767 356.145 203.559 356.306L196.652 361.164C196.468 361.304 196.314 361.481 196.2 361.683L200.414 364.117L209.581 358.903L204.098 355.738Z" fill="white"/>
<path opacity="0.4" d="M208.292 332.506C208.098 332.512 207.909 332.566 207.741 332.664C207.573 332.761 207.432 332.898 207.33 333.064L201.77 342.684C201.656 342.899 201.612 343.145 201.645 343.386L206.455 346.147L214.064 335.853L208.292 332.506Z" fill="white"/>
<path opacity="0.4" d="M220.914 318.903L226.84 322.328L233.574 318.48V315.728L229.841 313.612C229.742 313.567 229.634 313.549 229.526 313.559C229.418 313.57 229.314 313.608 229.225 313.67L221.664 318.028C221.335 318.241 221.074 318.545 220.914 318.903Z" fill="white"/>
<path opacity="0.4" d="M258.461 330.091C258.37 330.039 258.267 330.011 258.162 330.011C258.058 330.011 257.955 330.039 257.864 330.091L251.13 333.121C251.023 333.172 250.907 333.198 250.788 333.199C250.67 333.199 250.553 333.174 250.446 333.125C250.339 333.075 250.244 333.003 250.167 332.912C250.091 332.822 250.035 332.716 250.005 332.602C249.756 331.789 249.434 331 249.043 330.245L254.141 327.946C254.232 327.901 254.333 327.877 254.435 327.877C254.536 327.877 254.637 327.901 254.728 327.946L258.461 330.091Z" fill="white"/>
</g>
<path d="M258.778 339.384V330.659C258.793 330.551 258.777 330.442 258.732 330.344C258.687 330.245 258.614 330.162 258.523 330.103C258.432 330.044 258.326 330.013 258.218 330.013C258.11 330.012 258.004 330.043 257.912 330.101L251.178 333.131C251.072 333.183 250.955 333.211 250.836 333.213C250.717 333.214 250.6 333.189 250.492 333.139C250.384 333.089 250.289 333.016 250.213 332.925C250.137 332.834 250.082 332.727 250.053 332.612C249.693 331.444 249.189 330.326 248.552 329.283C248.417 329.034 248.338 328.759 248.321 328.476C248.305 328.193 248.35 327.91 248.456 327.648L252.939 318.605C253.049 318.376 253.07 318.113 252.997 317.869C252.924 317.625 252.763 317.418 252.544 317.287L247.677 314.478C247.453 314.352 247.191 314.314 246.941 314.373C246.691 314.432 246.473 314.583 246.33 314.795L240.702 323.232C240.527 323.454 240.305 323.634 240.052 323.761C239.8 323.887 239.522 323.956 239.24 323.963C238.017 323.938 236.796 324.061 235.603 324.329C235.493 324.352 235.378 324.352 235.268 324.328C235.157 324.304 235.053 324.257 234.962 324.19C234.871 324.122 234.795 324.036 234.74 323.938C234.685 323.839 234.651 323.73 234.641 323.617L233.901 316.277C233.907 316.169 233.883 316.062 233.83 315.968C233.777 315.874 233.697 315.797 233.602 315.747C233.506 315.697 233.398 315.676 233.29 315.687C233.183 315.697 233.081 315.738 232.996 315.805L225.435 320.173C225.193 320.331 224.987 320.539 224.832 320.783C224.676 321.027 224.573 321.301 224.531 321.587L223.771 329.995C223.682 330.589 223.409 331.141 222.992 331.573C221.491 332.957 220.087 334.442 218.788 336.017C218.604 336.218 218.368 336.363 218.106 336.436C217.844 336.509 217.567 336.507 217.306 336.431L212.448 334.738C212.196 334.659 211.925 334.667 211.678 334.759C211.431 334.852 211.221 335.023 211.082 335.247L205.531 344.867C205.407 345.098 205.363 345.363 205.407 345.621C205.45 345.879 205.579 346.115 205.772 346.291L209.668 349.649C209.865 349.838 210.006 350.079 210.072 350.345C210.138 350.61 210.128 350.889 210.043 351.149C209.331 353.061 208.746 355.018 208.292 357.008C208.136 357.586 207.799 358.098 207.33 358.47L200.423 363.338C200.196 363.515 200.009 363.739 199.876 363.994C199.744 364.25 199.668 364.531 199.654 364.819V373.554C199.64 373.66 199.657 373.768 199.701 373.864C199.746 373.961 199.817 374.043 199.907 374.102C199.996 374.16 200.1 374.192 200.207 374.194C200.313 374.196 200.418 374.167 200.51 374.112L207.244 371.072C207.351 371.022 207.467 370.995 207.585 370.995C207.704 370.994 207.821 371.02 207.928 371.069C208.035 371.119 208.13 371.191 208.207 371.281C208.283 371.372 208.338 371.478 208.369 371.592C208.733 372.761 209.237 373.882 209.87 374.93C210.011 375.177 210.093 375.453 210.109 375.736C210.126 376.02 210.077 376.304 209.966 376.565L205.483 385.608C205.374 385.837 205.355 386.099 205.43 386.341C205.505 386.584 205.668 386.789 205.887 386.916L210.678 389.706C210.9 389.83 211.161 389.865 211.408 389.807C211.656 389.748 211.872 389.599 212.015 389.389L217.604 380.981C217.776 380.756 217.998 380.574 218.251 380.449C218.505 380.324 218.784 380.259 219.067 380.259C220.29 380.282 221.511 380.156 222.703 379.884C222.814 379.861 222.928 379.861 223.039 379.885C223.149 379.909 223.254 379.956 223.345 380.023C223.435 380.091 223.511 380.176 223.566 380.275C223.622 380.374 223.655 380.483 223.665 380.596L224.406 387.946C224.403 388.053 224.432 388.158 224.487 388.25C224.542 388.342 224.622 388.416 224.717 388.465C224.813 388.513 224.92 388.533 225.027 388.523C225.133 388.513 225.235 388.473 225.32 388.408L232.881 384.04C233.122 383.883 233.326 383.677 233.481 383.435C233.635 383.192 233.736 382.92 233.776 382.636L234.536 374.218C234.625 373.625 234.901 373.075 235.324 372.65C236.822 371.265 238.223 369.78 239.519 368.206C239.702 368.001 239.939 367.853 240.203 367.778C240.467 367.703 240.747 367.705 241.01 367.782L245.82 369.475C246.071 369.556 246.341 369.551 246.589 369.46C246.836 369.369 247.046 369.199 247.186 368.975L252.746 359.355C252.87 359.122 252.913 358.855 252.868 358.595C252.822 358.336 252.692 358.099 252.496 357.922L248.6 354.564C248.402 354.377 248.262 354.137 248.196 353.873C248.129 353.609 248.139 353.332 248.225 353.073C248.94 351.159 249.525 349.198 249.976 347.205C250.132 346.627 250.469 346.115 250.938 345.743L257.845 340.885C258.102 340.72 258.319 340.499 258.481 340.24C258.642 339.98 258.744 339.688 258.778 339.384ZM229.216 366.839C222.155 370.909 216.44 367.609 216.44 359.461C216.44 351.313 222.155 341.414 229.216 337.335C236.277 333.256 241.982 336.565 241.982 344.704C241.982 352.842 236.219 362.761 229.168 366.839H229.216Z" fill="#00CFC1"/>
<path d="M345.781 175.806H377.191V147.657C377.191 143.491 375.535 139.495 372.589 136.549C369.643 133.603 365.648 131.948 361.481 131.948C357.316 131.95 353.323 133.607 350.379 136.553C347.435 139.498 345.781 143.493 345.781 147.657V175.806Z" fill="#263238"/>
<path d="M355.661 168.167L333.179 169.033C332.4 168.36 327.946 163.049 327.946 163.049C327.946 163.049 315.728 161.481 315.661 161.924C315.594 162.366 327.676 175.305 328.869 176.604C329.21 177.043 329.648 177.398 330.149 177.64C330.649 177.882 331.199 178.004 331.755 177.999L352.332 179.288L355.661 168.167Z" fill="#FFA8A7"/>
<path d="M239.865 269.504L239.192 269.119C238.63 268.748 238.164 268.249 237.829 267.665C237.495 267.08 237.303 266.425 237.268 265.752V196.691C237.303 196.018 237.495 195.363 237.829 194.778C238.164 194.194 238.63 193.695 239.192 193.324L327.907 142.116C328.504 141.814 329.163 141.657 329.831 141.657C330.5 141.657 331.159 141.814 331.755 142.116L332.419 142.501C332.981 142.87 333.449 143.366 333.783 143.949C334.117 144.533 334.309 145.187 334.343 145.858V214.93C334.31 215.602 334.118 216.256 333.784 216.84C333.45 217.423 332.982 217.919 332.419 218.287L243.703 269.504C243.107 269.802 242.45 269.956 241.784 269.956C241.118 269.956 240.461 269.802 239.865 269.504Z" fill="#00CFC1"/>
<path opacity="0.4" d="M334.382 145.551C334.247 144.54 333.42 144.175 332.458 144.733L243.742 195.959C243.166 196.313 242.692 196.81 242.366 197.402L237.826 194.776C238.154 194.183 238.627 193.683 239.201 193.324L327.907 142.116C328.504 141.814 329.163 141.657 329.831 141.657C330.5 141.657 331.159 141.814 331.755 142.116L332.419 142.501C332.947 142.837 333.396 143.284 333.735 143.81C334.074 144.337 334.294 144.931 334.382 145.551Z" fill="white"/>
<path opacity="0.1" d="M243.386 269.658C242.819 269.884 242.21 269.987 241.599 269.961C240.989 269.934 240.391 269.779 239.846 269.504L239.163 269.119C238.601 268.748 238.135 268.249 237.801 267.665C237.467 267.08 237.274 266.425 237.239 265.752V196.69C237.255 196.01 237.45 195.346 237.806 194.766L242.347 197.393C241.998 197.976 241.803 198.638 241.779 199.317V268.398C241.799 269.495 242.501 270.014 243.386 269.658Z" fill="black"/>
<path d="M250.765 199.759L257.441 195.911C257.922 195.632 258.316 195.854 258.316 196.421V203.944C258.3 204.249 258.212 204.547 258.058 204.811C257.904 205.075 257.689 205.299 257.431 205.464L250.774 209.225C250.284 209.504 249.889 209.225 249.889 208.706V201.318C249.898 201.007 249.982 200.702 250.135 200.431C250.287 200.159 250.503 199.929 250.765 199.759Z" fill="#FAFAFA"/>
<path d="M256.575 204.367C256.489 204.423 256.389 204.453 256.286 204.453C256.184 204.453 256.084 204.423 255.998 204.367L253.968 202.828C253.689 202.626 253.727 202.049 254.045 201.549C254.362 201.048 254.843 200.808 255.113 201.019L256.556 202.107L260.548 193.526C260.798 192.987 261.269 192.631 261.616 192.717C261.962 192.804 262.02 193.323 261.779 193.853L257.219 203.646C257.094 203.931 256.891 204.174 256.633 204.348L256.575 204.367Z" fill="#37474F"/>
<path d="M250.765 216.113L257.441 212.265C257.922 211.986 258.316 212.265 258.316 212.775V220.298C258.3 220.603 258.212 220.901 258.058 221.165C257.904 221.429 257.689 221.653 257.431 221.818L250.774 225.589C250.284 225.858 249.889 225.589 249.889 225.07V217.672C249.898 217.361 249.982 217.056 250.135 216.785C250.287 216.513 250.503 216.283 250.765 216.113Z" fill="#FAFAFA"/>
<path d="M256.575 220.712C256.489 220.768 256.389 220.797 256.286 220.797C256.184 220.797 256.084 220.768 255.998 220.712L253.968 219.182C253.689 218.97 253.727 218.393 254.045 217.893C254.362 217.393 254.843 217.152 255.113 217.364L256.556 218.451L260.548 209.87C260.798 209.331 261.269 208.975 261.616 209.071C261.962 209.168 262.02 209.668 261.779 210.207L257.219 220C257.094 220.282 256.89 220.522 256.633 220.692L256.575 220.712Z" fill="#37474F"/>
<path d="M250.765 232.458L257.441 228.61C257.922 228.321 258.316 228.552 258.316 229.11V236.652C258.299 236.956 258.209 237.251 258.055 237.514C257.902 237.776 257.688 237.999 257.431 238.162L250.774 241.933C250.284 242.212 249.889 241.981 249.889 241.414V234.016C249.898 233.705 249.982 233.4 250.135 233.129C250.287 232.858 250.503 232.627 250.765 232.458Z" fill="#FAFAFA"/>
<path d="M256.575 237.056C256.491 237.117 256.39 237.15 256.286 237.15C256.183 237.15 256.082 237.117 255.998 237.056L253.968 235.526C253.689 235.324 253.727 234.747 254.045 234.247C254.362 233.747 254.843 233.506 255.113 233.708L256.556 234.795L260.548 226.214C260.798 225.685 261.269 225.32 261.616 225.416C261.962 225.512 262.02 226.012 261.779 226.551L257.219 236.344C257.094 236.629 256.891 236.873 256.633 237.046L256.575 237.056Z" fill="#37474F"/>
<path d="M250.765 248.85L257.441 245.002C257.922 244.723 258.316 245.002 258.316 245.512V253.006C258.299 253.31 258.209 253.605 258.055 253.868C257.902 254.13 257.688 254.353 257.431 254.516L250.774 258.287C250.284 258.566 249.889 258.335 249.889 257.768V250.37C249.904 250.065 249.991 249.769 250.144 249.505C250.296 249.24 250.509 249.016 250.765 248.85Z" fill="#FAFAFA"/>
<path d="M256.575 253.448C256.491 253.509 256.39 253.542 256.286 253.542C256.183 253.542 256.082 253.509 255.998 253.448L253.968 251.919C253.689 251.707 253.727 251.14 254.045 250.63C254.362 250.12 254.843 249.899 255.113 250.101L256.556 251.188L260.548 242.607C260.798 242.078 261.269 241.712 261.616 241.808C261.962 241.904 262.02 242.405 261.779 242.943L257.219 252.737C257.094 253.019 256.89 253.259 256.633 253.429L256.575 253.448Z" fill="#37474F"/>
<path d="M266.57 192.727C266.57 193.631 267.359 193.91 268.331 193.352L293.699 178.701C294.178 178.426 294.587 178.042 294.892 177.581C295.198 177.121 295.392 176.595 295.459 176.046C295.459 175.142 294.67 174.853 293.699 175.421L268.331 190.062C267.85 190.339 267.441 190.724 267.136 191.187C266.83 191.649 266.637 192.177 266.57 192.727Z" fill="#455A64"/>
<path d="M266.57 198.23C266.57 199.144 267.359 199.423 268.331 198.865L322.587 167.58C323.068 167.304 323.478 166.919 323.783 166.457C324.089 165.994 324.282 165.466 324.348 164.916C324.348 164.011 323.559 163.732 322.587 164.29L268.331 195.575C267.851 195.85 267.442 196.233 267.137 196.694C266.831 197.155 266.637 197.681 266.57 198.23Z" fill="#F0F0F0"/>
<path d="M266.57 208.754C266.57 209.658 267.359 209.947 268.331 209.379L293.699 194.738C294.179 194.461 294.588 194.076 294.894 193.613C295.199 193.151 295.393 192.623 295.459 192.073C295.459 191.169 294.67 190.89 293.699 191.448L268.331 206.06C267.846 206.34 267.434 206.729 267.129 207.197C266.823 207.665 266.631 208.198 266.57 208.754Z" fill="#455A64"/>
<path d="M266.57 214.228C266.57 215.132 267.359 215.411 268.331 214.853L322.587 183.569C323.067 183.293 323.476 182.91 323.781 182.449C324.087 181.988 324.281 181.463 324.348 180.914C324.348 180.009 323.559 179.721 322.587 180.288L268.331 211.563C267.85 211.84 267.441 212.225 267.136 212.687C266.83 213.15 266.637 213.677 266.57 214.228Z" fill="#F0F0F0"/>
<path d="M266.57 225.724C266.57 226.686 267.359 226.917 268.331 226.349L293.699 211.707C294.179 211.431 294.589 211.046 294.894 210.583C295.2 210.121 295.393 209.593 295.459 209.043C295.459 208.138 294.67 207.859 293.699 208.417L268.331 223.069C267.851 223.344 267.442 223.727 267.137 224.188C266.831 224.649 266.637 225.175 266.57 225.724Z" fill="#455A64"/>
<path d="M266.57 231.236C266.57 232.14 267.359 232.419 268.331 231.861L322.587 200.577C323.067 200.302 323.476 199.918 323.781 199.457C324.087 198.997 324.281 198.471 324.348 197.922C324.348 197.018 323.559 196.729 322.587 197.297L268.331 228.581C267.851 228.856 267.442 229.24 267.137 229.7C266.831 230.161 266.637 230.687 266.57 231.236Z" fill="#F0F0F0"/>
<path d="M266.57 242.732C266.57 243.694 267.359 243.925 268.331 243.367L293.699 228.715C294.178 228.44 294.587 228.057 294.892 227.596C295.198 227.135 295.392 226.609 295.459 226.06C295.459 225.098 294.67 224.867 293.699 225.425L268.331 240.077C267.851 240.352 267.442 240.735 267.137 241.196C266.831 241.657 266.637 242.183 266.57 242.732Z" fill="#455A64"/>
<path d="M266.57 248.244C266.57 249.148 267.359 249.437 268.331 248.869L322.587 217.595C323.067 217.317 323.475 216.931 323.78 216.469C324.086 216.007 324.28 215.48 324.348 214.93C324.348 214.026 323.559 213.747 322.587 214.305L268.331 245.589C267.851 245.864 267.442 246.248 267.137 246.709C266.831 247.169 266.637 247.695 266.57 248.244Z" fill="#F0F0F0"/>
<path d="M345.493 320.904C343.697 322.829 341.719 324.575 339.586 326.118C339.248 326.336 338.965 326.629 338.759 326.974C338.48 327.561 338.037 329.004 340.683 329.937C342.03 330.403 343.462 330.573 344.881 330.437C346.3 330.301 347.673 329.862 348.908 329.148C351.092 327.773 351.197 324.925 353.256 323.299C354.786 322.097 356.7 321.789 357.931 320.221C358.797 319.124 358.566 317.662 358.124 315.863C357.633 313.891 357.402 312.4 356.758 312.554L356.863 313.458C356.046 314.757 351.832 315.142 349.956 314.247C348.586 316.542 347.096 318.765 345.493 320.904Z" fill="#263238"/>
<path d="M343.646 322.751C344.292 322.174 344.908 321.564 345.493 320.923C346.745 319.307 347.896 317.614 348.937 315.853C349.661 314.79 350.001 313.51 349.899 312.227C349.754 310.861 349.379 307.369 349.379 307.369L356.055 306.897L356.835 313.448C356.998 314.93 355.767 316.248 353.593 318.124C351.418 320 348.658 324.367 346.695 325.464C344.733 326.561 343.318 326.522 342.482 325.954C341.645 325.387 341.51 324.916 343.646 322.751Z" fill="#FFA8A7"/>
<path d="M375.497 321.5V320.538C375.103 321.722 373.266 326.791 370.485 329.331C368.273 331.351 365.252 333.679 364.483 335.93C363.713 338.182 368.686 339.057 370.755 338.691C373.513 338.233 376.045 336.881 377.96 334.843C379.153 333.381 379.884 331.65 380.76 330.495C381.635 329.341 383.569 328.061 384.03 326.734C384.168 325.491 384.03 324.233 383.626 323.049C383.299 321.808 382.943 320.442 382.52 320.558V321.327C381.519 322.112 380.28 322.529 379.009 322.511C377.989 322.491 375.497 322.27 375.497 321.5Z" fill="#263238"/>
<path d="M368.446 331.063C369.139 330.457 369.831 329.851 370.457 329.283C372.381 327.503 373.881 324.473 374.737 322.443C375.22 321.271 375.468 320.016 375.469 318.749V314.747H382.491V321.308V321.481C382.145 322.943 378.932 326.82 377.094 329.35C375.873 331.043 373.535 333.198 370.755 333.574C367.975 333.949 366.763 333.064 368.446 331.063Z" fill="#FFA8A7"/>
<path d="M381.125 212.41C386.57 224.29 380.933 266.166 380.933 266.166C381.096 268.09 383.299 271.89 384.117 280.375C385.079 290.409 382.597 315.594 382.597 315.594C381.526 316.215 380.32 316.566 379.083 316.616C377.846 316.667 376.615 316.415 375.497 315.882C375.497 315.882 368.811 277.941 367.551 267.975C366.455 259.269 364.348 238.807 364.348 238.807L358.027 267.984C358.779 270.812 359.192 273.718 359.259 276.642C359.163 282.539 356.421 308.388 356.421 308.388C356.421 308.388 353.977 309.812 349.379 309.139C349.379 309.139 344.944 275.209 345.079 267.301C345.146 263.069 347.003 218.008 347.003 218.008L381.125 212.41Z" fill="#00CFC1"/>
<g opacity="0.15">
<path opacity="0.15" d="M364.348 238.807L362.578 229.091C362.578 229.091 355.103 227.542 351.717 224.348C354.059 227.092 357.121 229.128 360.558 230.226L362.539 238.73L358.951 263.742L364.348 238.807Z" fill="#263238"/>
</g>
<path d="M365.002 132.91L365.368 128.793C365.099 128.754 364.825 128.77 364.562 128.84C364.3 128.911 364.054 129.034 363.841 129.202C363.628 129.37 363.451 129.58 363.321 129.819C363.192 130.058 363.112 130.321 363.088 130.592C363.049 131.15 363.226 131.701 363.582 132.133C363.938 132.564 364.447 132.842 365.002 132.91Z" fill="#263238"/>
<path d="M365.223 133.324L368.552 130.88C368.402 130.65 368.207 130.452 367.978 130.3C367.749 130.148 367.492 130.044 367.221 129.996C366.951 129.947 366.673 129.954 366.406 130.017C366.138 130.08 365.886 130.197 365.666 130.361C365.228 130.705 364.939 131.204 364.856 131.754C364.774 132.305 364.905 132.866 365.223 133.324Z" fill="#263238"/>
<path d="M368.686 168.465C368.686 168.465 376.7 169.168 377.825 169.668C372.053 175.969 380.827 178.586 380.827 178.586L374.834 200.019C378.432 205.512 380.721 209.755 382.078 215.161C378.037 222.28 355.324 223.271 346.993 217.96C347.725 208.023 349.341 200.904 348.802 197.912C345.964 185.724 346.07 183.146 346.435 180.356C347.167 174.911 352.573 170.159 355.661 168.167H358.547L368.686 168.465Z" fill="#37474F"/>
<path d="M352.39 139.625C350.697 140.587 348.609 144.877 348.811 153.805C348.985 161.366 351.438 163.232 352.659 163.771C353.881 164.31 356.267 163.983 358.576 163.598V168.138C358.576 168.138 355.382 171.842 355.584 173.91C355.786 175.979 360.192 176.479 363.174 174.449C365.333 172.772 367.193 170.742 368.677 168.446L368.619 158.009C368.619 158.009 369.975 159.336 372.284 157.316C374.208 155.652 374.824 152.852 373.342 151.352C372.959 150.993 372.495 150.731 371.99 150.587C371.485 150.443 370.953 150.421 370.438 150.524C369.923 150.626 369.439 150.85 369.028 151.176C368.616 151.502 368.288 151.922 368.071 152.4C367.436 153.776 365.993 153.795 365.983 152.227C365.916 144.185 364.963 143.761 364.155 140.462C359.355 138.913 355.94 139.49 352.39 139.625Z" fill="#FFA8A7"/>
<path d="M357.258 151.9C357.252 152.026 357.27 152.153 357.313 152.272C357.355 152.391 357.421 152.5 357.506 152.594C357.591 152.688 357.693 152.764 357.807 152.818C357.922 152.873 358.046 152.904 358.172 152.91C358.298 152.916 358.424 152.898 358.544 152.855C358.663 152.813 358.772 152.747 358.866 152.662C358.96 152.577 359.036 152.475 359.09 152.361C359.144 152.246 359.176 152.122 359.182 151.996C359.188 151.87 359.17 151.743 359.127 151.624C359.085 151.505 359.019 151.396 358.934 151.302C358.849 151.208 358.747 151.132 358.633 151.078C358.518 151.023 358.394 150.992 358.268 150.986C358.142 150.98 358.015 150.998 357.896 151.041C357.777 151.083 357.667 151.149 357.574 151.234C357.48 151.319 357.404 151.421 357.35 151.535C357.295 151.65 357.264 151.774 357.258 151.9Z" fill="#263238"/>
<path d="M356.998 158.316L354.795 159.019C354.834 159.167 354.902 159.306 354.996 159.427C355.09 159.548 355.208 159.648 355.342 159.722C355.476 159.796 355.624 159.841 355.776 159.856C355.929 159.871 356.083 159.854 356.229 159.807C356.527 159.71 356.776 159.499 356.92 159.22C357.064 158.941 357.092 158.616 356.998 158.316Z" fill="#F28F8F"/>
<path d="M349.61 149.379L351.534 148.052C351.453 147.922 351.346 147.809 351.221 147.721C351.095 147.633 350.953 147.571 350.803 147.54C350.653 147.509 350.498 147.508 350.347 147.538C350.197 147.568 350.054 147.628 349.927 147.715C349.674 147.901 349.499 148.176 349.441 148.485C349.382 148.794 349.442 149.113 349.61 149.379Z" fill="#263238"/>
<path d="M360.029 149.687L358.104 148.35C358.185 148.221 358.292 148.109 358.417 148.022C358.542 147.935 358.684 147.875 358.833 147.844C358.982 147.814 359.136 147.814 359.285 147.844C359.435 147.875 359.576 147.936 359.701 148.023C359.957 148.207 360.133 148.481 360.194 148.79C360.254 149.1 360.195 149.42 360.029 149.687Z" fill="#263238"/>
<path d="M349.899 151.217C349.899 151.407 349.955 151.593 350.061 151.751C350.166 151.909 350.317 152.033 350.492 152.106C350.668 152.178 350.862 152.197 351.048 152.16C351.235 152.123 351.406 152.032 351.541 151.897C351.675 151.763 351.767 151.591 351.804 151.404C351.841 151.218 351.822 151.024 351.749 150.849C351.677 150.673 351.553 150.523 351.395 150.417C351.237 150.311 351.051 150.255 350.861 150.255C350.605 150.255 350.361 150.356 350.18 150.537C350 150.717 349.899 150.962 349.899 151.217Z" fill="#263238"/>
<path d="M354.391 150.668L354.237 156.392L351.226 155.459L354.391 150.668Z" fill="#F28F8F"/>
<path d="M358.585 163.598C361.019 163.28 366.022 161.847 366.801 159.865C366.487 160.866 365.873 161.747 365.04 162.386C363.549 163.675 358.585 165.118 358.585 165.118V163.598Z" fill="#F28F8F"/>
<path d="M357.402 132.997C355.667 132.997 353.949 133.339 352.346 134.004C350.743 134.669 349.288 135.644 348.063 136.873C346.837 138.102 345.867 139.56 345.206 141.165C344.546 142.77 344.208 144.489 344.213 146.224V147.927H350.668C352.12 147.928 353.524 147.402 354.617 146.447C355.711 145.491 356.42 144.171 356.613 142.732L356.854 147.927C358.045 147.918 359.19 147.467 360.068 146.662C360.946 145.857 361.494 144.755 361.606 143.569L361.683 142.722C361.797 144.14 362.44 145.462 363.485 146.426C364.529 147.391 365.899 147.926 367.32 147.927H367.898L368.552 138.615L357.402 132.997Z" fill="#263238"/>
<path d="M372.573 173.16C370.784 175.815 360.577 198.172 360.577 198.172C360.577 198.172 345.185 197.133 338.682 196.44C336.633 196.219 337.085 194.026 336.267 191.852C335.449 189.678 334.401 190.101 334.401 190.101V192.987C334.468 194.911 331.245 195.988 329.86 196.527C327.59 197.412 325.098 197.97 322.751 198.701C321.927 198.857 321.188 199.309 320.673 199.971C320.499 200.306 320.413 200.68 320.425 201.057C320.437 201.435 320.545 201.802 320.74 202.126C321.303 203.04 322.074 203.808 322.99 204.368C323.906 204.928 324.942 205.264 326.012 205.349C328.629 205.666 331.168 204.916 333.708 204.454C336.719 203.925 339.018 203.492 342.001 203.886C344.983 204.281 348.6 205.06 351.438 205.579C355.076 206.211 358.747 206.635 362.433 206.849C364.482 206.945 365.974 206.541 367.744 204.04C369.514 201.539 379.288 181.404 379.288 181.404C383.357 175.632 381.019 170.745 377.999 169.716C376.142 169.1 374.372 170.543 372.573 173.16Z" fill="#FFA8A7"/>
<path d="M310.457 151.65C311.233 151.754 311.997 151.937 312.737 152.198C314.634 152.844 316.255 154.116 317.335 155.806C317.803 156.639 318.002 157.597 317.903 158.547C317.874 158.796 317.799 159.038 317.681 159.259C317.411 159.64 317.042 159.939 316.613 160.125C315.935 160.59 315.134 160.846 314.311 160.859C313.489 160.873 312.68 160.644 311.986 160.202C310.106 159.112 308.121 158.216 306.06 157.527C305.02 157.205 303.944 157.014 302.857 156.96C302.23 156.976 301.626 157.195 301.135 157.585C300.963 157.157 300.913 156.69 300.989 156.235C301.066 155.781 301.266 155.356 301.568 155.007C302.632 153.567 304.134 152.511 305.849 151.996C307.34 151.54 308.914 151.422 310.457 151.65Z" fill="#FFA8A7"/>
<path d="M140.269 217.912C145.843 217.912 150.361 213.394 150.361 207.821C150.361 202.248 145.843 197.729 140.269 197.729C134.696 197.729 130.178 202.248 130.178 207.821C130.178 213.394 134.696 217.912 140.269 217.912Z" fill="#263238"/>
<path d="M116.113 390.659H123.223V378.499H116.113V390.659Z" fill="#FFA8A7"/>
<path d="M140.75 377.845L147.85 378.085L148.206 365.214L140.75 364.973V377.845Z" fill="#FFA8A7"/>
<path d="M116.585 274.247C116.585 281.029 115.709 329.976 115.709 329.976C115.546 331.9 113.708 335.526 114.112 343.03C114.642 353.218 115.815 384.579 115.815 384.579C117.042 385.181 118.386 385.506 119.752 385.533C121.118 385.559 122.474 385.286 123.723 384.733C123.723 384.733 129.995 343.068 131.265 332.967C132.381 324.165 134.266 300.259 134.266 300.259L138.114 329.014C137.293 332.718 136.998 336.52 137.239 340.307C137.566 344.973 140.308 373.891 140.308 373.891C141.544 374.591 142.919 375.01 144.336 375.118C145.753 375.226 147.176 375.021 148.504 374.516C148.504 374.516 152.102 333.304 152.179 329.014C152.275 324.136 149.812 274.276 149.812 274.276L116.585 274.247Z" fill="#37474F"/>
<path d="M148.841 232.948C153.006 236.373 160.529 243.328 160.529 243.328L148.793 249.783L141.327 229.764C141.327 229.764 144.3 229.187 148.841 232.948Z" fill="#00CFC1"/>
<path opacity="0.1" d="M148.841 232.948C153.006 236.373 160.529 243.328 160.529 243.328L148.793 249.783L141.327 229.764C141.327 229.764 144.3 229.187 148.841 232.948Z" fill="black"/>
<path d="M118.999 234.641C118.999 234.641 116.344 237.306 116.344 243.752V257.672L116.142 283.963C126.339 289.341 139.23 289.649 150.091 281.703C150.091 281.703 149.572 247.917 149.572 242.376C149.572 236.835 146.493 229.649 138.028 229.158L127.071 231.707L118.999 234.641Z" fill="#00CFC1"/>
<path d="M122.838 214.988C122.838 214.988 124.473 222.684 125.127 223.934C125.564 224.712 126.285 225.291 127.138 225.551L127.022 220.154L122.838 214.988Z" fill="#263238"/>
<path d="M124.887 203.992C124.317 203.923 123.738 203.986 123.196 204.177C122.654 204.367 122.163 204.679 121.76 205.089C120.414 206.464 121.164 210.774 122.838 214.988L125.916 215.344L124.887 203.992Z" fill="#263238"/>
<path d="M126.84 215.344C126.224 215.719 125.339 214.526 124.579 213.737C123.819 212.948 121.337 211.813 120.096 214.459C118.855 217.104 121.212 220.644 123.136 221.26C126.503 222.318 126.984 220.163 126.984 220.163L127.244 232.323C127.244 232.323 130.13 237.133 137.624 238.287C141.472 238.884 142.376 235.171 138.211 232.006V228.302C139.715 228.541 141.24 228.618 142.761 228.533C145.243 228.148 146.801 226.195 147.571 223.511C148.783 219.201 149.235 215.719 148.215 207.234C147.09 197.941 136.277 197.845 130.438 201.52C124.598 205.195 126.84 215.344 126.84 215.344Z" fill="#FFA8A7"/>
<path d="M126.84 216.383C126.532 216.383 125.349 214.459 124.579 213.737C123.511 212.775 124.887 203.992 124.887 203.992C124.609 203.231 124.558 202.406 124.741 201.617C124.924 200.828 125.332 200.109 125.916 199.548C127.378 197.951 129.812 197.768 133.978 197.114C136.161 196.767 139.471 196.152 141.674 195.757C144.271 195.267 146.426 194.795 148.273 196.354C148.991 196.981 149.498 197.815 149.726 198.741C149.953 199.667 149.889 200.641 149.543 201.529C149.353 201.933 149.103 202.306 148.802 202.636C148.31 203.229 147.665 203.675 146.936 203.925C146.936 203.925 145.801 204.935 141.847 205.416C138.199 205.689 134.534 205.618 130.899 205.204C129.755 205.05 129.514 206.166 128.898 209.187C128.331 211.852 127.879 216.363 126.84 216.383Z" fill="#263238"/>
<path d="M124.896 204.675L121.212 202.665C121.329 202.411 121.496 202.183 121.704 201.996C121.911 201.809 122.155 201.666 122.419 201.576C122.684 201.486 122.964 201.451 123.243 201.472C123.522 201.494 123.793 201.573 124.04 201.703C124.539 201.991 124.907 202.462 125.067 203.016C125.227 203.571 125.165 204.165 124.896 204.675Z" fill="#263238"/>
<path d="M138.239 228.292C138.239 228.292 132.708 227.176 130.774 226.147C129.637 225.555 128.705 224.632 128.1 223.501C128.39 224.633 128.907 225.693 129.62 226.618C131.034 228.427 138.278 229.764 138.278 229.764L138.239 228.292Z" fill="#F28F8F"/>
<path d="M136.912 213.958C136.904 214.178 136.832 214.39 136.705 214.569C136.577 214.747 136.4 214.884 136.195 214.962C135.99 215.041 135.766 215.057 135.552 215.009C135.338 214.961 135.143 214.85 134.991 214.692C134.839 214.534 134.737 214.334 134.698 214.118C134.659 213.902 134.685 213.679 134.772 213.478C134.859 213.276 135.003 213.105 135.187 212.985C135.371 212.865 135.586 212.802 135.806 212.804C135.954 212.807 136.101 212.838 136.237 212.898C136.373 212.957 136.496 213.043 136.599 213.151C136.702 213.258 136.783 213.385 136.836 213.523C136.89 213.662 136.916 213.81 136.912 213.958Z" fill="#263238"/>
<path d="M135.738 209.774L133.362 211.082C133.272 210.92 133.214 210.741 133.193 210.557C133.171 210.372 133.187 210.185 133.238 210.006C133.288 209.828 133.374 209.661 133.49 209.515C133.605 209.37 133.748 209.248 133.91 209.158C134.07 209.073 134.245 209.022 134.425 209.007C134.605 208.993 134.786 209.015 134.957 209.072C135.128 209.13 135.285 209.222 135.42 209.343C135.554 209.463 135.662 209.61 135.738 209.774Z" fill="#263238"/>
<path d="M137.739 221.626L140.269 222.588C140.214 222.757 140.126 222.913 140.009 223.047C139.892 223.181 139.75 223.29 139.59 223.368C139.43 223.446 139.257 223.492 139.079 223.501C138.902 223.511 138.724 223.485 138.557 223.425C138.213 223.291 137.934 223.028 137.782 222.692C137.629 222.355 137.614 221.973 137.739 221.626Z" fill="#F28F8F"/>
<path d="M146.801 210.678L144.637 209.014C144.738 208.861 144.87 208.731 145.025 208.632C145.179 208.533 145.353 208.468 145.534 208.441C145.716 208.414 145.901 208.425 146.078 208.474C146.255 208.523 146.419 208.608 146.561 208.725C146.842 208.959 147.024 209.291 147.069 209.654C147.114 210.017 147.018 210.383 146.801 210.678Z" fill="#263238"/>
<path d="M146.137 213.651C146.128 213.869 146.054 214.081 145.926 214.258C145.797 214.435 145.619 214.571 145.414 214.647C145.209 214.724 144.986 214.739 144.772 214.69C144.559 214.641 144.365 214.53 144.214 214.371C144.063 214.212 143.962 214.013 143.924 213.797C143.886 213.582 143.912 213.359 143.999 213.158C144.086 212.957 144.23 212.787 144.414 212.667C144.597 212.548 144.812 212.485 145.031 212.487C145.331 212.497 145.616 212.624 145.823 212.842C146.03 213.06 146.143 213.35 146.137 213.651Z" fill="#263238"/>
<path d="M140.49 212.592L140.846 219.269L144.329 218.076L140.49 212.592Z" fill="#F28F8F"/>
<path d="M123.223 387.147V386.137C123.906 386.435 125.483 392.458 128.302 395.026C130.543 397.075 133.603 399.432 134.382 401.712C135.161 403.992 130.12 405.387 128.023 405.021C125.599 404.588 121.376 402.876 120.327 401.289C119.278 399.701 118.778 397.354 117.912 396.19C117.047 395.026 115.026 393.727 114.603 392.342C114.464 391.086 114.606 389.814 115.017 388.619C115.344 387.359 115.7 385.983 116.133 386.099V386.868C117.141 387.669 118.396 388.094 119.682 388.071C120.712 388.148 123.232 387.946 123.223 387.147Z" fill="#263238"/>
<path d="M147.927 375.901C148.302 375.901 148.6 376.431 149.408 377.316C150.628 378.54 152.042 379.554 153.593 380.317C156.248 381.654 161.424 383.703 163.761 384.752C165.233 385.416 165.156 387.186 163.646 388.186C162.136 389.187 158.49 389.918 154.103 388.937C151.717 388.398 148.61 386.195 146.638 386.32C144.666 386.445 140.991 386.407 139.538 385.406C138.086 384.406 138.672 382.27 139.086 380.432C139.529 378.422 140.048 375.305 140.75 375.44V376.142C141.606 377.431 146.012 377.96 147.888 377.008L147.927 375.901Z" fill="#263238"/>
<path d="M134.266 300.231C137.937 299.082 141.312 297.145 144.156 294.555C144.156 294.555 142.232 298.133 136.575 301.452L137.787 326.522L134.266 300.231Z" fill="#263238"/>
<path d="M143.126 327.147L142.453 326.763C141.892 326.39 141.426 325.892 141.092 325.307C140.758 324.723 140.565 324.068 140.529 323.396V254.334C140.565 253.661 140.758 253.007 141.092 252.422C141.426 251.837 141.892 251.339 142.453 250.967L202.27 216.45C202.867 216.151 203.526 215.996 204.194 215.996C204.862 215.996 205.521 216.151 206.118 216.45L206.792 216.844C207.353 217.214 207.82 217.71 208.154 218.293C208.489 218.877 208.681 219.53 208.715 220.202V289.273C208.679 289.944 208.487 290.598 208.152 291.181C207.818 291.764 207.352 292.26 206.792 292.631L146.974 327.167C146.375 327.462 145.716 327.615 145.048 327.611C144.38 327.608 143.722 327.449 143.126 327.147Z" fill="#F5F5F5"/>
<path d="M175.786 244.598C186.147 238.614 194.555 243.473 194.555 255.44C194.555 267.407 186.147 281.962 175.786 287.946C165.426 293.929 157.008 289.081 157.008 277.114C157.008 265.146 165.464 250.591 175.786 244.598Z" fill="#455A64"/>
<path d="M175.652 254.026C179.009 252.102 181.741 253.651 181.741 257.537C181.631 259.656 181.022 261.719 179.964 263.558C178.906 265.397 177.428 266.959 175.652 268.119C172.285 270.043 169.562 268.494 169.562 264.608C169.672 262.489 170.281 260.426 171.339 258.587C172.397 256.748 173.875 255.185 175.652 254.026Z" fill="#00CFC1"/>
<path d="M187.648 274.728C187.648 268.35 183.174 265.762 177.643 268.956L174.189 270.947C168.667 274.141 164.185 281.895 164.185 288.263V289.985C167.378 291.043 171.4 290.466 175.786 287.936C180.583 284.979 184.64 280.965 187.648 276.2V274.728Z" fill="#00CFC1"/>
<path d="M208.754 219.875C208.619 218.865 207.792 218.499 206.83 219.057L147.013 253.602C146.439 253.959 145.966 254.456 145.637 255.045L141.097 252.419C141.425 251.826 141.898 251.327 142.472 250.967L202.27 216.45C202.866 216.147 203.525 215.989 204.194 215.989C204.863 215.989 205.522 216.147 206.118 216.45L206.792 216.835C207.317 217.172 207.764 217.618 208.102 218.142C208.441 218.666 208.663 219.257 208.754 219.875Z" fill="#FAFAFA"/>
<path d="M146.676 327.301C146.107 327.528 145.497 327.631 144.885 327.604C144.273 327.578 143.674 327.422 143.126 327.147L142.443 326.763C141.882 326.39 141.416 325.892 141.082 325.307C140.748 324.723 140.555 324.068 140.519 323.396V254.334C140.535 253.653 140.731 252.989 141.087 252.41L145.628 255.036C145.279 255.619 145.084 256.281 145.06 256.96V326.041C145.06 327.138 145.762 327.657 146.676 327.301Z" fill="#E0E0E0"/>
<path d="M155.151 309.928C155.151 311.852 156.527 312.688 158.23 311.707L193.362 291.486C194.259 290.903 195.005 290.116 195.54 289.19C196.074 288.264 196.383 287.225 196.44 286.157C196.44 284.233 195.065 283.396 193.362 284.377L158.259 304.646C157.365 305.224 156.619 306.002 156.08 306.919C155.54 307.836 155.222 308.866 155.151 309.928Z" fill="#00CFC1"/>
<path d="M107.6 276.248C103.954 273.708 104.002 269.937 105.166 265.666C113.102 236.325 115.536 236.161 118.999 234.68L121.78 246.224L114.363 270.274C119.331 273.922 124.97 276.553 130.957 278.018C132.204 278.227 133.485 278.091 134.661 277.624C136.921 276.354 138.191 276.354 140.51 275.7V279.49C142.582 279.752 144.684 279.68 146.734 279.278C151.544 278.384 153.631 279.384 150.697 284.867C148.86 288.302 145.291 289.437 136.344 287.898C133.084 287.281 129.87 286.442 126.724 285.387C119.982 283.177 113.554 280.106 107.6 276.248Z" fill="#FFA8A7"/>
<path d="M118.999 234.641C118.999 234.641 122.414 236.787 123.146 242.164C123.877 247.542 118.701 262.174 118.701 262.174C118.701 262.174 110.341 261.375 106.878 257.258C106.878 257.258 111.688 243.877 112.65 240.856C113.066 239.352 113.872 237.985 114.987 236.893C116.103 235.802 117.487 235.025 118.999 234.641Z" fill="#00CFC1"/>
<path opacity="0.1" d="M118.999 234.641C118.999 234.641 122.414 236.787 123.146 242.164C123.877 247.542 118.701 262.174 118.701 262.174C118.701 262.174 110.341 261.375 106.878 257.258C106.878 257.258 111.688 243.877 112.65 240.856C113.066 239.352 113.872 237.985 114.987 236.893C116.103 235.802 117.487 235.025 118.999 234.641Z" fill="black"/>
<path d="M208.754 236.527V240.808C208.754 240.808 206.445 244.319 203.944 245.618C201.443 246.917 201.481 252.102 204.569 252.833C207.657 253.564 211.909 249.745 212.265 247.648C212.621 245.551 211.861 236.306 208.754 236.527Z" fill="#FFA8A7"/>
<line x1="276.997" y1="8.97403" x2="358.003" y2="8.97403" stroke="#00CFC1" stroke-width="5"/>
</svg>
