<svg width="68" height="78" viewBox="0 0 68 78" fill="none" xmlns="http://www.w3.org/2000/svg">
<path d="M67.14 11.7617L41.4433 72.5584C41.2866 73.0284 40.9716 73.4984 40.8166 73.655C40.8166 73.8117 40.66 73.8117 40.66 73.8117C40.345 74.1234 40.0333 74.595 39.7183 74.9084C39.7183 75.065 39.5616 75.065 39.5616 75.065C39.25 75.535 38.935 75.6917 38.6216 76.005C38.6216 76.005 38.465 76.005 38.465 76.1617C38.15 76.475 37.8383 76.7884 37.3666 76.945C37.3666 76.945 37.3666 76.945 37.055 76.945C37.055 76.945 37.055 76.945 37.055 77.1017C36.5833 77.1017 36.1133 77.2584 35.8016 77.415C35.645 77.415 35.645 77.415 35.49 77.415C34.8633 77.5717 34.3916 77.5717 33.9216 77.5717C33.61 77.5717 33.1383 77.5717 32.5116 77.415C32.355 77.415 32.355 77.415 32.2 77.415C31.7283 77.2584 31.4166 77.1017 30.9466 77.1017C30.9466 76.945 30.9466 76.945 30.9466 76.945C30.635 76.945 30.635 76.945 30.635 76.945C30.1633 76.7884 29.8516 76.475 29.225 76.1617C29.225 76.005 29.0683 76.005 29.0683 76.005C28.7533 75.6917 28.4416 75.5334 28.1266 75.065C27.97 75.065 27.97 75.065 27.815 74.9084C27.6583 74.595 27.3433 74.1234 27.0316 73.8117C26.875 73.8117 26.875 73.8117 26.875 73.655C26.56 73.4984 26.4033 73.0284 26.2483 72.5584L0.859976 11.7617C-1.01836 7.53003 1.01664 2.98836 5.40497 1.1067C9.16497 -0.773304 14.0233 1.42003 15.9016 5.6517L33.92 48.2717L52.0983 5.6517C53.8216 1.42003 58.5233 -0.773304 62.595 1.1067C66.985 2.98836 69.0183 7.5317 67.14 11.7617Z" fill="black"/>
<path d="M34 3.20679L58.0633 62.7435L34 48.5985L9.93665 62.7435L34 3.20679Z" fill="#00CFC1"/>
</svg>
